<svg width="1920" height="1080" viewBox="0 0 1920 1080" fill="none" xmlns="http://www.w3.org/2000/svg">
<g clip-path="url(#clip0_3_4495)">
<rect width="1920" height="1080" fill="white"/>
<path d="M0 1080L1920 1080L1920 0L9.44166e-05 -0.000167852L0 1080Z" fill="url(#paint0_linear_3_4495)"/>
<mask id="mask0_3_4495" style="mask-type:luminance" maskUnits="userSpaceOnUse" x="582" y="-289" width="1492" height="1732">
<path d="M1982.8 -284.891C2017.28 -276.356 2047.61 -252.545 2063.13 -217.541C2089.81 -157.413 2062.71 -87.0298 2002.59 -60.3229L1186.02 302.184C1169.86 309.353 1166.87 331.007 1180.48 342.296L1886.54 928.72C1920.72 957.104 1936.26 1002.15 1926.86 1045.58C1917.45 1089.01 1884.68 1123.6 1841.82 1135.28L733.304 1437.9C669.843 1455.22 604.372 1417.81 587.057 1354.33C569.741 1290.85 607.133 1225.36 670.576 1208.05L1514.08 977.767C1532.67 972.691 1537.85 948.773 1523.02 936.447L851.115 378.389C819.421 352.056 803.563 311.222 809.215 270.398C814.867 229.575 841.201 194.581 878.868 177.862L1905.95 -278.105C1931.08 -289.273 1958 -291.025 1982.78 -284.889L1982.8 -284.891Z" fill="white"/>
</mask>
<g mask="url(#mask0_3_4495)">
<path d="M597.498 1692.05L2214.45 1575.08L2069 -435.163L452.054 -318.192L597.498 1692.05Z" fill="url(#paint1_linear_3_4495)"/>
</g>
</g>
<defs>
<linearGradient id="paint0_linear_3_4495" x1="1920" y1="5.87571" x2="-99.3366" y2="248.976" gradientUnits="userSpaceOnUse">
<stop stop-color="#002C5A"/>
<stop offset="1" stop-color="#0980FF"/>
</linearGradient>
<linearGradient id="paint1_linear_3_4495" x1="2150.57" y1="621.052" x2="537.065" y2="737.791" gradientUnits="userSpaceOnUse">
<stop stop-color="#0980FF"/>
<stop offset="1" stop-color="#0355AD"/>
</linearGradient>
<clipPath id="clip0_3_4495">
<rect width="1920" height="1080" fill="white"/>
</clipPath>
</defs>
</svg>