<svg width="734" height="256" viewBox="0 0 734 256" fill="none" xmlns="http://www.w3.org/2000/svg">
<path d="M373.266 47.6601H373.35V47.1664C373.294 47.3154 373.266 47.4831 373.266 47.6601ZM389.35 40.5066V40.7395H389.378C389.378 40.6556 389.378 40.5625 389.35 40.5066Z" fill="#0980FF"/>
<path d="M388.458 40.6609V43.9856C388.458 45.9966 388.431 48.7315 388.431 51.6362C388.404 57.383 388.377 63.6929 388.377 65.9004C388.377 76.6165 379.212 83.4269 369.651 83.4269H323.653C318.54 83.4269 314.182 81.8092 310.725 78.7347C307.466 75.8837 305.071 71.8439 303.441 66.8746C300.965 66.821 298.778 67.1573 296.527 67.4433C294.555 67.6667 294.051 68.3102 293.916 68.7571C293.664 69.4006 293.808 70.491 294.42 71.9925C295.014 73.4761 295.915 75.0312 296.842 76.5685C297.742 78.0164 298.697 79.5 299.201 80.5636C300.803 83.9151 301.028 87.9906 299.318 92.6739C297.463 97.6432 291.161 102.889 282.113 103.024C273.569 103.193 269.238 103.024 259.055 103.024C253.464 103.024 248.99 100.458 245.929 96.5528C242.868 92.7007 241.148 87.5348 240.869 82.2349C240.725 79.2765 240.761 69.7313 240.788 65.0123C240.788 62.6974 242.67 60.8563 244.974 60.8563H251.187C253.518 60.8563 255.4 62.7243 255.4 65.0123C255.454 69.6151 255.544 78.356 255.796 80.8942C256.048 83.3521 256.3 85.077 257.147 86.2568C257.849 87.2309 259.172 88.0443 262.351 87.9906C265.835 87.937 269.094 87.9906 271.939 88.0711C274.811 88.1515 277.197 88.2409 278.998 88.2409C280.933 88.2409 282.707 88.2677 284.03 87.8476C284.652 87.6242 285.075 87.3739 285.327 87.0075C285.579 86.6768 285.777 86.1674 285.804 85.3094C285.156 82.6281 284.003 80.7334 282.68 78.4454C281.356 76.1037 279.925 73.4761 279.142 69.5972L279.115 69.5168V69.4363C278.781 65.1374 279.988 61.2585 282.599 58.327C285.183 55.3955 289.063 53.5275 293.844 53.0807C301.073 52.4104 304.414 52.2082 311.553 52.1277C312.904 52.1009 314.2 52.4316 315.127 53.3879C316.055 54.3085 316.424 55.5955 316.424 56.9897C316.424 58.2499 316.676 59.528 316.955 60.9222C317.351 62.8438 318.702 64.7475 320.61 66.2222C322.519 67.7058 324.824 68.6532 326.94 68.7873C328.425 68.9035 337.113 68.9034 345.945 68.8677C354.714 68.8409 363.52 68.7873 365.059 68.7873C367.166 68.7873 368.633 68.5102 369.642 68.0365C370.65 67.5628 371.298 66.9193 371.748 66.0524C372.253 65.1854 372.532 64.0146 372.73 62.5399C372.901 61.0652 372.955 59.3582 373.009 57.4008C373.036 55.5865 373.036 53.0751 373.036 50.9837C373.036 49.947 373.009 49.0264 373.009 48.3918V47.6143C373.009 47.5338 372.982 47.4445 372.982 47.3908V47.3372H373.063V46.8635L373.117 23.197C373.117 21.6597 374.386 20.4084 375.953 20.4084L385.649 20.5514C387.198 20.5514 388.431 21.8116 388.431 23.34V40.6966H388.458V40.6609Z" fill="#0980FF"/>
<path d="M287.248 108.465H281.154C279.624 108.465 278.383 109.717 278.383 111.262V118.185C278.383 119.731 279.624 120.983 281.154 120.983H287.248C288.779 120.983 290.019 119.731 290.019 118.185V111.262C290.019 109.717 288.779 108.465 287.248 108.465Z" fill="#0980FF"/>
<path d="M267.556 108.465H261.462C259.931 108.465 258.69 109.717 258.69 111.262V118.185C258.69 119.731 259.931 120.983 261.462 120.983H267.556C269.086 120.983 270.327 119.731 270.327 118.185V111.262C270.327 109.717 269.086 108.465 267.556 108.465Z" fill="#0980FF"/>
<path d="M376.761 90.5808H370.667C369.136 90.5808 367.896 91.8334 367.896 93.3787V100.302C367.896 101.847 369.136 103.099 370.667 103.099H376.761C378.291 103.099 379.532 101.847 379.532 100.302V93.3787C379.532 91.8334 378.291 90.5808 376.761 90.5808Z" fill="#0980FF"/>
<path d="M711.212 17.7709C720.399 11.6399 729.979 5.10913 733.45 2.49681C733.924 2.1325 734.121 1.52829 733.924 0.941854C733.727 0.390957 733.2 0 732.582 0C727.806 0.0533126 721.696 5.42854e-07 717.536 0.0977404C716.785 0.115511 715.613 2.64807e-07 714.387 0.159938C713.126 0.355418 711.704 0.684178 710.425 1.43944C697.042 9.152 686.657 16.6158 676.593 24.1062L676.539 24.1595L676.486 24.2128C672.406 28.0424 672.433 33.8713 676.512 37.6654C680.565 41.4417 699.055 60.0833 706.292 67.4049C706.345 67.4583 706.372 67.5116 706.372 67.5738C706.399 67.6271 706.372 67.6804 706.345 67.7426C706.319 67.8048 706.292 67.8492 706.229 67.9114C706.175 67.9381 706.113 67.9647 706.032 67.9647H706.006C696.953 67.9114 652.717 67.7959 635.488 67.7692C635.936 65.77 636.159 63.6908 636.159 61.585C636.159 58.6439 635.963 55.8183 635.488 53.0105C634.621 47.7948 632.528 43.5209 629.37 40.3043C626.212 37.0612 621.802 36.0038 616.891 35.0531C605.825 32.9472 597.032 37.2922 592.729 43.3076C587.38 50.7981 586.619 59.4969 588.999 66.7385C591.369 74.0335 596.173 79.7202 605.45 81.3284C607.766 81.7194 609.055 81.8527 610.781 81.9948C611.228 82.0215 611.676 82.0748 612.203 82.137C611.506 83.6031 610.557 85.6201 609.412 86.5086C607.901 87.6726 605.924 88.339 603.544 88.3124H579.186C578.148 88.3124 577.2 88.8988 576.726 89.7874L571.448 98.735C570.446 100.592 571.779 102.813 573.908 102.813H592.291C604.609 102.813 612.177 102.005 617.714 99.0638C623.305 96.096 626.57 91.0757 630.676 83.4165C630.846 83.0877 631.043 82.7501 631.23 82.3858C645.257 82.3058 676.682 82.3858 684.554 82.3858H721.955C729.469 82.3858 733.325 73.4826 728.047 68.1513C719.781 59.8523 709.664 49.6429 706.372 46.3109C700.2 40.0644 695.897 35.7994 693.303 33.1338C692.355 32.1919 692.31 32.0942 691.836 31.5611C693.151 30.3704 695.468 28.62 698.456 26.4875C702.087 23.8752 706.614 20.8275 711.221 17.7442V17.7709H711.212ZM621.077 65.7522C621.077 66.8896 620.156 67.7781 619.038 67.7781H611.747C606.613 67.7781 602.453 63.6464 602.453 58.5462C602.453 53.4459 606.613 49.2875 611.747 49.2875C616.882 49.2875 621.068 53.4459 621.068 58.5462V65.7611H621.077V65.7522Z" fill="#0980FF"/>
<path d="M574.964 66.4274C573.515 76.4413 567.029 83.1053 558.46 83.3275C553.879 83.4341 522.848 83.3275 522.848 83.3275C519.019 83.3275 515.584 81.6659 513.374 80.2442C511.058 78.7426 508.875 76.7789 507.148 74.6108C502.291 78.9914 496.369 83.3275 489.079 83.3275C485.974 83.3275 474.444 83.5763 472.315 83.5763C466.867 83.5763 462.09 83.2475 455.614 81.7725C449.969 80.5552 444.637 76.308 439.744 69.1996C436.336 64.2327 433.93 58.9636 432.534 55.4094C432.007 54.0499 432.615 52.5483 433.903 51.9441L440.988 47.5902C442.383 46.9505 444.029 47.5103 444.727 48.8964C445.478 50.398 447.545 55.7382 451.364 60.5363C453.288 63.0065 455.873 64.8813 457.743 66.2674C459.889 67.849 464.21 68.7109 466.196 68.8175C467.869 68.8975 483.514 69.013 484.829 68.7642C489.579 67.9912 493.015 66.2408 495.358 63.4063C497.595 60.6607 498.74 56.8311 498.74 52.0596C498.766 38.767 498.713 18.5437 498.686 12.8304C498.686 11.3021 499.947 10.0581 501.477 10.0581L512.006 10.0848C513.544 10.0848 514.797 11.3021 514.797 12.8304C514.797 12.8304 514.77 43.7695 514.797 54.6186C514.797 56.529 514.967 58.4216 515.325 60.172C515.852 62.7488 516.997 64.9168 518.616 66.3829C520.262 67.8846 522.445 68.6843 525.039 68.7731C526.077 68.7998 549.979 68.7998 551.428 68.7731C554.667 68.7198 556.984 67.7779 558.522 65.8587C559.918 64.1083 560.705 61.4426 560.812 57.9506C560.812 55.9514 560.812 54.3432 560.785 53.428C560.758 52.4328 561.259 51.5176 562.127 50.9845L571.547 44.738C572.441 44.2138 573.506 44.2137 574.391 44.7113C575.259 45.2089 575.76 46.0975 575.76 47.1015C575.814 56.1202 575.536 62.4467 574.946 66.4362H574.964V66.4274Z" fill="#0980FF"/>
<path d="M478.809 47.3682C478.639 47.8925 478.415 48.3989 478.129 48.8876C475.803 52.8683 470.606 53.819 466.339 53.4903C466.062 53.4725 465.793 53.4459 465.516 53.4103C465.042 53.357 464.738 53.1882 464.478 52.8861C462.886 50.9579 461.294 48.9854 459.818 46.9773C459.513 46.5596 459.424 46.0087 459.648 45.5378C460.184 44.4094 461.759 44.7559 462.752 44.8003C464.398 44.8803 466.044 45.0402 467.69 45.0402C467.958 45.0402 468.432 44.9247 468.513 44.596C468.611 44.2139 467.886 43.7785 467.743 43.6808C465.704 42.2502 463.763 40.7841 462.287 38.9626C460.811 37.1411 460.426 34.7153 461.329 32.494C461.956 30.9568 463.172 29.7306 464.738 29.1708C466.518 28.5311 468.692 28.3889 470.57 28.6199C471.017 28.6733 471.375 28.8954 471.599 29.2241C472.073 29.9172 471.733 30.788 471.545 31.5166C471.25 32.6362 471.107 33.9423 471.688 34.9997C472.136 35.8171 472.941 36.3414 473.692 36.8656C475.588 38.1718 477.422 39.7801 478.433 41.8681C479.274 43.6097 479.372 45.5822 478.791 47.3771H478.809V47.3682Z" fill="#0980FF"/>
<path d="M551.723 90.5808H545.587C544.045 90.5808 542.796 91.822 542.796 93.3531V100.213C542.796 101.744 544.045 102.985 545.587 102.985H551.723C553.265 102.985 554.514 101.744 554.514 100.213V93.3531C554.514 91.822 553.265 90.5808 551.723 90.5808Z" fill="#0980FF"/>
<path d="M532.178 90.5808H526.041C524.5 90.5808 523.25 91.822 523.25 93.3531V100.213C523.25 101.744 524.5 102.985 526.041 102.985H532.178C533.719 102.985 534.969 101.744 534.969 100.213V93.3531C534.969 91.822 533.719 90.5808 532.178 90.5808Z" fill="#0980FF"/>
<path d="M657.631 178.793H629.732C622.867 178.793 615.877 181.927 611.473 185.792C607.455 189.328 605.226 193.273 603.821 196.871C602.416 200.469 601.735 202.659 601.735 206.791C601.735 210.924 602.442 214.789 603.848 218.386C605.253 221.984 606.9 224.941 609.343 227.621C611.867 230.302 614.633 232.386 617.963 233.917C621.373 235.449 625.016 236.402 628.945 236.402C635.47 236.402 640.634 235.022 645.056 231.593C646.049 230.827 647.624 231.477 647.624 232.733V235.209C647.624 235.975 648.251 236.598 649.021 236.598H657.64H657.631C658.401 236.589 659.027 235.966 659.027 235.2V180.182C659.027 179.416 658.401 178.793 657.631 178.793ZM647.025 207.29C647.025 215.688 640.187 222.492 631.746 222.492C623.306 222.492 616.477 215.697 616.468 207.299C616.468 198.901 623.306 192.097 631.746 192.097H645.467C646.327 192.097 647.025 192.792 647.025 193.647V207.29Z" fill="#0980FF"/>
<path d="M555.408 233.233C555.408 234.764 554.155 236.011 552.615 236.011H543.244C541.705 236.011 540.452 234.764 540.452 233.233V155.666C540.452 154.134 541.705 152.888 543.244 152.888H570.436C575.314 152.888 579.377 153.547 582.626 154.874C585.947 156.201 588.758 157.999 591.049 160.279C593.412 162.63 595.22 166.255 596.482 169.407C597.806 172.497 598.478 178.847 598.478 182.454C598.478 186.06 597.815 189.436 596.482 192.597C595.22 195.687 593.412 198.403 591.049 200.754C588.686 203.105 585.947 205.733 582.626 207.06C579.377 208.386 575.314 209.045 570.436 209.045H558.201C556.661 209.045 555.408 210.292 555.408 211.824V233.242V233.233ZM583.065 182.454C583.065 175.668 580.765 167.315 568.664 167.315H558.209C556.67 167.315 555.417 168.561 555.417 170.093V191.796C555.417 193.327 556.67 194.574 558.209 194.574H568.664C571.546 194.574 573.837 194.28 575.538 193.692C577.238 193.033 578.608 192.152 579.637 191.048C580.675 189.943 581.481 188.696 582.08 187.298C582.743 185.829 583.074 184.208 583.074 182.445L583.065 182.454Z" fill="#0980FF"/>
<path d="M495.072 178.339C496.316 178.339 496.943 179.835 496.057 180.717L476.062 200.576L496.97 233.918C497.552 234.844 496.88 236.046 495.788 236.046H481.736C481.253 236.046 480.805 235.797 480.555 235.396L464.354 209.713L456.8 216.944V233.268C456.8 234.8 455.547 236.046 454.007 236.046H444.985C443.446 236.046 442.193 234.8 442.193 233.268V155.47C442.193 153.938 443.446 152.691 444.985 152.691H454.007C455.547 152.691 456.8 153.938 456.8 155.47V198.118L476.849 178.74C477.109 178.49 477.458 178.348 477.825 178.348H495.072V178.339Z" fill="#0980FF"/>
<path d="M293.167 236.039C292.674 236.039 292.209 235.781 291.958 235.354L269.251 196.864L255.691 212.101V233.252C255.691 234.784 254.438 236.03 252.898 236.03H244.055C242.516 236.03 241.263 234.784 241.263 233.252V155.659C241.263 154.127 242.516 152.88 244.055 152.88H252.898C254.438 152.88 255.691 154.127 255.691 155.659V190.524L288.745 153.343C289.014 153.041 289.39 152.871 289.792 152.871H305.787C306.995 152.871 307.631 154.296 306.825 155.187L279.472 185.474L308.024 233.929C308.57 234.855 307.899 236.021 306.816 236.021H293.149L293.167 236.039Z" fill="#0980FF"/>
<path d="M371.224 207.682L354.066 179.256C353.52 178.356 352.213 178.356 351.667 179.256L334.142 208.207L317.36 179.826C317.109 179.398 316.653 179.14 316.152 179.14H303.048C301.974 179.14 301.303 180.298 301.831 181.224L332.809 234.71C333.346 235.627 334.67 235.636 335.216 234.728L352.661 205.625L369.98 234.514C370.526 235.431 371.86 235.414 372.388 234.496L403.097 181.224C403.634 180.298 402.963 179.14 401.889 179.14H389.241C388.749 179.14 388.293 179.398 388.042 179.817L371.188 207.682H371.224Z" fill="#0980FF"/>
<path fill-rule="evenodd" clip-rule="evenodd" d="M425.295 236.028C426.834 236.028 428.087 234.781 428.087 233.249L428.123 175.542C428.123 174.5 427.013 173.823 426.082 174.304L414.286 180.369C413.82 180.609 413.525 181.081 413.525 181.607V233.241C413.525 234.772 414.778 236.019 416.317 236.019H425.295V236.028Z" fill="#0980FF"/>
<path d="M427.431 167.003C427.897 166.761 428.183 166.287 428.183 165.759V155.635C428.183 154.095 426.93 152.842 425.39 152.842H416.323C414.783 152.842 413.53 154.095 413.53 155.635V171.908C413.53 172.956 414.631 173.636 415.562 173.153L427.431 167.012V167.003Z" fill="#0980FF"/>
<path d="M733.424 180.351L708.13 228.405C708.103 228.512 708.049 228.654 707.959 228.797L694.068 254.774C693.818 255.219 693.343 255.522 692.842 255.522H679.425C678.36 255.522 677.689 254.436 678.163 253.492L691.383 228.378L692.475 226.348L666.035 180.405C665.507 179.461 666.179 178.321 667.235 178.321L681.233 178.241C681.735 178.241 682.209 178.517 682.459 178.962L700.405 211.413L701.408 209.463L702.723 207.014V206.987L717.366 179.042C717.617 178.597 718.091 178.294 718.628 178.294L732.179 178.321C733.245 178.321 733.916 179.434 733.406 180.351H733.424Z" fill="#0980FF"/>
<path d="M191.337 10.1391L154.816 79.813C153.743 81.8636 151.932 83.4652 149.725 84.3297L114.251 98.1881L74.1683 113.842L72.4644 114.513C70.4385 115.303 68.9492 117.012 68.493 119.069C68.1576 120.577 68.4192 122.139 69.1773 123.459C69.4523 123.928 69.7878 124.377 70.1835 124.772L101.948 155.625C102.873 156.55 102.196 158.085 100.854 158.085H7.22548C1.8722 158.085 -1.61615 152.69 0.758612 148.093L75.396 4.10123C76.6169 1.74906 79.1191 0.268066 81.8628 0.268066H184.83C190.116 0.268066 193.618 5.54202 191.35 10.1391H191.337Z" fill="#0980FF"/>
<path d="M197.112 108.052L122.917 252.044C121.73 254.47 119.194 256.004 116.397 256.004H14.2821C8.92884 256.004 5.44049 250.61 7.81525 246.013L44.0874 176.634C45.7511 173.417 49.1791 171.38 52.929 171.38H121.287C123.944 171.38 126.332 169.852 127.372 166.89C128.412 164.551 127.895 161.851 126.057 160.021L88.5169 124.437C87.7723 123.693 88.0474 122.473 89.0402 122.085L114.935 111.765C139.185 102.798 164.717 98.1543 190.591 98.1543C195.884 98.1543 199.379 103.442 197.125 108.025L197.105 108.045H197.112V108.052Z" fill="#0980FF"/>
</svg>
