<?xml version="1.0" encoding="UTF-8"?>
<svg width="187" height="242" viewBox="0 0 187 242" fill="none" xmlns="http://www.w3.org/2000/svg">
<g clip-path="url(#clip0_1569_44)">
<path d="M180.87 9.34066L146.346 75.2707C145.33 77.2124 143.619 78.7271 141.534 79.5436L108.002 92.6586L70.1128 107.472L68.5015 108.105C66.5879 108.853 65.1791 110.47 64.7459 112.418C64.428 113.846 64.6774 115.323 65.3942 116.573C65.6529 117.015 65.9708 117.442 66.3448 117.816L96.3707 147.013C97.2465 147.889 96.6045 149.341 95.336 149.341H6.83203C1.77057 149.341 -1.52687 144.236 0.720251 139.885L71.2722 3.6278C72.4254 1.4025 74.7909 0 77.384 0H174.718C179.714 0 183.023 4.98979 180.882 9.34066H180.87Z" fill="#0980FF"/>
<path d="M186.329 101.996L116.195 238.254C115.073 240.551 112.676 242 110.03 242H13.501C8.43951 242 5.14208 236.895 7.3892 232.544L41.6756 166.892C43.2496 163.847 46.4878 161.92 50.0345 161.92H114.652C117.164 161.92 119.421 160.474 120.403 157.672C121.384 155.46 120.898 152.904 119.159 151.171L83.6727 117.499C82.9683 116.794 83.2301 115.641 84.1683 115.273L108.647 105.509C131.57 97.0251 155.705 92.6306 180.165 92.6306C185.167 92.6306 188.471 97.6329 186.342 101.971L186.323 101.99L186.329 101.996Z" fill="#0980FF"/>
</g>
<defs>
<clipPath id="clip0_1569_44">
<rect width="187" height="242" fill="white"/>
</clipPath>
</defs>
</svg> 