<svg width="390" height="395" viewBox="0 0 390 395" fill="none" xmlns="http://www.w3.org/2000/svg">
<path d="M0 16C0 7.16345 7.16344 0 16 0H374C382.837 0 390 7.16344 390 16V371H0V16Z" fill="#F6FBFF"/>
<rect x="147" y="12" width="96" height="3" rx="1.5" fill="#E0E0E0"/>
<path d="M164.954 31.9268L161.527 38.4647C161.426 38.6562 161.256 38.8078 161.048 38.8887L153.798 41.7224C153.609 41.7972 153.469 41.9569 153.425 42.1495C153.394 42.2908 153.418 42.4373 153.489 42.5612C153.514 42.6052 153.545 42.6472 153.584 42.6841L156.564 45.5792C156.651 45.6663 156.586 45.8107 156.461 45.8107H147.678C147.175 45.8107 146.847 45.3037 147.072 44.8726L154.075 31.3595C154.19 31.1383 154.425 31 154.681 31H164.342C164.838 31 165.166 31.4957 164.954 31.9268Z" fill="#0980FF"/>
<path d="M165.496 41.1151L158.535 54.6283C158.423 54.8566 158.185 55 157.923 55H148.34C147.838 55 147.51 54.4931 147.734 54.0619L151.137 47.5517C151.293 47.2495 151.616 47.058 151.966 47.058H158.38C158.629 47.058 158.853 46.9147 158.951 46.6371C159.048 46.4169 159 46.165 158.828 45.9919L155.306 42.6523C155.236 42.5817 155.263 42.469 155.355 42.4311L157.786 41.4623C160.061 40.6215 162.458 40.1852 164.884 40.1852C165.381 40.1852 165.708 40.6819 165.497 41.1121L165.495 41.1141L165.496 41.1151Z" fill="#0980FF"/>
<path d="M232.098 39.1769H228.094C227.11 39.1769 226.106 39.6285 225.474 40.1852C224.897 40.6946 224.579 41.2638 224.376 41.7827C224.175 42.3005 224.077 42.6166 224.077 43.2111C224.077 43.8055 224.178 44.3622 224.38 44.881C224.582 45.3999 224.817 45.8253 225.169 46.2118C225.531 46.5983 225.927 46.8986 226.406 47.1192C226.896 47.3408 227.418 47.4784 227.981 47.4784C228.917 47.4784 229.659 47.2799 230.293 46.7852C230.435 46.6749 230.661 46.7695 230.661 46.9491V47.3062C230.661 47.4175 230.751 47.5057 230.862 47.5057H232.098C232.208 47.5057 232.298 47.4164 232.298 47.3062V39.3796C232.298 39.2683 232.207 39.179 232.098 39.179V39.1769ZM230.575 43.2846C230.575 44.4935 229.594 45.4745 228.383 45.4745C227.172 45.4745 226.191 44.4935 226.191 43.2846C226.191 42.0757 227.172 41.0937 228.383 41.0937H230.351C230.475 41.0937 230.575 41.1945 230.575 41.3184V43.2846Z" fill="#0980FF"/>
<path d="M217.431 47.0215C217.431 47.2431 217.252 47.4227 217.03 47.4227H215.685C215.463 47.4227 215.283 47.2442 215.283 47.0215V35.8464C215.283 35.6248 215.463 35.4452 215.685 35.4452H219.586C220.285 35.4452 220.869 35.5408 221.335 35.7309C221.812 35.921 222.214 36.1804 222.544 36.5092C222.883 36.8474 223.142 37.3693 223.324 37.8241C223.515 38.2684 223.61 39.1843 223.61 39.7041C223.61 40.224 223.515 40.7103 223.324 41.1662C223.145 41.6104 222.885 42.0032 222.544 42.3414C222.216 42.6691 221.813 43.0588 221.335 43.2499C220.87 43.44 220.285 43.5356 219.586 43.5356H217.831C217.609 43.5356 217.429 43.7142 217.429 43.9368V47.0226H217.43L217.431 47.0215ZM221.398 39.7052C221.398 38.7284 221.068 37.5237 219.332 37.5237H217.831C217.609 37.5237 217.429 37.7023 217.429 37.925V41.0527C217.429 41.2743 217.609 41.4539 217.831 41.4539H219.332C219.745 41.4539 220.074 41.4119 220.318 41.3268C220.562 41.2313 220.757 41.1042 220.905 40.9456C221.054 40.787 221.17 40.6074 221.256 40.4057C221.351 40.1936 221.398 39.9615 221.398 39.7073V39.7052Z" fill="#0980FF"/>
<path d="M208.256 39.1128C208.434 39.1128 208.524 39.3292 208.398 39.4542L205.529 42.3152L208.529 47.1192C208.613 47.2526 208.517 47.4248 208.359 47.4248H206.343C206.274 47.4248 206.209 47.3902 206.173 47.3303L203.849 43.6301L202.765 44.672V47.0236C202.765 47.2452 202.587 47.4248 202.365 47.4248H201.071C200.849 47.4248 200.669 47.2463 200.669 47.0247V35.816C200.669 35.5944 200.849 35.4148 201.071 35.4148H202.365C202.587 35.4148 202.766 35.5933 202.766 35.8149V41.9591L205.644 39.1674C205.68 39.1317 205.732 39.1118 205.783 39.1118H208.258H208.256V39.1128Z" fill="#0980FF"/>
<path d="M179.805 47.4259C179.734 47.4259 179.669 47.3881 179.633 47.3261L176.376 41.7816L174.43 43.9778V47.0247C174.43 47.2463 174.25 47.4259 174.029 47.4259H172.76C172.538 47.4259 172.358 47.2463 172.358 47.0247V35.8464C172.358 35.6248 172.538 35.4452 172.76 35.4452H174.029C174.25 35.4452 174.43 35.6248 174.43 35.8464V40.87L179.173 35.5135C179.211 35.4704 179.267 35.4463 179.324 35.4463H181.62C181.793 35.4463 181.885 35.6511 181.769 35.7803L177.846 40.1442L181.942 47.1245C182.021 47.2578 181.925 47.4259 181.769 47.4259H179.808V47.4238L179.805 47.4259Z" fill="#0980FF"/>
<path d="M190.573 43.3403L188.111 39.2441C188.033 39.1149 187.845 39.1149 187.768 39.2441L185.254 43.4159L182.846 39.3271C182.811 39.2662 182.744 39.2284 182.674 39.2284H180.793C180.639 39.2284 180.542 39.3954 180.62 39.5287L185.065 47.2347C185.141 47.3671 185.333 47.3692 185.41 47.2368L187.913 43.0441L190.399 47.2064C190.477 47.3377 190.669 47.3366 190.744 47.2032L195.151 39.5277C195.229 39.3943 195.131 39.2284 194.978 39.2284H193.163C193.093 39.2284 193.028 39.2651 192.992 39.326L190.574 43.3403H190.573Z" fill="#0980FF"/>
<path fill-rule="evenodd" clip-rule="evenodd" d="M198.243 47.4248C198.465 47.4248 198.645 47.2463 198.645 47.0247L198.65 38.7116C198.65 38.5614 198.491 38.4648 198.358 38.5341L196.665 39.4069C196.599 39.4405 196.556 39.5098 196.556 39.5844V47.0247C196.556 47.2463 196.736 47.4259 196.957 47.4259H198.243V47.4248Z" fill="#0980FF"/>
<path d="M198.548 37.446C198.614 37.4114 198.656 37.3431 198.656 37.2685V35.8181C198.656 35.5965 198.476 35.4169 198.255 35.4169H196.954C196.732 35.4169 196.553 35.5954 196.553 35.817V38.1487C196.553 38.2989 196.711 38.3955 196.845 38.3262L198.547 37.446H198.548Z" fill="#0980FF"/>
<path d="M242.972 39.4027L239.343 46.3262C239.339 46.342 239.332 46.362 239.319 46.3819L237.327 50.1241C237.291 50.1882 237.223 50.2323 237.15 50.2323H235.226C235.073 50.2323 234.977 50.0758 235.046 49.9403L236.943 46.322L237.1 46.0301L233.307 39.4111C233.23 39.2746 233.327 39.1107 233.48 39.1107L235.488 39.0992C235.561 39.0992 235.629 39.1391 235.665 39.2032L238.24 43.8791L240.674 39.2147C240.71 39.1506 240.778 39.1065 240.854 39.1065L242.799 39.1107C242.951 39.1107 243.048 39.2704 242.975 39.4027H242.972Z" fill="#0980FF"/>
<path d="M107.42 87.34H101.86L100.94 90H98.0005L103.02 76.02H106.28L111.3 90H108.34L107.42 87.34ZM106.66 85.1L104.64 79.26L102.62 85.1H106.66ZM123.637 78.92V90H120.817V88.6C120.457 89.08 119.984 89.46 119.397 89.74C118.824 90.0067 118.197 90.14 117.517 90.14C116.65 90.14 115.884 89.96 115.217 89.6C114.55 89.2267 114.024 88.6867 113.637 87.98C113.264 87.26 113.077 86.4067 113.077 85.42V78.92H115.877V85.02C115.877 85.9 116.097 86.58 116.537 87.06C116.977 87.5267 117.577 87.76 118.337 87.76C119.11 87.76 119.717 87.5267 120.157 87.06C120.597 86.58 120.817 85.9 120.817 85.02V78.92H123.637ZM129.66 81.22V86.58C129.66 86.9533 129.746 87.2267 129.92 87.4C130.106 87.56 130.413 87.64 130.84 87.64H132.14V90H130.38C128.02 90 126.84 88.8533 126.84 86.56V81.22H125.52V78.92H126.84V76.18H129.66V78.92H132.14V81.22H129.66ZM140.393 78.76C141.233 78.76 141.98 78.9467 142.633 79.32C143.287 79.68 143.793 80.22 144.153 80.94C144.527 81.6467 144.713 82.5 144.713 83.5V90H141.913V83.88C141.913 83 141.693 82.3267 141.253 81.86C140.813 81.38 140.213 81.14 139.453 81.14C138.68 81.14 138.067 81.38 137.613 81.86C137.173 82.3267 136.953 83 136.953 83.88V90H134.153V75.2H136.953V80.3C137.313 79.82 137.793 79.4467 138.393 79.18C138.993 78.9 139.66 78.76 140.393 78.76ZM152.296 90.18C151.229 90.18 150.269 89.9467 149.416 89.48C148.563 89 147.889 88.3267 147.396 87.46C146.916 86.5933 146.676 85.5933 146.676 84.46C146.676 83.3267 146.923 82.3267 147.416 81.46C147.923 80.5933 148.609 79.9267 149.476 79.46C150.343 78.98 151.309 78.74 152.376 78.74C153.443 78.74 154.409 78.98 155.276 79.46C156.143 79.9267 156.823 80.5933 157.316 81.46C157.823 82.3267 158.076 83.3267 158.076 84.46C158.076 85.5933 157.816 86.5933 157.296 87.46C156.789 88.3267 156.096 89 155.216 89.48C154.349 89.9467 153.376 90.18 152.296 90.18ZM152.296 87.74C152.803 87.74 153.276 87.62 153.716 87.38C154.169 87.1267 154.529 86.7533 154.796 86.26C155.063 85.7667 155.196 85.1667 155.196 84.46C155.196 83.4067 154.916 82.6 154.356 82.04C153.809 81.4667 153.136 81.18 152.336 81.18C151.536 81.18 150.863 81.4667 150.316 82.04C149.783 82.6 149.516 83.4067 149.516 84.46C149.516 85.5133 149.776 86.3267 150.296 86.9C150.829 87.46 151.496 87.74 152.296 87.74ZM162.93 80.64C163.29 80.0533 163.757 79.5933 164.33 79.26C164.917 78.9267 165.583 78.76 166.33 78.76V81.7H165.59C164.71 81.7 164.043 81.9067 163.59 82.32C163.15 82.7333 162.93 83.4533 162.93 84.48V90H160.13V78.92H162.93V80.64ZM169.636 77.6C169.143 77.6 168.729 77.4467 168.396 77.14C168.076 76.82 167.916 76.4267 167.916 75.96C167.916 75.4933 168.076 75.1067 168.396 74.8C168.729 74.48 169.143 74.32 169.636 74.32C170.129 74.32 170.536 74.48 170.856 74.8C171.189 75.1067 171.356 75.4933 171.356 75.96C171.356 76.4267 171.189 76.82 170.856 77.14C170.536 77.4467 170.129 77.6 169.636 77.6ZM171.016 78.92V90H168.216V78.92H171.016ZM178.022 90.18C177.116 90.18 176.302 90.02 175.582 89.7C174.862 89.3667 174.289 88.92 173.862 88.36C173.449 87.8 173.222 87.18 173.182 86.5H176.002C176.056 86.9267 176.262 87.28 176.622 87.56C176.996 87.84 177.456 87.98 178.002 87.98C178.536 87.98 178.949 87.8733 179.242 87.66C179.549 87.4467 179.702 87.1733 179.702 86.84C179.702 86.48 179.516 86.2133 179.142 86.04C178.782 85.8533 178.202 85.6533 177.402 85.44C176.576 85.24 175.896 85.0333 175.362 84.82C174.842 84.6067 174.389 84.28 174.002 83.84C173.629 83.4 173.442 82.8067 173.442 82.06C173.442 81.4467 173.616 80.8867 173.962 80.38C174.322 79.8733 174.829 79.4733 175.482 79.18C176.149 78.8867 176.929 78.74 177.822 78.74C179.142 78.74 180.196 79.0733 180.982 79.74C181.769 80.3933 182.202 81.28 182.282 82.4H179.602C179.562 81.96 179.376 81.6133 179.042 81.36C178.722 81.0933 178.289 80.96 177.742 80.96C177.236 80.96 176.842 81.0533 176.562 81.24C176.296 81.4267 176.162 81.6867 176.162 82.02C176.162 82.3933 176.349 82.68 176.722 82.88C177.096 83.0667 177.676 83.26 178.462 83.46C179.262 83.66 179.922 83.8667 180.442 84.08C180.962 84.2933 181.409 84.6267 181.782 85.08C182.169 85.52 182.369 86.1067 182.382 86.84C182.382 87.48 182.202 88.0533 181.842 88.56C181.496 89.0667 180.989 89.4667 180.322 89.76C179.669 90.04 178.902 90.18 178.022 90.18ZM194.981 84.22C194.981 84.62 194.954 84.98 194.901 85.3H186.801C186.867 86.1 187.147 86.7267 187.641 87.18C188.134 87.6333 188.741 87.86 189.461 87.86C190.501 87.86 191.241 87.4133 191.681 86.52H194.701C194.381 87.5867 193.767 88.4667 192.861 89.16C191.954 89.84 190.841 90.18 189.521 90.18C188.454 90.18 187.494 89.9467 186.641 89.48C185.801 89 185.141 88.3267 184.661 87.46C184.194 86.5933 183.961 85.5933 183.961 84.46C183.961 83.3133 184.194 82.3067 184.661 81.44C185.127 80.5733 185.781 79.9067 186.621 79.44C187.461 78.9733 188.427 78.74 189.521 78.74C190.574 78.74 191.514 78.9667 192.341 79.42C193.181 79.8733 193.827 80.52 194.281 81.36C194.747 82.1867 194.981 83.14 194.981 84.22ZM192.081 83.42C192.067 82.7 191.807 82.1267 191.301 81.7C190.794 81.26 190.174 81.04 189.441 81.04C188.747 81.04 188.161 81.2533 187.681 81.68C187.214 82.0933 186.927 82.6733 186.821 83.42H192.081ZM211.97 80.36C211.97 81.1067 211.79 81.8067 211.43 82.46C211.083 83.1133 210.53 83.64 209.77 84.04C209.023 84.44 208.077 84.64 206.93 84.64H204.59V90H201.79V76.04H206.93C208.01 76.04 208.93 76.2267 209.69 76.6C210.45 76.9733 211.017 77.4867 211.39 78.14C211.777 78.7933 211.97 79.5333 211.97 80.36ZM206.81 82.38C207.583 82.38 208.157 82.2067 208.53 81.86C208.903 81.5 209.09 81 209.09 80.36C209.09 79 208.33 78.32 206.81 78.32H204.59V82.38H206.81ZM213.238 84.42C213.238 83.3 213.458 82.3067 213.898 81.44C214.351 80.5733 214.958 79.9067 215.718 79.44C216.491 78.9733 217.351 78.74 218.298 78.74C219.125 78.74 219.845 78.9067 220.458 79.24C221.085 79.5733 221.585 79.9933 221.958 80.5V78.92H224.778V90H221.958V88.38C221.598 88.9 221.098 89.3333 220.458 89.68C219.831 90.0133 219.105 90.18 218.278 90.18C217.345 90.18 216.491 89.94 215.718 89.46C214.958 88.98 214.351 88.3067 213.898 87.44C213.458 86.56 213.238 85.5533 213.238 84.42ZM221.958 84.46C221.958 83.78 221.825 83.2 221.558 82.72C221.291 82.2267 220.931 81.8533 220.478 81.6C220.025 81.3333 219.538 81.2 219.018 81.2C218.498 81.2 218.018 81.3267 217.578 81.58C217.138 81.8333 216.778 82.2067 216.498 82.7C216.231 83.18 216.098 83.7533 216.098 84.42C216.098 85.0867 216.231 85.6733 216.498 86.18C216.778 86.6733 217.138 87.0533 217.578 87.32C218.031 87.5867 218.511 87.72 219.018 87.72C219.538 87.72 220.025 87.5933 220.478 87.34C220.931 87.0733 221.291 86.7 221.558 86.22C221.825 85.7267 221.958 85.14 221.958 84.46ZM238.113 78.92L231.253 95.24H228.273L230.673 89.72L226.233 78.92H229.373L232.233 86.66L235.133 78.92H238.113ZM253.382 78.76C254.742 78.76 255.836 79.18 256.662 80.02C257.502 80.8467 257.922 82.0067 257.922 83.5V90H255.122V83.88C255.122 83.0133 254.902 82.3533 254.462 81.9C254.022 81.4333 253.422 81.2 252.662 81.2C251.902 81.2 251.296 81.4333 250.842 81.9C250.402 82.3533 250.182 83.0133 250.182 83.88V90H247.382V83.88C247.382 83.0133 247.162 82.3533 246.722 81.9C246.282 81.4333 245.682 81.2 244.922 81.2C244.149 81.2 243.536 81.4333 243.082 81.9C242.642 82.3533 242.422 83.0133 242.422 83.88V90H239.622V78.92H242.422V80.26C242.782 79.7933 243.242 79.4267 243.802 79.16C244.376 78.8933 245.002 78.76 245.682 78.76C246.549 78.76 247.322 78.9467 248.002 79.32C248.682 79.68 249.209 80.2 249.582 80.88C249.942 80.24 250.462 79.7267 251.142 79.34C251.836 78.9533 252.582 78.76 253.382 78.76ZM270.879 84.22C270.879 84.62 270.853 84.98 270.799 85.3H262.699C262.766 86.1 263.046 86.7267 263.539 87.18C264.033 87.6333 264.639 87.86 265.359 87.86C266.399 87.86 267.139 87.4133 267.579 86.52H270.599C270.279 87.5867 269.666 88.4667 268.759 89.16C267.853 89.84 266.739 90.18 265.419 90.18C264.353 90.18 263.393 89.9467 262.539 89.48C261.699 89 261.039 88.3267 260.559 87.46C260.093 86.5933 259.859 85.5933 259.859 84.46C259.859 83.3133 260.093 82.3067 260.559 81.44C261.026 80.5733 261.679 79.9067 262.519 79.44C263.359 78.9733 264.326 78.74 265.419 78.74C266.473 78.74 267.413 78.9667 268.239 79.42C269.079 79.8733 269.726 80.52 270.179 81.36C270.646 82.1867 270.879 83.14 270.879 84.22ZM267.979 83.42C267.966 82.7 267.706 82.1267 267.199 81.7C266.693 81.26 266.073 81.04 265.339 81.04C264.646 81.04 264.059 81.2533 263.579 81.68C263.113 82.0933 262.826 82.6733 262.719 83.42H267.979ZM279.063 78.76C280.383 78.76 281.45 79.18 282.263 80.02C283.076 80.8467 283.483 82.0067 283.483 83.5V90H280.683V83.88C280.683 83 280.463 82.3267 280.023 81.86C279.583 81.38 278.983 81.14 278.223 81.14C277.45 81.14 276.836 81.38 276.383 81.86C275.943 82.3267 275.723 83 275.723 83.88V90H272.923V78.92H275.723V80.3C276.096 79.82 276.57 79.4467 277.143 79.18C277.73 78.9 278.37 78.76 279.063 78.76ZM289.406 81.22V86.58C289.406 86.9533 289.492 87.2267 289.666 87.4C289.852 87.56 290.159 87.64 290.586 87.64H291.886V90H290.126C287.766 90 286.586 88.8533 286.586 86.56V81.22H285.266V78.92H286.586V76.18H289.406V78.92H291.886V81.22H289.406Z" fill="#333333"/>
<rect x="16.5" y="111.5" width="357" height="171" rx="3.5" fill="white"/>
<rect x="16.5" y="111.5" width="357" height="171" rx="3.5" stroke="#F2F2F2"/>
<rect x="32" y="129" width="44" height="44" rx="4" fill="#F2DDD9"/>
<path d="M49.964 153.404H46.628L46.076 155H44.312L47.324 146.612H49.28L52.292 155H50.516L49.964 153.404ZM49.508 152.06L48.296 148.556L47.084 152.06H49.508ZM62.5498 146.624V155H60.8698V149.552L58.6258 155H57.3538L55.0978 149.552V155H53.4178V146.624H55.3258L57.9898 152.852L60.6538 146.624H62.5498Z" fill="#843A2C"/>
<path d="M93.928 143.296H90.436L89.836 145H88.408L91.396 136.648H92.98L95.968 145H94.528L93.928 143.296ZM93.544 142.18L92.188 138.304L90.82 142.18H93.544ZM100.039 139.504H98.8152V145H97.4352V139.504H96.6552V138.388H97.4352V137.92C97.4352 137.16 97.6352 136.608 98.0352 136.264C98.4432 135.912 99.0792 135.736 99.9432 135.736V136.876C99.5272 136.876 99.2352 136.956 99.0672 137.116C98.8992 137.268 98.8152 137.536 98.8152 137.92V138.388H100.039V139.504ZM102.464 143.884H105.464V145H100.88V143.884L103.892 139.504H100.88V138.388H105.464V139.504L102.464 143.884ZM106.444 141.664C106.444 141 106.58 140.412 106.852 139.9C107.132 139.388 107.508 138.992 107.98 138.712C108.46 138.424 108.988 138.28 109.564 138.28C110.084 138.28 110.536 138.384 110.92 138.592C111.312 138.792 111.624 139.044 111.856 139.348V138.388H113.236V145H111.856V144.016C111.624 144.328 111.308 144.588 110.908 144.796C110.508 145.004 110.052 145.108 109.54 145.108C108.972 145.108 108.452 144.964 107.98 144.676C107.508 144.38 107.132 143.972 106.852 143.452C106.58 142.924 106.444 142.328 106.444 141.664ZM111.856 141.688C111.856 141.232 111.76 140.836 111.568 140.5C111.384 140.164 111.14 139.908 110.836 139.732C110.532 139.556 110.204 139.468 109.852 139.468C109.5 139.468 109.172 139.556 108.868 139.732C108.564 139.9 108.316 140.152 108.124 140.488C107.94 140.816 107.848 141.208 107.848 141.664C107.848 142.12 107.94 142.52 108.124 142.864C108.316 143.208 108.564 143.472 108.868 143.656C109.18 143.832 109.508 143.92 109.852 143.92C110.204 143.92 110.532 143.832 110.836 143.656C111.14 143.48 111.384 143.224 111.568 142.888C111.76 142.544 111.856 142.144 111.856 141.688ZM116.401 136.12V145H115.033V136.12H116.401ZM130.098 136.66V145H128.73V139.288L126.186 145H125.238L122.682 139.288V145H121.314V136.66H122.79L125.718 143.2L128.634 136.66H130.098ZM137.884 138.388V145H136.516V144.22C136.3 144.492 136.016 144.708 135.664 144.868C135.32 145.02 134.952 145.096 134.56 145.096C134.04 145.096 133.572 144.988 133.156 144.772C132.748 144.556 132.424 144.236 132.184 143.812C131.952 143.388 131.836 142.876 131.836 142.276V138.388H133.192V142.072C133.192 142.664 133.34 143.12 133.636 143.44C133.932 143.752 134.336 143.908 134.848 143.908C135.36 143.908 135.764 143.752 136.06 143.44C136.364 143.12 136.516 142.664 136.516 142.072V138.388H137.884ZM143.109 138.28C143.613 138.28 144.061 138.388 144.453 138.604C144.853 138.82 145.165 139.14 145.389 139.564C145.621 139.988 145.737 140.5 145.737 141.1V145H144.381V141.304C144.381 140.712 144.233 140.26 143.937 139.948C143.641 139.628 143.237 139.468 142.725 139.468C142.213 139.468 141.805 139.628 141.501 139.948C141.205 140.26 141.057 140.712 141.057 141.304V145H139.689V136.12H141.057V139.156C141.289 138.876 141.581 138.66 141.933 138.508C142.293 138.356 142.685 138.28 143.109 138.28ZM147.026 141.664C147.026 141 147.162 140.412 147.434 139.9C147.714 139.388 148.09 138.992 148.562 138.712C149.042 138.424 149.57 138.28 150.146 138.28C150.666 138.28 151.118 138.384 151.502 138.592C151.894 138.792 152.206 139.044 152.438 139.348V138.388H153.818V145H152.438V144.016C152.206 144.328 151.89 144.588 151.49 144.796C151.09 145.004 150.634 145.108 150.122 145.108C149.554 145.108 149.034 144.964 148.562 144.676C148.09 144.38 147.714 143.972 147.434 143.452C147.162 142.924 147.026 142.328 147.026 141.664ZM152.438 141.688C152.438 141.232 152.342 140.836 152.15 140.5C151.966 140.164 151.722 139.908 151.418 139.732C151.114 139.556 150.786 139.468 150.434 139.468C150.082 139.468 149.754 139.556 149.45 139.732C149.146 139.9 148.898 140.152 148.706 140.488C148.522 140.816 148.43 141.208 148.43 141.664C148.43 142.12 148.522 142.52 148.706 142.864C148.898 143.208 149.146 143.472 149.45 143.656C149.762 143.832 150.09 143.92 150.434 143.92C150.786 143.92 151.114 143.832 151.418 143.656C151.722 143.48 151.966 143.224 152.15 142.888C152.342 142.544 152.438 142.144 152.438 141.688ZM163.619 138.28C164.139 138.28 164.603 138.388 165.011 138.604C165.427 138.82 165.751 139.14 165.983 139.564C166.223 139.988 166.343 140.5 166.343 141.1V145H164.987V141.304C164.987 140.712 164.839 140.26 164.543 139.948C164.247 139.628 163.843 139.468 163.331 139.468C162.819 139.468 162.411 139.628 162.107 139.948C161.811 140.26 161.663 140.712 161.663 141.304V145H160.307V141.304C160.307 140.712 160.159 140.26 159.863 139.948C159.567 139.628 159.163 139.468 158.651 139.468C158.139 139.468 157.731 139.628 157.427 139.948C157.131 140.26 156.983 140.712 156.983 141.304V145H155.615V138.388H156.983V139.144C157.207 138.872 157.491 138.66 157.835 138.508C158.179 138.356 158.547 138.28 158.939 138.28C159.467 138.28 159.939 138.392 160.355 138.616C160.771 138.84 161.091 139.164 161.315 139.588C161.515 139.188 161.827 138.872 162.251 138.64C162.675 138.4 163.131 138.28 163.619 138.28ZM176.088 138.28C176.608 138.28 177.072 138.388 177.48 138.604C177.896 138.82 178.22 139.14 178.452 139.564C178.692 139.988 178.812 140.5 178.812 141.1V145H177.456V141.304C177.456 140.712 177.308 140.26 177.012 139.948C176.716 139.628 176.312 139.468 175.8 139.468C175.288 139.468 174.88 139.628 174.576 139.948C174.28 140.26 174.132 140.712 174.132 141.304V145H172.776V141.304C172.776 140.712 172.628 140.26 172.332 139.948C172.036 139.628 171.632 139.468 171.12 139.468C170.608 139.468 170.2 139.628 169.896 139.948C169.6 140.26 169.452 140.712 169.452 141.304V145H168.084V138.388H169.452V139.144C169.676 138.872 169.96 138.66 170.304 138.508C170.648 138.356 171.016 138.28 171.408 138.28C171.936 138.28 172.408 138.392 172.824 138.616C173.24 138.84 173.56 139.164 173.784 139.588C173.984 139.188 174.296 138.872 174.72 138.64C175.144 138.4 175.6 138.28 176.088 138.28ZM186.612 141.532C186.612 141.78 186.596 142.004 186.564 142.204H181.512C181.552 142.732 181.748 143.156 182.1 143.476C182.452 143.796 182.884 143.956 183.396 143.956C184.132 143.956 184.652 143.648 184.956 143.032H186.432C186.232 143.64 185.868 144.14 185.34 144.532C184.82 144.916 184.172 145.108 183.396 145.108C182.764 145.108 182.196 144.968 181.692 144.688C181.196 144.4 180.804 144 180.516 143.488C180.236 142.968 180.096 142.368 180.096 141.688C180.096 141.008 180.232 140.412 180.504 139.9C180.784 139.38 181.172 138.98 181.668 138.7C182.172 138.42 182.748 138.28 183.396 138.28C184.02 138.28 184.576 138.416 185.064 138.688C185.552 138.96 185.932 139.344 186.204 139.84C186.476 140.328 186.612 140.892 186.612 141.532ZM185.184 141.1C185.176 140.596 184.996 140.192 184.644 139.888C184.292 139.584 183.856 139.432 183.336 139.432C182.864 139.432 182.46 139.584 182.124 139.888C181.788 140.184 181.588 140.588 181.524 141.1H185.184ZM187.503 141.664C187.503 141 187.639 140.412 187.911 139.9C188.191 139.388 188.567 138.992 189.039 138.712C189.519 138.424 190.051 138.28 190.635 138.28C191.067 138.28 191.491 138.376 191.907 138.568C192.331 138.752 192.667 139 192.915 139.312V136.12H194.295V145H192.915V144.004C192.691 144.324 192.379 144.588 191.979 144.796C191.587 145.004 191.135 145.108 190.623 145.108C190.047 145.108 189.519 144.964 189.039 144.676C188.567 144.38 188.191 143.972 187.911 143.452C187.639 142.924 187.503 142.328 187.503 141.664ZM192.915 141.688C192.915 141.232 192.819 140.836 192.627 140.5C192.443 140.164 192.199 139.908 191.895 139.732C191.591 139.556 191.263 139.468 190.911 139.468C190.559 139.468 190.231 139.556 189.927 139.732C189.623 139.9 189.375 140.152 189.183 140.488C188.999 140.816 188.907 141.208 188.907 141.664C188.907 142.12 188.999 142.52 189.183 142.864C189.375 143.208 189.623 143.472 189.927 143.656C190.239 143.832 190.567 143.92 190.911 143.92C191.263 143.92 191.591 143.832 191.895 143.656C192.199 143.48 192.443 143.224 192.627 142.888C192.819 142.544 192.915 142.144 192.915 141.688Z" fill="#333333"/>
<path d="M94.072 159.636V160.524H91.792V168H90.7V160.524H88.408V159.636H94.072ZM98.2842 168.108C97.6682 168.108 97.1082 167.968 96.6042 167.688C96.1082 167.408 95.7162 167.012 95.4282 166.5C95.1482 165.98 95.0082 165.38 95.0082 164.7C95.0082 164.028 95.1522 163.436 95.4402 162.924C95.7362 162.404 96.1362 162.008 96.6402 161.736C97.1442 161.456 97.7082 161.316 98.3322 161.316C98.9562 161.316 99.5202 161.456 100.024 161.736C100.528 162.008 100.924 162.4 101.212 162.912C101.508 163.424 101.656 164.02 101.656 164.7C101.656 165.38 101.504 165.98 101.2 166.5C100.904 167.012 100.5 167.408 99.9882 167.688C99.4762 167.968 98.9082 168.108 98.2842 168.108ZM98.2842 167.148C98.6762 167.148 99.0442 167.056 99.3882 166.872C99.7322 166.688 100.008 166.412 100.216 166.044C100.432 165.676 100.54 165.228 100.54 164.7C100.54 164.172 100.436 163.724 100.228 163.356C100.02 162.988 99.7482 162.716 99.4122 162.54C99.0762 162.356 98.7122 162.264 98.3202 162.264C97.9202 162.264 97.5522 162.356 97.2162 162.54C96.8882 162.716 96.6242 162.988 96.4242 163.356C96.2242 163.724 96.1242 164.172 96.1242 164.7C96.1242 165.236 96.2202 165.688 96.4122 166.056C96.6122 166.424 96.8762 166.7 97.2042 166.884C97.5322 167.06 97.8922 167.148 98.2842 167.148ZM112.531 164.076H109.975V166.668H108.955V164.076H106.411V163.152H108.955V160.548H109.975V163.152H112.531V164.076ZM115.707 165.672C115.787 166.128 115.971 166.48 116.259 166.728C116.555 166.976 116.951 167.1 117.447 167.1C118.111 167.1 118.599 166.84 118.911 166.32C119.231 165.8 119.383 164.924 119.367 163.692C119.199 164.052 118.919 164.336 118.527 164.544C118.135 164.744 117.699 164.844 117.219 164.844C116.683 164.844 116.203 164.736 115.779 164.52C115.363 164.296 115.035 163.972 114.795 163.548C114.555 163.124 114.435 162.612 114.435 162.012C114.435 161.156 114.683 160.468 115.179 159.948C115.675 159.42 116.379 159.156 117.291 159.156C118.411 159.156 119.195 159.52 119.643 160.248C120.099 160.976 120.327 162.06 120.327 163.5C120.327 164.508 120.235 165.34 120.051 165.996C119.875 166.652 119.571 167.152 119.139 167.496C118.715 167.84 118.131 168.012 117.387 168.012C116.571 168.012 115.935 167.792 115.479 167.352C115.023 166.912 114.763 166.352 114.699 165.672H115.707ZM117.399 163.92C117.935 163.92 118.375 163.756 118.719 163.428C119.063 163.092 119.235 162.64 119.235 162.072C119.235 161.472 119.067 160.988 118.731 160.62C118.395 160.252 117.923 160.068 117.315 160.068C116.755 160.068 116.307 160.244 115.971 160.596C115.643 160.948 115.479 161.412 115.479 161.988C115.479 162.572 115.643 163.04 115.971 163.392C116.299 163.744 116.775 163.92 117.399 163.92ZM126.697 161.388C126.521 160.5 125.973 160.056 125.053 160.056C124.341 160.056 123.809 160.332 123.457 160.884C123.105 161.428 122.933 162.328 122.941 163.584C123.125 163.168 123.429 162.844 123.853 162.612C124.285 162.372 124.765 162.252 125.293 162.252C126.117 162.252 126.773 162.508 127.261 163.02C127.757 163.532 128.005 164.24 128.005 165.144C128.005 165.688 127.897 166.176 127.681 166.608C127.473 167.04 127.153 167.384 126.721 167.64C126.297 167.896 125.781 168.024 125.173 168.024C124.349 168.024 123.705 167.84 123.241 167.472C122.777 167.104 122.453 166.596 122.269 165.948C122.085 165.3 121.993 164.5 121.993 163.548C121.993 160.612 123.017 159.144 125.065 159.144C125.849 159.144 126.465 159.356 126.913 159.78C127.361 160.204 127.625 160.74 127.705 161.388H126.697ZM125.065 163.176C124.721 163.176 124.397 163.248 124.093 163.392C123.789 163.528 123.541 163.74 123.349 164.028C123.165 164.308 123.073 164.652 123.073 165.06C123.073 165.668 123.249 166.164 123.601 166.548C123.953 166.924 124.457 167.112 125.113 167.112C125.673 167.112 126.117 166.94 126.445 166.596C126.781 166.244 126.949 165.772 126.949 165.18C126.949 164.556 126.789 164.068 126.469 163.716C126.149 163.356 125.681 163.176 125.065 163.176ZM135.01 160.272H130.798V163.008C130.982 162.752 131.254 162.544 131.614 162.384C131.974 162.216 132.362 162.132 132.778 162.132C133.442 162.132 133.982 162.272 134.398 162.552C134.814 162.824 135.11 163.18 135.286 163.62C135.47 164.052 135.562 164.512 135.562 165C135.562 165.576 135.454 166.092 135.238 166.548C135.022 167.004 134.69 167.364 134.242 167.628C133.802 167.892 133.254 168.024 132.598 168.024C131.758 168.024 131.078 167.808 130.558 167.376C130.038 166.944 129.722 166.368 129.61 165.648H130.678C130.782 166.104 131.002 166.46 131.338 166.716C131.674 166.972 132.098 167.1 132.61 167.1C133.242 167.1 133.718 166.912 134.038 166.536C134.358 166.152 134.518 165.648 134.518 165.024C134.518 164.4 134.358 163.92 134.038 163.584C133.718 163.24 133.246 163.068 132.622 163.068C132.198 163.068 131.826 163.172 131.506 163.38C131.194 163.58 130.966 163.856 130.822 164.208H129.79V159.312H135.01V160.272ZM141.754 163.14V164.064H136.966V163.14H141.754ZM148.963 160.176L145.627 168H144.523L147.907 160.284H143.275V159.348H148.963V160.176ZM151.758 163.488C151.31 163.312 150.966 163.056 150.726 162.72C150.486 162.384 150.366 161.976 150.366 161.496C150.366 161.064 150.474 160.676 150.69 160.332C150.906 159.98 151.226 159.704 151.65 159.504C152.082 159.296 152.602 159.192 153.21 159.192C153.818 159.192 154.334 159.296 154.758 159.504C155.19 159.704 155.514 159.98 155.73 160.332C155.954 160.676 156.066 161.064 156.066 161.496C156.066 161.96 155.942 162.368 155.694 162.72C155.446 163.064 155.106 163.32 154.674 163.488C155.17 163.64 155.562 163.908 155.85 164.292C156.146 164.668 156.294 165.124 156.294 165.66C156.294 166.18 156.166 166.636 155.91 167.028C155.654 167.412 155.29 167.712 154.818 167.928C154.354 168.136 153.818 168.24 153.21 168.24C152.602 168.24 152.066 168.136 151.602 167.928C151.146 167.712 150.79 167.412 150.534 167.028C150.278 166.636 150.15 166.18 150.15 165.66C150.15 165.124 150.294 164.664 150.582 164.28C150.87 163.896 151.262 163.632 151.758 163.488ZM155.01 161.628C155.01 161.14 154.85 160.764 154.53 160.5C154.21 160.236 153.77 160.104 153.21 160.104C152.658 160.104 152.222 160.236 151.902 160.5C151.582 160.764 151.422 161.144 151.422 161.64C151.422 162.088 151.586 162.448 151.914 162.72C152.25 162.992 152.682 163.128 153.21 163.128C153.746 163.128 154.178 162.992 154.506 162.72C154.842 162.44 155.01 162.076 155.01 161.628ZM153.21 163.968C152.618 163.968 152.134 164.108 151.758 164.388C151.382 164.66 151.194 165.072 151.194 165.624C151.194 166.136 151.374 166.548 151.734 166.86C152.102 167.172 152.594 167.328 153.21 167.328C153.826 167.328 154.314 167.172 154.674 166.86C155.034 166.548 155.214 166.136 155.214 165.624C155.214 165.088 155.03 164.68 154.662 164.4C154.294 164.112 153.81 163.968 153.21 163.968ZM157.744 163.572C157.744 162.196 157.968 161.124 158.416 160.356C158.864 159.58 159.648 159.192 160.768 159.192C161.88 159.192 162.66 159.58 163.108 160.356C163.556 161.124 163.78 162.196 163.78 163.572C163.78 164.972 163.556 166.06 163.108 166.836C162.66 167.612 161.88 168 160.768 168C159.648 168 158.864 167.612 158.416 166.836C157.968 166.06 157.744 164.972 157.744 163.572ZM162.7 163.572C162.7 162.876 162.652 162.288 162.556 161.808C162.468 161.32 162.28 160.928 161.992 160.632C161.712 160.336 161.304 160.188 160.768 160.188C160.224 160.188 159.808 160.336 159.52 160.632C159.24 160.928 159.052 161.32 158.956 161.808C158.868 162.288 158.824 162.876 158.824 163.572C158.824 164.292 158.868 164.896 158.956 165.384C159.052 165.872 159.24 166.264 159.52 166.56C159.808 166.856 160.224 167.004 160.768 167.004C161.304 167.004 161.712 166.856 161.992 166.56C162.28 166.264 162.468 165.872 162.556 165.384C162.652 164.896 162.7 164.292 162.7 163.572ZM166.683 165.672C166.763 166.128 166.947 166.48 167.235 166.728C167.531 166.976 167.927 167.1 168.423 167.1C169.087 167.1 169.575 166.84 169.887 166.32C170.207 165.8 170.359 164.924 170.343 163.692C170.175 164.052 169.895 164.336 169.503 164.544C169.111 164.744 168.675 164.844 168.195 164.844C167.659 164.844 167.179 164.736 166.755 164.52C166.339 164.296 166.011 163.972 165.771 163.548C165.531 163.124 165.411 162.612 165.411 162.012C165.411 161.156 165.659 160.468 166.155 159.948C166.651 159.42 167.355 159.156 168.267 159.156C169.387 159.156 170.171 159.52 170.619 160.248C171.075 160.976 171.303 162.06 171.303 163.5C171.303 164.508 171.211 165.34 171.027 165.996C170.851 166.652 170.547 167.152 170.115 167.496C169.691 167.84 169.107 168.012 168.363 168.012C167.547 168.012 166.911 167.792 166.455 167.352C165.999 166.912 165.739 166.352 165.675 165.672H166.683ZM168.375 163.92C168.911 163.92 169.351 163.756 169.695 163.428C170.039 163.092 170.211 162.64 170.211 162.072C170.211 161.472 170.043 160.988 169.707 160.62C169.371 160.252 168.899 160.068 168.291 160.068C167.731 160.068 167.283 160.244 166.947 160.596C166.619 160.948 166.455 161.412 166.455 161.988C166.455 162.572 166.619 163.04 166.947 163.392C167.275 163.744 167.751 163.92 168.375 163.92ZM172.838 163.572C172.838 162.196 173.062 161.124 173.51 160.356C173.958 159.58 174.742 159.192 175.862 159.192C176.974 159.192 177.754 159.58 178.202 160.356C178.65 161.124 178.874 162.196 178.874 163.572C178.874 164.972 178.65 166.06 178.202 166.836C177.754 167.612 176.974 168 175.862 168C174.742 168 173.958 167.612 173.51 166.836C173.062 166.06 172.838 164.972 172.838 163.572ZM177.794 163.572C177.794 162.876 177.746 162.288 177.65 161.808C177.562 161.32 177.374 160.928 177.086 160.632C176.806 160.336 176.398 160.188 175.862 160.188C175.318 160.188 174.902 160.336 174.614 160.632C174.334 160.928 174.146 161.32 174.05 161.808C173.962 162.288 173.918 162.876 173.918 163.572C173.918 164.292 173.962 164.896 174.05 165.384C174.146 165.872 174.334 166.264 174.614 166.56C174.902 166.856 175.318 167.004 175.862 167.004C176.398 167.004 176.806 166.856 177.086 166.56C177.374 166.264 177.562 165.872 177.65 165.384C177.746 164.896 177.794 164.292 177.794 163.572ZM185.713 160.176L182.377 168H181.273L184.657 160.284H180.025V159.348H185.713V160.176ZM191.76 161.388C191.584 160.5 191.036 160.056 190.116 160.056C189.404 160.056 188.872 160.332 188.52 160.884C188.168 161.428 187.996 162.328 188.004 163.584C188.188 163.168 188.492 162.844 188.916 162.612C189.348 162.372 189.828 162.252 190.356 162.252C191.18 162.252 191.836 162.508 192.324 163.02C192.82 163.532 193.068 164.24 193.068 165.144C193.068 165.688 192.96 166.176 192.744 166.608C192.536 167.04 192.216 167.384 191.784 167.64C191.36 167.896 190.844 168.024 190.236 168.024C189.412 168.024 188.768 167.84 188.304 167.472C187.84 167.104 187.516 166.596 187.332 165.948C187.148 165.3 187.056 164.5 187.056 163.548C187.056 160.612 188.08 159.144 190.128 159.144C190.912 159.144 191.528 159.356 191.976 159.78C192.424 160.204 192.688 160.74 192.768 161.388H191.76ZM190.128 163.176C189.784 163.176 189.46 163.248 189.156 163.392C188.852 163.528 188.604 163.74 188.412 164.028C188.228 164.308 188.136 164.652 188.136 165.06C188.136 165.668 188.312 166.164 188.664 166.548C189.016 166.924 189.52 167.112 190.176 167.112C190.736 167.112 191.18 166.94 191.508 166.596C191.844 166.244 192.012 165.772 192.012 165.18C192.012 164.556 191.852 164.068 191.532 163.716C191.212 163.356 190.744 163.176 190.128 163.176ZM199.377 161.388C199.201 160.5 198.653 160.056 197.733 160.056C197.021 160.056 196.489 160.332 196.137 160.884C195.785 161.428 195.613 162.328 195.621 163.584C195.805 163.168 196.109 162.844 196.533 162.612C196.965 162.372 197.445 162.252 197.973 162.252C198.797 162.252 199.453 162.508 199.941 163.02C200.437 163.532 200.685 164.24 200.685 165.144C200.685 165.688 200.577 166.176 200.361 166.608C200.153 167.04 199.833 167.384 199.401 167.64C198.977 167.896 198.461 168.024 197.853 168.024C197.029 168.024 196.385 167.84 195.921 167.472C195.457 167.104 195.133 166.596 194.949 165.948C194.765 165.3 194.673 164.5 194.673 163.548C194.673 160.612 195.697 159.144 197.745 159.144C198.529 159.144 199.145 159.356 199.593 159.78C200.041 160.204 200.305 160.74 200.385 161.388H199.377ZM197.745 163.176C197.401 163.176 197.077 163.248 196.773 163.392C196.469 163.528 196.221 163.74 196.029 164.028C195.845 164.308 195.753 164.652 195.753 165.06C195.753 165.668 195.929 166.164 196.281 166.548C196.633 166.924 197.137 167.112 197.793 167.112C198.353 167.112 198.797 166.94 199.125 166.596C199.461 166.244 199.629 165.772 199.629 165.18C199.629 164.556 199.469 164.068 199.149 163.716C198.829 163.356 198.361 163.176 197.745 163.176ZM207.498 160.176L204.162 168H203.058L206.442 160.284H201.81V159.348H207.498V160.176Z" fill="#828282"/>
<path d="M263.542 143.455V158H260.907V146.018H260.822L257.42 148.192V145.777L261.035 143.455H263.542ZM266.973 155.301V153.206L273.145 143.455H274.892V146.438H273.826L269.672 153.021V153.135H278.287V155.301H266.973ZM273.912 158V154.662L273.94 153.724V143.455H276.426V158H273.912ZM285.605 143.256C286.301 143.26 286.979 143.384 287.637 143.625C288.3 143.862 288.896 144.25 289.426 144.79C289.957 145.325 290.378 146.042 290.691 146.942C291.003 147.841 291.159 148.954 291.159 150.28C291.164 151.53 291.032 152.647 290.762 153.632C290.497 154.612 290.115 155.441 289.618 156.118C289.121 156.795 288.522 157.311 287.821 157.666C287.121 158.021 286.332 158.199 285.456 158.199C284.538 158.199 283.723 158.019 283.013 157.659C282.308 157.299 281.737 156.807 281.301 156.182C280.866 155.557 280.598 154.842 280.499 154.037H283.091C283.224 154.615 283.494 155.074 283.901 155.415C284.313 155.751 284.831 155.919 285.456 155.919C286.465 155.919 287.241 155.481 287.786 154.605C288.33 153.729 288.603 152.512 288.603 150.955H288.503C288.271 151.371 287.971 151.731 287.601 152.034C287.232 152.332 286.813 152.562 286.344 152.723C285.88 152.884 285.388 152.964 284.867 152.964C284.015 152.964 283.248 152.761 282.566 152.354C281.889 151.946 281.351 151.388 280.953 150.678C280.56 149.967 280.362 149.155 280.357 148.241C280.357 147.295 280.575 146.445 281.01 145.692C281.451 144.934 282.064 144.338 282.85 143.902C283.636 143.462 284.554 143.246 285.605 143.256ZM285.613 145.386C285.101 145.386 284.64 145.512 284.228 145.763C283.82 146.009 283.498 146.345 283.262 146.771C283.03 147.193 282.914 147.664 282.914 148.185C282.918 148.701 283.034 149.17 283.262 149.591C283.494 150.012 283.809 150.346 284.206 150.592C284.609 150.839 285.068 150.962 285.584 150.962C285.968 150.962 286.325 150.888 286.657 150.741C286.988 150.595 287.277 150.391 287.523 150.131C287.774 149.866 287.968 149.565 288.105 149.229C288.248 148.893 288.316 148.537 288.311 148.163C288.311 147.666 288.193 147.207 287.956 146.786C287.724 146.364 287.405 146.026 286.998 145.77C286.595 145.514 286.133 145.386 285.613 145.386ZM298.574 143.256C299.27 143.26 299.947 143.384 300.605 143.625C301.268 143.862 301.865 144.25 302.395 144.79C302.926 145.325 303.347 146.042 303.659 146.942C303.972 147.841 304.128 148.954 304.128 150.28C304.133 151.53 304 152.647 303.73 153.632C303.465 154.612 303.084 155.441 302.587 156.118C302.09 156.795 301.491 157.311 300.79 157.666C300.089 158.021 299.301 158.199 298.425 158.199C297.507 158.199 296.692 158.019 295.982 157.659C295.276 157.299 294.706 156.807 294.27 156.182C293.835 155.557 293.567 154.842 293.468 154.037H296.06C296.193 154.615 296.462 155.074 296.87 155.415C297.282 155.751 297.8 155.919 298.425 155.919C299.434 155.919 300.21 155.481 300.755 154.605C301.299 153.729 301.571 152.512 301.571 150.955H301.472C301.24 151.371 300.939 151.731 300.57 152.034C300.201 152.332 299.782 152.562 299.313 152.723C298.849 152.884 298.356 152.964 297.836 152.964C296.983 152.964 296.216 152.761 295.534 152.354C294.857 151.946 294.32 151.388 293.922 150.678C293.529 149.967 293.33 149.155 293.326 148.241C293.326 147.295 293.543 146.445 293.979 145.692C294.419 144.934 295.033 144.338 295.819 143.902C296.605 143.462 297.523 143.246 298.574 143.256ZM298.581 145.386C298.07 145.386 297.608 145.512 297.196 145.763C296.789 146.009 296.467 146.345 296.23 146.771C295.998 147.193 295.882 147.664 295.882 148.185C295.887 148.701 296.003 149.17 296.23 149.591C296.462 150.012 296.777 150.346 297.175 150.592C297.578 150.839 298.037 150.962 298.553 150.962C298.936 150.962 299.294 150.888 299.625 150.741C299.957 150.595 300.246 150.391 300.492 150.131C300.743 149.866 300.937 149.565 301.074 149.229C301.216 148.893 301.285 148.537 301.28 148.163C301.28 147.666 301.162 147.207 300.925 146.786C300.693 146.364 300.373 146.026 299.966 145.77C299.564 145.514 299.102 145.386 298.581 145.386ZM307.13 158.08C306.884 158.08 306.674 157.992 306.498 157.816C306.323 157.64 306.235 157.43 306.235 157.185C306.235 156.939 306.323 156.729 306.498 156.553C306.674 156.378 306.884 156.29 307.13 156.29C307.375 156.29 307.585 156.378 307.761 156.553C307.937 156.729 308.025 156.939 308.025 157.185C308.025 157.347 307.983 157.496 307.9 157.632C307.821 157.768 307.713 157.877 307.577 157.96C307.444 158.04 307.295 158.08 307.13 158.08ZM313.256 147.679C313.673 147.682 314.091 147.762 314.509 147.918C314.926 148.073 315.307 148.332 315.652 148.693C315.997 149.051 316.274 149.54 316.482 150.16C316.691 150.78 316.796 151.557 316.796 152.491C316.796 153.396 316.709 154.2 316.537 154.903C316.368 155.602 316.123 156.192 315.801 156.673C315.483 157.153 315.095 157.518 314.638 157.766C314.184 158.015 313.67 158.139 313.097 158.139C312.527 158.139 312.018 158.027 311.57 157.801C311.126 157.572 310.762 157.256 310.477 156.852C310.195 156.444 310.014 155.972 309.935 155.435H311.148C311.257 155.902 311.474 156.288 311.799 156.593C312.127 156.895 312.56 157.045 313.097 157.045C313.882 157.045 314.502 156.702 314.956 156.016C315.414 155.33 315.642 154.361 315.642 153.108H315.563C315.377 153.386 315.157 153.627 314.901 153.829C314.646 154.031 314.363 154.187 314.051 154.296C313.74 154.406 313.408 154.46 313.057 154.46C312.474 154.46 311.938 154.316 311.451 154.028C310.967 153.736 310.579 153.337 310.288 152.83C309.999 152.319 309.855 151.736 309.855 151.08C309.855 150.456 309.994 149.886 310.273 149.369C310.555 148.849 310.949 148.435 311.456 148.126C311.967 147.818 312.566 147.669 313.256 147.679ZM313.256 148.773C312.838 148.773 312.462 148.877 312.127 149.086C311.796 149.291 311.532 149.57 311.337 149.921C311.145 150.269 311.048 150.655 311.048 151.08C311.048 151.504 311.141 151.89 311.327 152.238C311.516 152.583 311.773 152.858 312.097 153.063C312.426 153.265 312.798 153.366 313.216 153.366C313.531 153.366 313.824 153.305 314.096 153.183C314.368 153.057 314.605 152.886 314.807 152.67C315.012 152.452 315.173 152.205 315.289 151.93C315.405 151.651 315.463 151.361 315.463 151.06C315.463 150.662 315.367 150.289 315.175 149.941C314.986 149.593 314.724 149.311 314.389 149.096C314.058 148.88 313.68 148.773 313.256 148.773ZM321.992 147.679C322.41 147.682 322.827 147.762 323.245 147.918C323.663 148.073 324.044 148.332 324.388 148.693C324.733 149.051 325.01 149.54 325.219 150.16C325.428 150.78 325.532 151.557 325.532 152.491C325.532 153.396 325.446 154.2 325.273 154.903C325.104 155.602 324.859 156.192 324.538 156.673C324.219 157.153 323.832 157.518 323.374 157.766C322.92 158.015 322.406 158.139 321.833 158.139C321.263 158.139 320.754 158.027 320.307 157.801C319.863 157.572 319.498 157.256 319.213 156.852C318.931 156.444 318.751 155.972 318.671 155.435H319.884C319.994 155.902 320.211 156.288 320.536 156.593C320.864 156.895 321.296 157.045 321.833 157.045C322.619 157.045 323.238 156.702 323.692 156.016C324.15 155.33 324.379 154.361 324.379 153.108H324.299C324.113 153.386 323.893 153.627 323.638 153.829C323.383 154.031 323.099 154.187 322.788 154.296C322.476 154.406 322.145 154.46 321.793 154.46C321.21 154.46 320.675 154.316 320.187 154.028C319.704 153.736 319.316 153.337 319.024 152.83C318.736 152.319 318.592 151.736 318.592 151.08C318.592 150.456 318.731 149.886 319.009 149.369C319.291 148.849 319.685 148.435 320.192 148.126C320.703 147.818 321.303 147.669 321.992 147.679ZM321.992 148.773C321.575 148.773 321.198 148.877 320.864 149.086C320.532 149.291 320.269 149.57 320.073 149.921C319.881 150.269 319.785 150.655 319.785 151.08C319.785 151.504 319.878 151.89 320.063 152.238C320.252 152.583 320.509 152.858 320.834 153.063C321.162 153.265 321.535 153.366 321.952 153.366C322.267 153.366 322.561 153.305 322.832 153.183C323.104 153.057 323.341 152.886 323.543 152.67C323.749 152.452 323.91 152.205 324.026 151.93C324.142 151.651 324.2 151.361 324.2 151.06C324.2 150.662 324.103 150.289 323.911 149.941C323.722 149.593 323.46 149.311 323.126 149.096C322.794 148.88 322.416 148.773 321.992 148.773ZM330.729 147.679C331.146 147.682 331.564 147.762 331.981 147.918C332.399 148.073 332.78 148.332 333.125 148.693C333.47 149.051 333.746 149.54 333.955 150.16C334.164 150.78 334.268 151.557 334.268 152.491C334.268 153.396 334.182 154.2 334.01 154.903C333.841 155.602 333.595 156.192 333.274 156.673C332.956 157.153 332.568 157.518 332.111 157.766C331.657 158.015 331.143 158.139 330.569 158.139C329.999 158.139 329.491 158.027 329.043 157.801C328.599 157.572 328.234 157.256 327.949 156.852C327.668 156.444 327.487 155.972 327.407 155.435H328.621C328.73 155.902 328.947 156.288 329.272 156.593C329.6 156.895 330.032 157.045 330.569 157.045C331.355 157.045 331.975 156.702 332.429 156.016C332.886 155.33 333.115 154.361 333.115 153.108H333.035C332.85 153.386 332.629 153.627 332.374 153.829C332.119 154.031 331.836 154.187 331.524 154.296C331.212 154.406 330.881 154.46 330.53 154.46C329.946 154.46 329.411 154.316 328.924 154.028C328.44 153.736 328.052 153.337 327.76 152.83C327.472 152.319 327.328 151.736 327.328 151.08C327.328 150.456 327.467 149.886 327.746 149.369C328.027 148.849 328.422 148.435 328.929 148.126C329.439 147.818 330.039 147.669 330.729 147.679ZM330.729 148.773C330.311 148.773 329.935 148.877 329.6 149.086C329.269 149.291 329.005 149.57 328.809 149.921C328.617 150.269 328.521 150.655 328.521 151.08C328.521 151.504 328.614 151.89 328.8 152.238C328.988 152.583 329.245 152.858 329.57 153.063C329.898 153.265 330.271 153.366 330.689 153.366C331.004 153.366 331.297 153.305 331.569 153.183C331.84 153.057 332.077 152.886 332.28 152.67C332.485 152.452 332.646 152.205 332.762 151.93C332.878 151.651 332.936 151.361 332.936 151.06C332.936 150.662 332.84 150.289 332.648 149.941C332.459 149.593 332.197 149.311 331.862 149.096C331.531 148.88 331.153 148.773 330.729 148.773ZM338.316 154V147.891H339.237V150.808H339.312L341.874 147.891H343.035L340.571 150.641L343.044 154H341.934L339.959 151.271L339.237 152.1V154H338.316ZM345.342 154L343.648 147.891H344.617L345.807 152.622H345.864L347.102 147.891H348.062L349.3 152.625H349.357L350.544 147.891H351.517L349.819 154H348.892L347.606 149.424H347.558L346.273 154H345.342ZM354.587 154H352.609V147.891H354.649C355.248 147.891 355.762 148.013 356.192 148.258C356.621 148.5 356.95 148.849 357.179 149.305C357.41 149.758 357.525 150.302 357.525 150.937C357.525 151.573 357.409 152.12 357.176 152.577C356.945 153.035 356.611 153.387 356.174 153.633C355.736 153.878 355.207 154 354.587 154ZM353.531 153.195H354.536C355.001 153.195 355.388 153.107 355.696 152.932C356.005 152.755 356.235 152.5 356.388 152.165C356.542 151.829 356.618 151.42 356.618 150.937C356.618 150.457 356.542 150.051 356.388 149.716C356.237 149.382 356.012 149.129 355.711 148.956C355.411 148.783 355.038 148.696 354.593 148.696H353.531V153.195Z" fill="#333333"/>
<line x1="32" y1="150" x2="358" y2="150" stroke="#F2F2F2"/>
<rect x="16.5" y="111.5" width="357" height="171" rx="3.5" fill="white"/>
<rect x="16.5" y="111.5" width="357" height="171" rx="3.5" stroke="#F2F2F2"/>
<rect x="32" y="129" width="44" height="44" rx="4" fill="#F2DDD9"/>
<path d="M54.46 146.624V155H52.78V149.552L50.536 155H49.264L47.008 149.552V155H45.328V146.624H47.236L49.9 152.852L52.564 146.624H54.46ZM62.229 149.216C62.229 149.664 62.121 150.084 61.905 150.476C61.697 150.868 61.365 151.184 60.909 151.424C60.461 151.664 59.893 151.784 59.205 151.784H57.801V155H56.121V146.624H59.205C59.853 146.624 60.405 146.736 60.861 146.96C61.317 147.184 61.657 147.492 61.881 147.884C62.113 148.276 62.229 148.72 62.229 149.216ZM59.133 150.428C59.597 150.428 59.941 150.324 60.165 150.116C60.389 149.9 60.501 149.6 60.501 149.216C60.501 148.4 60.045 147.992 59.133 147.992H57.801V150.428H59.133Z" fill="#843A2C"/>
<path d="M104.14 144.1V158H101.86V148.48L97.62 158H96.04L91.78 148.48V158H89.5V144.1H91.96L96.84 155L101.7 144.1H104.14ZM106.377 152.44C106.377 151.333 106.603 150.353 107.057 149.5C107.523 148.647 108.15 147.987 108.937 147.52C109.737 147.04 110.617 146.8 111.577 146.8C112.443 146.8 113.197 146.973 113.837 147.32C114.49 147.653 115.01 148.073 115.397 148.58V146.98H117.697V158H115.397V156.36C115.01 156.88 114.483 157.313 113.817 157.66C113.15 158.007 112.39 158.18 111.537 158.18C110.59 158.18 109.723 157.94 108.937 157.46C108.15 156.967 107.523 156.287 107.057 155.42C106.603 154.54 106.377 153.547 106.377 152.44ZM115.397 152.48C115.397 151.72 115.237 151.06 114.917 150.5C114.61 149.94 114.203 149.513 113.697 149.22C113.19 148.927 112.643 148.78 112.057 148.78C111.47 148.78 110.923 148.927 110.417 149.22C109.91 149.5 109.497 149.92 109.177 150.48C108.87 151.027 108.717 151.68 108.717 152.44C108.717 153.2 108.87 153.867 109.177 154.44C109.497 155.013 109.91 155.453 110.417 155.76C110.937 156.053 111.483 156.2 112.057 156.2C112.643 156.2 113.19 156.053 113.697 155.76C114.203 155.467 114.61 155.04 114.917 154.48C115.237 153.907 115.397 153.24 115.397 152.48ZM122.971 143.2V158H120.691V143.2H122.971ZM128.245 143.2V158H125.965V143.2H128.245ZM146.154 148.24C146.154 148.947 145.987 149.613 145.654 150.24C145.32 150.867 144.787 151.38 144.054 151.78C143.32 152.167 142.38 152.36 141.234 152.36H138.714V158H136.434V144.1H141.234C142.3 144.1 143.2 144.287 143.934 144.66C144.68 145.02 145.234 145.513 145.594 146.14C145.967 146.767 146.154 147.467 146.154 148.24ZM141.234 150.5C142.1 150.5 142.747 150.307 143.174 149.92C143.6 149.52 143.814 148.96 143.814 148.24C143.814 146.72 142.954 145.96 141.234 145.96H138.714V150.5H141.234ZM147.568 152.44C147.568 151.333 147.795 150.353 148.248 149.5C148.715 148.647 149.341 147.987 150.128 147.52C150.928 147.04 151.808 146.8 152.768 146.8C153.635 146.8 154.388 146.973 155.028 147.32C155.681 147.653 156.201 148.073 156.588 148.58V146.98H158.888V158H156.588V156.36C156.201 156.88 155.675 157.313 155.008 157.66C154.341 158.007 153.581 158.18 152.728 158.18C151.781 158.18 150.915 157.94 150.128 157.46C149.341 156.967 148.715 156.287 148.248 155.42C147.795 154.54 147.568 153.547 147.568 152.44ZM156.588 152.48C156.588 151.72 156.428 151.06 156.108 150.5C155.801 149.94 155.395 149.513 154.888 149.22C154.381 148.927 153.835 148.78 153.248 148.78C152.661 148.78 152.115 148.927 151.608 149.22C151.101 149.5 150.688 149.92 150.368 150.48C150.061 151.027 149.908 151.68 149.908 152.44C149.908 153.2 150.061 153.867 150.368 154.44C150.688 155.013 151.101 155.453 151.608 155.76C152.128 156.053 152.675 156.2 153.248 156.2C153.835 156.2 154.381 156.053 154.888 155.76C155.395 155.467 155.801 155.04 156.108 154.48C156.428 153.907 156.588 153.24 156.588 152.48ZM164.163 148.58C164.496 148.02 164.936 147.587 165.483 147.28C166.043 146.96 166.703 146.8 167.463 146.8V149.16H166.883C165.989 149.16 165.309 149.387 164.843 149.84C164.389 150.293 164.163 151.08 164.163 152.2V158H161.883V146.98H164.163V148.58ZM173.919 152.5L178.999 158H175.919L171.839 153.26V158H169.559V143.2H171.839V151.8L175.839 146.98H178.999L173.919 152.5ZM181.793 145.52C181.379 145.52 181.033 145.38 180.753 145.1C180.473 144.82 180.333 144.473 180.333 144.06C180.333 143.647 180.473 143.3 180.753 143.02C181.033 142.74 181.379 142.6 181.793 142.6C182.193 142.6 182.533 142.74 182.813 143.02C183.093 143.3 183.233 143.647 183.233 144.06C183.233 144.473 183.093 144.82 182.813 145.1C182.533 145.38 182.193 145.52 181.793 145.52ZM182.913 146.98V158H180.633V146.98H182.913ZM191.466 146.8C192.333 146.8 193.106 146.98 193.786 147.34C194.48 147.7 195.02 148.233 195.406 148.94C195.793 149.647 195.986 150.5 195.986 151.5V158H193.726V151.84C193.726 150.853 193.48 150.1 192.986 149.58C192.493 149.047 191.82 148.78 190.966 148.78C190.113 148.78 189.433 149.047 188.926 149.58C188.433 150.1 188.186 150.853 188.186 151.84V158H185.906V146.98H188.186V148.24C188.56 147.787 189.033 147.433 189.606 147.18C190.193 146.927 190.813 146.8 191.466 146.8ZM203.335 146.8C204.188 146.8 204.941 146.973 205.595 147.32C206.261 147.653 206.781 148.073 207.155 148.58V146.98H209.455V158.18C209.455 159.193 209.241 160.093 208.815 160.88C208.388 161.68 207.768 162.307 206.955 162.76C206.155 163.213 205.195 163.44 204.075 163.44C202.581 163.44 201.341 163.087 200.355 162.38C199.368 161.687 198.808 160.74 198.675 159.54H200.935C201.108 160.113 201.475 160.573 202.035 160.92C202.608 161.28 203.288 161.46 204.075 161.46C204.995 161.46 205.735 161.18 206.295 160.62C206.868 160.06 207.155 159.247 207.155 158.18V156.34C206.768 156.86 206.241 157.3 205.575 157.66C204.921 158.007 204.175 158.18 203.335 158.18C202.375 158.18 201.495 157.94 200.695 157.46C199.908 156.967 199.281 156.287 198.815 155.42C198.361 154.54 198.135 153.547 198.135 152.44C198.135 151.333 198.361 150.353 198.815 149.5C199.281 148.647 199.908 147.987 200.695 147.52C201.495 147.04 202.375 146.8 203.335 146.8ZM207.155 152.48C207.155 151.72 206.995 151.06 206.675 150.5C206.368 149.94 205.961 149.513 205.455 149.22C204.948 148.927 204.401 148.78 203.815 148.78C203.228 148.78 202.681 148.927 202.175 149.22C201.668 149.5 201.255 149.92 200.935 150.48C200.628 151.027 200.475 151.68 200.475 152.44C200.475 153.2 200.628 153.867 200.935 154.44C201.255 155.013 201.668 155.453 202.175 155.76C202.695 156.053 203.241 156.2 203.815 156.2C204.401 156.2 204.948 156.053 205.455 155.76C205.961 155.467 206.368 155.04 206.675 154.48C206.995 153.907 207.155 153.24 207.155 152.48Z" fill="#333333"/>
<path d="M311.769 143.455V158H309.134V146.018H309.049L305.647 148.192V145.777L309.262 143.455H311.769ZM316.098 158.08C315.853 158.08 315.643 157.992 315.467 157.816C315.291 157.64 315.203 157.43 315.203 157.185C315.203 156.939 315.291 156.729 315.467 156.553C315.643 156.378 315.853 156.29 316.098 156.29C316.344 156.29 316.554 156.378 316.73 156.553C316.905 156.729 316.993 156.939 316.993 157.185C316.993 157.347 316.952 157.496 316.869 157.632C316.789 157.768 316.682 157.877 316.546 157.96C316.413 158.04 316.264 158.08 316.098 158.08ZM322.044 158.139C321.295 158.139 320.657 157.935 320.13 157.528C319.603 157.117 319.201 156.522 318.922 155.743C318.644 154.961 318.505 154.016 318.505 152.909C318.505 151.809 318.644 150.869 318.922 150.09C319.204 149.308 319.608 148.711 320.135 148.3C320.666 147.886 321.302 147.679 322.044 147.679C322.787 147.679 323.422 147.886 323.949 148.3C324.479 148.711 324.883 149.308 325.162 150.09C325.443 150.869 325.584 151.809 325.584 152.909C325.584 154.016 325.445 154.961 325.167 155.743C324.888 156.522 324.485 157.117 323.958 157.528C323.431 157.935 322.793 158.139 322.044 158.139ZM322.044 157.045C322.787 157.045 323.364 156.687 323.775 155.972C324.185 155.256 324.391 154.235 324.391 152.909C324.391 152.027 324.297 151.277 324.108 150.657C323.922 150.037 323.654 149.565 323.302 149.24C322.954 148.915 322.535 148.753 322.044 148.753C321.309 148.753 320.734 149.116 320.319 149.842C319.905 150.564 319.698 151.587 319.698 152.909C319.698 153.791 319.791 154.54 319.976 155.156C320.162 155.773 320.429 156.242 320.777 156.563C321.128 156.885 321.551 157.045 322.044 157.045ZM330.794 158.139C330.045 158.139 329.407 157.935 328.88 157.528C328.353 157.117 327.951 156.522 327.672 155.743C327.394 154.961 327.255 154.016 327.255 152.909C327.255 151.809 327.394 150.869 327.672 150.09C327.954 149.308 328.358 148.711 328.885 148.3C329.416 147.886 330.052 147.679 330.794 147.679C331.537 147.679 332.172 147.886 332.699 148.3C333.229 148.711 333.633 149.308 333.912 150.09C334.193 150.869 334.334 151.809 334.334 152.909C334.334 154.016 334.195 154.961 333.917 155.743C333.638 156.522 333.235 157.117 332.708 157.528C332.181 157.935 331.543 158.139 330.794 158.139ZM330.794 157.045C331.537 157.045 332.114 156.687 332.525 155.972C332.935 155.256 333.141 154.235 333.141 152.909C333.141 152.027 333.047 151.277 332.858 150.657C332.672 150.037 332.404 149.565 332.052 149.24C331.704 148.915 331.285 148.753 330.794 148.753C330.059 148.753 329.484 149.116 329.069 149.842C328.655 150.564 328.448 151.587 328.448 152.909C328.448 153.791 328.541 154.54 328.726 155.156C328.912 155.773 329.179 156.242 329.527 156.563C329.878 156.885 330.301 157.045 330.794 157.045ZM338.316 154V147.891H339.237V150.808H339.312L341.874 147.891H343.035L340.571 150.641L343.044 154H341.934L339.959 151.271L339.237 152.1V154H338.316ZM345.342 154L343.648 147.891H344.617L345.807 152.622H345.864L347.102 147.891H348.062L349.3 152.625H349.357L350.544 147.891H351.517L349.819 154H348.892L347.606 149.424H347.558L346.273 154H345.342ZM354.587 154H352.609V147.891H354.649C355.248 147.891 355.762 148.013 356.192 148.258C356.621 148.5 356.95 148.849 357.179 149.305C357.41 149.758 357.525 150.302 357.525 150.937C357.525 151.573 357.409 152.12 357.176 152.577C356.945 153.035 356.611 153.387 356.174 153.633C355.736 153.878 355.207 154 354.587 154ZM353.531 153.195H354.536C355.001 153.195 355.388 153.107 355.696 152.932C356.005 152.755 356.235 152.5 356.388 152.165C356.542 151.829 356.618 151.42 356.618 150.937C356.618 150.457 356.542 150.051 356.388 149.716C356.237 149.382 356.012 149.129 355.711 148.956C355.411 148.783 355.038 148.696 354.593 148.696H353.531V153.195Z" fill="#333333"/>
<line x1="32" y1="196" x2="358" y2="196" stroke="#F2F2F2"/>
<path d="M37.808 238.66V239.776H34.268V242.236H37.028V243.352H34.268V247H32.9V238.66H37.808ZM40.4438 241.348C40.6438 241.012 40.9078 240.752 41.2358 240.568C41.5718 240.376 41.9678 240.28 42.4238 240.28V241.696H42.0758C41.5398 241.696 41.1318 241.832 40.8518 242.104C40.5798 242.376 40.4438 242.848 40.4438 243.52V247H39.0758V240.388H40.4438V241.348ZM46.5493 247.108C45.9253 247.108 45.3613 246.968 44.8573 246.688C44.3533 246.4 43.9573 246 43.6693 245.488C43.3813 244.968 43.2373 244.368 43.2373 243.688C43.2373 243.016 43.3853 242.42 43.6813 241.9C43.9773 241.38 44.3813 240.98 44.8933 240.7C45.4053 240.42 45.9773 240.28 46.6093 240.28C47.2413 240.28 47.8133 240.42 48.3253 240.7C48.8373 240.98 49.2413 241.38 49.5373 241.9C49.8333 242.42 49.9813 243.016 49.9813 243.688C49.9813 244.36 49.8293 244.956 49.5253 245.476C49.2213 245.996 48.8053 246.4 48.2773 246.688C47.7573 246.968 47.1813 247.108 46.5493 247.108ZM46.5493 245.92C46.9013 245.92 47.2293 245.836 47.5333 245.668C47.8453 245.5 48.0973 245.248 48.2893 244.912C48.4813 244.576 48.5773 244.168 48.5773 243.688C48.5773 243.208 48.4853 242.804 48.3013 242.476C48.1173 242.14 47.8733 241.888 47.5693 241.72C47.2653 241.552 46.9373 241.468 46.5853 241.468C46.2333 241.468 45.9053 241.552 45.6013 241.72C45.3053 241.888 45.0693 242.14 44.8933 242.476C44.7173 242.804 44.6293 243.208 44.6293 243.688C44.6293 244.4 44.8093 244.952 45.1693 245.344C45.5373 245.728 45.9973 245.92 46.5493 245.92ZM59.3376 240.28C59.8576 240.28 60.3216 240.388 60.7296 240.604C61.1456 240.82 61.4696 241.14 61.7016 241.564C61.9416 241.988 62.0616 242.5 62.0616 243.1V247H60.7056V243.304C60.7056 242.712 60.5576 242.26 60.2616 241.948C59.9656 241.628 59.5616 241.468 59.0496 241.468C58.5376 241.468 58.1296 241.628 57.8256 241.948C57.5296 242.26 57.3816 242.712 57.3816 243.304V247H56.0256V243.304C56.0256 242.712 55.8776 242.26 55.5816 241.948C55.2856 241.628 54.8816 241.468 54.3696 241.468C53.8576 241.468 53.4496 241.628 53.1456 241.948C52.8496 242.26 52.7016 242.712 52.7016 243.304V247H51.3336V240.388H52.7016V241.144C52.9256 240.872 53.2096 240.66 53.5536 240.508C53.8976 240.356 54.2656 240.28 54.6576 240.28C55.1856 240.28 55.6576 240.392 56.0736 240.616C56.4896 240.84 56.8096 241.164 57.0336 241.588C57.2336 241.188 57.5456 240.872 57.9696 240.64C58.3936 240.4 58.8496 240.28 59.3376 240.28Z" fill="#898E94"/>
<g filter="url(#filter0_dd_76_54)">
<rect x="131" y="224" width="38" height="38" rx="4" fill="white"/>
<path d="M156.824 233.772L153.995 239.221C153.911 239.381 153.771 239.507 153.599 239.574L150.85 240.659L147.745 241.884L147.613 241.936C147.457 241.998 147.341 242.131 147.305 242.292C147.28 242.41 147.299 242.532 147.358 242.635C147.379 242.672 147.404 242.707 147.436 242.737L149.897 245.15C149.968 245.223 149.915 245.343 149.812 245.343H142.56C142.145 245.343 141.874 244.921 142.059 244.561L147.842 233.3C147.936 233.115 148.13 233 148.342 233H156.319C156.728 233 156.999 233.413 156.824 233.772Z" fill="#0980FF"/>
<path d="M157.275 241.431L151.527 252.693C151.435 252.883 151.239 253.003 151.022 253.003H143.109C142.695 253.003 142.424 252.58 142.609 252.221L145.419 246.795C145.548 246.544 145.814 246.384 146.104 246.384H151.399C151.605 246.384 151.79 246.264 151.871 246.033C151.951 245.85 151.911 245.64 151.769 245.495L148.861 242.712C148.804 242.653 148.826 242.56 148.902 242.528L150.908 241.721C152.787 241.02 154.766 240.656 156.769 240.656C157.18 240.656 157.45 241.07 157.276 241.429L157.274 241.43L157.275 241.431Z" fill="#0980FF"/>
</g>
<path d="M186.496 238L183.268 234.268V238H181.9V229.66H183.268V233.464L186.508 229.66H188.224L184.6 233.836L188.284 238H186.496ZM198.374 231.388L196.322 238H194.882L193.55 233.116L192.218 238H190.778L188.714 231.388H190.106L191.486 236.704L192.89 231.388H194.318L195.662 236.68L197.03 231.388H198.374ZM200.092 230.512C199.844 230.512 199.636 230.428 199.468 230.26C199.3 230.092 199.216 229.884 199.216 229.636C199.216 229.388 199.3 229.18 199.468 229.012C199.636 228.844 199.844 228.76 200.092 228.76C200.332 228.76 200.536 228.844 200.704 229.012C200.872 229.18 200.956 229.388 200.956 229.636C200.956 229.884 200.872 230.092 200.704 230.26C200.536 230.428 200.332 230.512 200.092 230.512ZM200.764 231.388V238H199.396V231.388H200.764ZM205.176 234.7L208.224 238H206.376L203.928 235.156V238H202.56V229.12H203.928V234.28L206.328 231.388H208.224L205.176 234.7ZM215.037 232.144C215.037 232.568 214.937 232.968 214.737 233.344C214.537 233.72 214.217 234.028 213.777 234.268C213.337 234.5 212.773 234.616 212.085 234.616H210.573V238H209.205V229.66H212.085C212.725 229.66 213.265 229.772 213.705 229.996C214.153 230.212 214.485 230.508 214.701 230.884C214.925 231.26 215.037 231.68 215.037 232.144ZM212.085 233.5C212.605 233.5 212.993 233.384 213.249 233.152C213.505 232.912 213.633 232.576 213.633 232.144C213.633 231.232 213.117 230.776 212.085 230.776H210.573V233.5H212.085ZM215.885 234.664C215.885 234 216.021 233.412 216.293 232.9C216.573 232.388 216.949 231.992 217.421 231.712C217.901 231.424 218.429 231.28 219.005 231.28C219.525 231.28 219.977 231.384 220.361 231.592C220.753 231.792 221.065 232.044 221.297 232.348V231.388H222.677V238H221.297V237.016C221.065 237.328 220.749 237.588 220.349 237.796C219.949 238.004 219.493 238.108 218.981 238.108C218.413 238.108 217.893 237.964 217.421 237.676C216.949 237.38 216.573 236.972 216.293 236.452C216.021 235.924 215.885 235.328 215.885 234.664ZM221.297 234.688C221.297 234.232 221.201 233.836 221.009 233.5C220.825 233.164 220.581 232.908 220.277 232.732C219.973 232.556 219.645 232.468 219.293 232.468C218.941 232.468 218.613 232.556 218.309 232.732C218.005 232.9 217.757 233.152 217.565 233.488C217.381 233.816 217.289 234.208 217.289 234.664C217.289 235.12 217.381 235.52 217.565 235.864C217.757 236.208 218.005 236.472 218.309 236.656C218.621 236.832 218.949 236.92 219.293 236.92C219.645 236.92 219.973 236.832 220.277 236.656C220.581 236.48 220.825 236.224 221.009 235.888C221.201 235.544 221.297 235.144 221.297 234.688ZM230.426 231.388L226.37 241.108H224.954L226.298 237.892L223.694 231.388H225.218L227.078 236.428L229.01 231.388H230.426ZM240.408 232.144C240.408 232.568 240.308 232.968 240.108 233.344C239.908 233.72 239.588 234.028 239.148 234.268C238.708 234.5 238.144 234.616 237.456 234.616H235.944V238H234.576V229.66H237.456C238.096 229.66 238.636 229.772 239.076 229.996C239.524 230.212 239.856 230.508 240.072 230.884C240.296 231.26 240.408 231.68 240.408 232.144ZM237.456 233.5C237.976 233.5 238.364 233.384 238.62 233.152C238.876 232.912 239.004 232.576 239.004 232.144C239.004 231.232 238.488 230.776 237.456 230.776H235.944V233.5H237.456ZM241.257 234.664C241.257 234 241.393 233.412 241.665 232.9C241.945 232.388 242.321 231.992 242.793 231.712C243.273 231.424 243.801 231.28 244.377 231.28C244.897 231.28 245.349 231.384 245.733 231.592C246.125 231.792 246.437 232.044 246.669 232.348V231.388H248.049V238H246.669V237.016C246.437 237.328 246.121 237.588 245.721 237.796C245.321 238.004 244.865 238.108 244.353 238.108C243.785 238.108 243.265 237.964 242.793 237.676C242.321 237.38 241.945 236.972 241.665 236.452C241.393 235.924 241.257 235.328 241.257 234.664ZM246.669 234.688C246.669 234.232 246.573 233.836 246.381 233.5C246.197 233.164 245.953 232.908 245.649 232.732C245.345 232.556 245.017 232.468 244.665 232.468C244.313 232.468 243.985 232.556 243.681 232.732C243.377 232.9 243.129 233.152 242.937 233.488C242.753 233.816 242.661 234.208 242.661 234.664C242.661 235.12 242.753 235.52 242.937 235.864C243.129 236.208 243.377 236.472 243.681 236.656C243.993 236.832 244.321 236.92 244.665 236.92C245.017 236.92 245.345 236.832 245.649 236.656C245.953 236.48 246.197 236.224 246.381 235.888C246.573 235.544 246.669 235.144 246.669 234.688ZM252.245 238.108C251.725 238.108 251.257 238.016 250.841 237.832C250.433 237.64 250.109 237.384 249.869 237.064C249.629 236.736 249.501 236.372 249.485 235.972H250.901C250.925 236.252 251.057 236.488 251.297 236.68C251.545 236.864 251.853 236.956 252.221 236.956C252.605 236.956 252.901 236.884 253.109 236.74C253.325 236.588 253.433 236.396 253.433 236.164C253.433 235.916 253.313 235.732 253.073 235.612C252.841 235.492 252.469 235.36 251.957 235.216C251.461 235.08 251.057 234.948 250.745 234.82C250.433 234.692 250.161 234.496 249.929 234.232C249.705 233.968 249.593 233.62 249.593 233.188C249.593 232.836 249.697 232.516 249.905 232.228C250.113 231.932 250.409 231.7 250.793 231.532C251.185 231.364 251.633 231.28 252.137 231.28C252.889 231.28 253.493 231.472 253.949 231.856C254.413 232.232 254.661 232.748 254.693 233.404H253.325C253.301 233.108 253.181 232.872 252.965 232.696C252.749 232.52 252.457 232.432 252.089 232.432C251.729 232.432 251.453 232.5 251.261 232.636C251.069 232.772 250.973 232.952 250.973 233.176C250.973 233.352 251.037 233.5 251.165 233.62C251.293 233.74 251.449 233.836 251.633 233.908C251.817 233.972 252.089 234.056 252.449 234.16C252.929 234.288 253.321 234.42 253.625 234.556C253.937 234.684 254.205 234.876 254.429 235.132C254.653 235.388 254.769 235.728 254.777 236.152C254.777 236.528 254.673 236.864 254.465 237.16C254.257 237.456 253.961 237.688 253.577 237.856C253.201 238.024 252.757 238.108 252.245 238.108ZM258.655 238.108C258.135 238.108 257.667 238.016 257.251 237.832C256.843 237.64 256.519 237.384 256.279 237.064C256.039 236.736 255.911 236.372 255.895 235.972H257.311C257.335 236.252 257.467 236.488 257.707 236.68C257.955 236.864 258.263 236.956 258.631 236.956C259.015 236.956 259.311 236.884 259.519 236.74C259.735 236.588 259.843 236.396 259.843 236.164C259.843 235.916 259.723 235.732 259.483 235.612C259.251 235.492 258.879 235.36 258.367 235.216C257.871 235.08 257.467 234.948 257.155 234.82C256.843 234.692 256.571 234.496 256.339 234.232C256.115 233.968 256.003 233.62 256.003 233.188C256.003 232.836 256.107 232.516 256.315 232.228C256.523 231.932 256.819 231.7 257.203 231.532C257.595 231.364 258.043 231.28 258.547 231.28C259.299 231.28 259.903 231.472 260.359 231.856C260.823 232.232 261.071 232.748 261.103 233.404H259.735C259.711 233.108 259.591 232.872 259.375 232.696C259.159 232.52 258.867 232.432 258.499 232.432C258.139 232.432 257.863 232.5 257.671 232.636C257.479 232.772 257.383 232.952 257.383 233.176C257.383 233.352 257.447 233.5 257.575 233.62C257.703 233.74 257.859 233.836 258.043 233.908C258.227 233.972 258.499 234.056 258.859 234.16C259.339 234.288 259.731 234.42 260.035 234.556C260.347 234.684 260.615 234.876 260.839 235.132C261.063 235.388 261.179 235.728 261.187 236.152C261.187 236.528 261.083 236.864 260.875 237.16C260.667 237.456 260.371 237.688 259.987 237.856C259.611 238.024 259.167 238.108 258.655 238.108Z" fill="#00050A"/>
<path d="M186.928 257.296H183.436L182.836 259H181.408L184.396 250.648H185.98L188.968 259H187.528L186.928 257.296ZM186.544 256.18L185.188 252.304L183.82 256.18H186.544ZM192.823 257.776L194.695 252.388H196.147L193.627 259H191.995L189.487 252.388H190.951L192.823 257.776ZM196.725 255.664C196.725 255 196.861 254.412 197.133 253.9C197.413 253.388 197.789 252.992 198.261 252.712C198.741 252.424 199.269 252.28 199.845 252.28C200.365 252.28 200.817 252.384 201.201 252.592C201.593 252.792 201.905 253.044 202.137 253.348V252.388H203.517V259H202.137V258.016C201.905 258.328 201.589 258.588 201.189 258.796C200.789 259.004 200.333 259.108 199.821 259.108C199.253 259.108 198.733 258.964 198.261 258.676C197.789 258.38 197.413 257.972 197.133 257.452C196.861 256.924 196.725 256.328 196.725 255.664ZM202.137 255.688C202.137 255.232 202.041 254.836 201.849 254.5C201.665 254.164 201.421 253.908 201.117 253.732C200.813 253.556 200.485 253.468 200.133 253.468C199.781 253.468 199.453 253.556 199.149 253.732C198.845 253.9 198.597 254.152 198.405 254.488C198.221 254.816 198.129 255.208 198.129 255.664C198.129 256.12 198.221 256.52 198.405 256.864C198.597 257.208 198.845 257.472 199.149 257.656C199.461 257.832 199.789 257.92 200.133 257.92C200.485 257.92 200.813 257.832 201.117 257.656C201.421 257.48 201.665 257.224 201.849 256.888C202.041 256.544 202.137 256.144 202.137 255.688ZM206.01 251.512C205.762 251.512 205.554 251.428 205.386 251.26C205.218 251.092 205.134 250.884 205.134 250.636C205.134 250.388 205.218 250.18 205.386 250.012C205.554 249.844 205.762 249.76 206.01 249.76C206.25 249.76 206.454 249.844 206.622 250.012C206.79 250.18 206.874 250.388 206.874 250.636C206.874 250.884 206.79 251.092 206.622 251.26C206.454 251.428 206.25 251.512 206.01 251.512ZM206.682 252.388V259H205.314V252.388H206.682ZM209.846 250.12V259H208.478V250.12H209.846ZM211.186 255.664C211.186 255 211.322 254.412 211.594 253.9C211.874 253.388 212.25 252.992 212.722 252.712C213.202 252.424 213.73 252.28 214.306 252.28C214.826 252.28 215.278 252.384 215.662 252.592C216.054 252.792 216.366 253.044 216.598 253.348V252.388H217.978V259H216.598V258.016C216.366 258.328 216.05 258.588 215.65 258.796C215.25 259.004 214.794 259.108 214.282 259.108C213.714 259.108 213.194 258.964 212.722 258.676C212.25 258.38 211.874 257.972 211.594 257.452C211.322 256.924 211.186 256.328 211.186 255.664ZM216.598 255.688C216.598 255.232 216.502 254.836 216.31 254.5C216.126 254.164 215.882 253.908 215.578 253.732C215.274 253.556 214.946 253.468 214.594 253.468C214.242 253.468 213.914 253.556 213.61 253.732C213.306 253.9 213.058 254.152 212.866 254.488C212.682 254.816 212.59 255.208 212.59 255.664C212.59 256.12 212.682 256.52 212.866 256.864C213.058 257.208 213.306 257.472 213.61 257.656C213.922 257.832 214.25 257.92 214.594 257.92C214.946 257.92 215.274 257.832 215.578 257.656C215.882 257.48 216.126 257.224 216.31 256.888C216.502 256.544 216.598 256.144 216.598 255.688ZM221.143 253.372C221.375 253.052 221.691 252.792 222.091 252.592C222.499 252.384 222.951 252.28 223.447 252.28C224.031 252.28 224.559 252.42 225.031 252.7C225.503 252.98 225.875 253.38 226.147 253.9C226.419 254.412 226.555 255 226.555 255.664C226.555 256.328 226.419 256.924 226.147 257.452C225.875 257.972 225.499 258.38 225.019 258.676C224.547 258.964 224.023 259.108 223.447 259.108C222.935 259.108 222.479 259.008 222.079 258.808C221.687 258.608 221.375 258.352 221.143 258.04V259H219.775V250.12H221.143V253.372ZM225.163 255.664C225.163 255.208 225.067 254.816 224.875 254.488C224.691 254.152 224.443 253.9 224.131 253.732C223.827 253.556 223.499 253.468 223.147 253.468C222.803 253.468 222.475 253.556 222.163 253.732C221.859 253.908 221.611 254.164 221.419 254.5C221.235 254.836 221.143 255.232 221.143 255.688C221.143 256.144 221.235 256.544 221.419 256.888C221.611 257.224 221.859 257.48 222.163 257.656C222.475 257.832 222.803 257.92 223.147 257.92C223.499 257.92 223.827 257.832 224.131 257.656C224.443 257.472 224.691 257.208 224.875 256.864C225.067 256.52 225.163 256.12 225.163 255.664ZM229.276 250.12V259H227.908V250.12H229.276ZM237.132 255.532C237.132 255.78 237.116 256.004 237.084 256.204H232.032C232.072 256.732 232.268 257.156 232.62 257.476C232.972 257.796 233.404 257.956 233.916 257.956C234.652 257.956 235.172 257.648 235.476 257.032H236.952C236.752 257.64 236.388 258.14 235.86 258.532C235.34 258.916 234.692 259.108 233.916 259.108C233.284 259.108 232.716 258.968 232.212 258.688C231.716 258.4 231.324 258 231.036 257.488C230.756 256.968 230.616 256.368 230.616 255.688C230.616 255.008 230.752 254.412 231.024 253.9C231.304 253.38 231.692 252.98 232.188 252.7C232.692 252.42 233.268 252.28 233.916 252.28C234.54 252.28 235.096 252.416 235.584 252.688C236.072 252.96 236.452 253.344 236.724 253.84C236.996 254.328 237.132 254.892 237.132 255.532ZM235.704 255.1C235.696 254.596 235.516 254.192 235.164 253.888C234.812 253.584 234.376 253.432 233.856 253.432C233.384 253.432 232.98 253.584 232.644 253.888C232.308 254.184 232.108 254.588 232.044 255.1H235.704ZM246.059 254.716C246.507 254.796 246.887 255.032 247.199 255.424C247.511 255.816 247.667 256.26 247.667 256.756C247.667 257.18 247.555 257.564 247.331 257.908C247.115 258.244 246.799 258.512 246.383 258.712C245.967 258.904 245.483 259 244.931 259H241.595V250.66H244.775C245.343 250.66 245.831 250.756 246.239 250.948C246.647 251.14 246.955 251.4 247.163 251.728C247.371 252.048 247.475 252.408 247.475 252.808C247.475 253.288 247.347 253.688 247.091 254.008C246.835 254.328 246.491 254.564 246.059 254.716ZM242.963 254.164H244.655C245.103 254.164 245.451 254.064 245.699 253.864C245.955 253.656 246.083 253.36 246.083 252.976C246.083 252.6 245.955 252.308 245.699 252.1C245.451 251.884 245.103 251.776 244.655 251.776H242.963V254.164ZM244.811 257.884C245.275 257.884 245.639 257.772 245.903 257.548C246.167 257.324 246.299 257.012 246.299 256.612C246.299 256.204 246.159 255.88 245.879 255.64C245.599 255.4 245.227 255.28 244.763 255.28H242.963V257.884H244.811ZM248.698 255.664C248.698 255 248.834 254.412 249.106 253.9C249.386 253.388 249.762 252.992 250.234 252.712C250.714 252.424 251.242 252.28 251.818 252.28C252.338 252.28 252.79 252.384 253.174 252.592C253.566 252.792 253.878 253.044 254.11 253.348V252.388H255.49V259H254.11V258.016C253.878 258.328 253.562 258.588 253.162 258.796C252.762 259.004 252.306 259.108 251.794 259.108C251.226 259.108 250.706 258.964 250.234 258.676C249.762 258.38 249.386 257.972 249.106 257.452C248.834 256.924 248.698 256.328 248.698 255.664ZM254.11 255.688C254.11 255.232 254.014 254.836 253.822 254.5C253.638 254.164 253.394 253.908 253.09 253.732C252.786 253.556 252.458 253.468 252.106 253.468C251.754 253.468 251.426 253.556 251.122 253.732C250.818 253.9 250.57 254.152 250.378 254.488C250.194 254.816 250.102 255.208 250.102 255.664C250.102 256.12 250.194 256.52 250.378 256.864C250.57 257.208 250.818 257.472 251.122 257.656C251.434 257.832 251.762 257.92 252.106 257.92C252.458 257.92 252.786 257.832 253.09 257.656C253.394 257.48 253.638 257.224 253.822 256.888C254.014 256.544 254.11 256.144 254.11 255.688ZM258.655 250.12V259H257.287V250.12H258.655ZM259.995 255.664C259.995 255 260.131 254.412 260.403 253.9C260.683 253.388 261.059 252.992 261.531 252.712C262.011 252.424 262.539 252.28 263.115 252.28C263.635 252.28 264.087 252.384 264.471 252.592C264.863 252.792 265.175 253.044 265.407 253.348V252.388H266.787V259H265.407V258.016C265.175 258.328 264.859 258.588 264.459 258.796C264.059 259.004 263.603 259.108 263.091 259.108C262.523 259.108 262.003 258.964 261.531 258.676C261.059 258.38 260.683 257.972 260.403 257.452C260.131 256.924 259.995 256.328 259.995 255.664ZM265.407 255.688C265.407 255.232 265.311 254.836 265.119 254.5C264.935 254.164 264.691 253.908 264.387 253.732C264.083 253.556 263.755 253.468 263.403 253.468C263.051 253.468 262.723 253.556 262.419 253.732C262.115 253.9 261.867 254.152 261.675 254.488C261.491 254.816 261.399 255.208 261.399 255.664C261.399 256.12 261.491 256.52 261.675 256.864C261.867 257.208 262.115 257.472 262.419 257.656C262.731 257.832 263.059 257.92 263.403 257.92C263.755 257.92 264.083 257.832 264.387 257.656C264.691 257.48 264.935 257.224 265.119 256.888C265.311 256.544 265.407 256.144 265.407 255.688ZM271.92 252.28C272.44 252.28 272.904 252.388 273.312 252.604C273.728 252.82 274.052 253.14 274.284 253.564C274.516 253.988 274.632 254.5 274.632 255.1V259H273.276V255.304C273.276 254.712 273.128 254.26 272.832 253.948C272.536 253.628 272.132 253.468 271.62 253.468C271.108 253.468 270.7 253.628 270.396 253.948C270.1 254.26 269.952 254.712 269.952 255.304V259H268.584V252.388H269.952V253.144C270.176 252.872 270.46 252.66 270.804 252.508C271.156 252.356 271.528 252.28 271.92 252.28ZM275.921 255.688C275.921 255.008 276.057 254.412 276.329 253.9C276.609 253.38 276.993 252.98 277.481 252.7C277.969 252.42 278.529 252.28 279.161 252.28C279.961 252.28 280.621 252.472 281.141 252.856C281.669 253.232 282.025 253.772 282.209 254.476H280.733C280.613 254.148 280.421 253.892 280.157 253.708C279.893 253.524 279.561 253.432 279.161 253.432C278.601 253.432 278.153 253.632 277.817 254.032C277.489 254.424 277.325 254.976 277.325 255.688C277.325 256.4 277.489 256.956 277.817 257.356C278.153 257.756 278.601 257.956 279.161 257.956C279.953 257.956 280.477 257.608 280.733 256.912H282.209C282.017 257.584 281.657 258.12 281.129 258.52C280.601 258.912 279.945 259.108 279.161 259.108C278.529 259.108 277.969 258.968 277.481 258.688C276.993 258.4 276.609 258 276.329 257.488C276.057 256.968 275.921 256.368 275.921 255.688ZM289.632 255.532C289.632 255.78 289.616 256.004 289.584 256.204H284.532C284.572 256.732 284.768 257.156 285.12 257.476C285.472 257.796 285.904 257.956 286.416 257.956C287.152 257.956 287.672 257.648 287.976 257.032H289.452C289.252 257.64 288.888 258.14 288.36 258.532C287.84 258.916 287.192 259.108 286.416 259.108C285.784 259.108 285.216 258.968 284.712 258.688C284.216 258.4 283.824 258 283.536 257.488C283.256 256.968 283.116 256.368 283.116 255.688C283.116 255.008 283.252 254.412 283.524 253.9C283.804 253.38 284.192 252.98 284.688 252.7C285.192 252.42 285.768 252.28 286.416 252.28C287.04 252.28 287.596 252.416 288.084 252.688C288.572 252.96 288.952 253.344 289.224 253.84C289.496 254.328 289.632 254.892 289.632 255.532ZM288.204 255.1C288.196 254.596 288.016 254.192 287.664 253.888C287.312 253.584 286.876 253.432 286.356 253.432C285.884 253.432 285.48 253.584 285.144 253.888C284.808 254.184 284.608 254.588 284.544 255.1H288.204ZM293.735 251.5V250.252H296.231V259H294.851V251.5H293.735ZM297.943 257.176V256.144L301.975 250.36H303.631V255.988H304.747V257.176H303.631V259H302.287V257.176H297.943ZM302.347 251.752L299.515 255.988H302.347V251.752ZM307.584 256.624C307.664 257.024 307.836 257.328 308.1 257.536C308.364 257.744 308.72 257.848 309.168 257.848C309.736 257.848 310.152 257.624 310.416 257.176C310.68 256.728 310.812 255.964 310.812 254.884C310.62 255.156 310.348 255.368 309.996 255.52C309.652 255.664 309.276 255.736 308.868 255.736C308.348 255.736 307.876 255.632 307.452 255.424C307.028 255.208 306.692 254.892 306.444 254.476C306.204 254.052 306.084 253.54 306.084 252.94C306.084 252.06 306.34 251.36 306.852 250.84C307.372 250.312 308.084 250.048 308.988 250.048C310.076 250.048 310.848 250.412 311.304 251.14C311.768 251.86 312 252.968 312 254.464C312 255.496 311.912 256.34 311.736 256.996C311.568 257.652 311.272 258.148 310.848 258.484C310.424 258.82 309.836 258.988 309.084 258.988C308.228 258.988 307.568 258.764 307.104 258.316C306.64 257.868 306.38 257.304 306.324 256.624H307.584ZM309.108 254.584C309.588 254.584 309.964 254.436 310.236 254.14C310.516 253.836 310.656 253.436 310.656 252.94C310.656 252.388 310.508 251.96 310.212 251.656C309.924 251.344 309.528 251.188 309.024 251.188C308.52 251.188 308.12 251.348 307.824 251.668C307.536 251.98 307.392 252.392 307.392 252.904C307.392 253.392 307.532 253.796 307.812 254.116C308.1 254.428 308.532 254.584 309.108 254.584ZM315.201 256.624C315.281 257.024 315.453 257.328 315.717 257.536C315.981 257.744 316.337 257.848 316.785 257.848C317.353 257.848 317.769 257.624 318.033 257.176C318.297 256.728 318.429 255.964 318.429 254.884C318.237 255.156 317.965 255.368 317.613 255.52C317.269 255.664 316.893 255.736 316.485 255.736C315.965 255.736 315.493 255.632 315.069 255.424C314.645 255.208 314.309 254.892 314.061 254.476C313.821 254.052 313.701 253.54 313.701 252.94C313.701 252.06 313.957 251.36 314.469 250.84C314.989 250.312 315.701 250.048 316.605 250.048C317.693 250.048 318.465 250.412 318.921 251.14C319.385 251.86 319.617 252.968 319.617 254.464C319.617 255.496 319.529 256.34 319.353 256.996C319.185 257.652 318.889 258.148 318.465 258.484C318.041 258.82 317.453 258.988 316.701 258.988C315.845 258.988 315.185 258.764 314.721 258.316C314.257 257.868 313.997 257.304 313.941 256.624H315.201ZM316.725 254.584C317.205 254.584 317.581 254.436 317.853 254.14C318.133 253.836 318.273 253.436 318.273 252.94C318.273 252.388 318.125 251.96 317.829 251.656C317.541 251.344 317.145 251.188 316.641 251.188C316.137 251.188 315.737 251.348 315.441 251.668C315.153 251.98 315.009 252.392 315.009 252.904C315.009 253.392 315.149 253.796 315.429 254.116C315.717 254.428 316.149 254.584 316.725 254.584ZM321.455 259.06C321.281 259.06 321.135 259 321.015 258.88C320.895 258.76 320.835 258.613 320.835 258.44C320.835 258.267 320.895 258.12 321.015 258C321.135 257.88 321.281 257.82 321.455 257.82C321.621 257.82 321.761 257.88 321.875 258C321.995 258.12 322.055 258.267 322.055 258.44C322.055 258.613 321.995 258.76 321.875 258.88C321.761 259 321.621 259.06 321.455 259.06ZM324.284 257.06C324.351 257.44 324.504 257.733 324.744 257.94C324.991 258.147 325.321 258.25 325.734 258.25C326.287 258.25 326.694 258.033 326.954 257.6C327.221 257.167 327.347 256.437 327.334 255.41C327.194 255.71 326.961 255.947 326.634 256.12C326.307 256.287 325.944 256.37 325.544 256.37C325.097 256.37 324.697 256.28 324.344 256.1C323.997 255.913 323.724 255.643 323.524 255.29C323.324 254.937 323.224 254.51 323.224 254.01C323.224 253.297 323.431 252.723 323.844 252.29C324.257 251.85 324.844 251.63 325.604 251.63C326.537 251.63 327.191 251.933 327.564 252.54C327.944 253.147 328.134 254.05 328.134 255.25C328.134 256.09 328.057 256.783 327.904 257.33C327.757 257.877 327.504 258.293 327.144 258.58C326.791 258.867 326.304 259.01 325.684 259.01C325.004 259.01 324.474 258.827 324.094 258.46C323.714 258.093 323.497 257.627 323.444 257.06H324.284ZM325.694 255.6C326.141 255.6 326.507 255.463 326.794 255.19C327.081 254.91 327.224 254.533 327.224 254.06C327.224 253.56 327.084 253.157 326.804 252.85C326.524 252.543 326.131 252.39 325.624 252.39C325.157 252.39 324.784 252.537 324.504 252.83C324.231 253.123 324.094 253.51 324.094 253.99C324.094 254.477 324.231 254.867 324.504 255.16C324.777 255.453 325.174 255.6 325.694 255.6ZM330.583 257.06C330.65 257.44 330.803 257.733 331.043 257.94C331.29 258.147 331.62 258.25 332.033 258.25C332.586 258.25 332.993 258.033 333.253 257.6C333.52 257.167 333.646 256.437 333.633 255.41C333.493 255.71 333.26 255.947 332.933 256.12C332.606 256.287 332.243 256.37 331.843 256.37C331.396 256.37 330.996 256.28 330.643 256.1C330.296 255.913 330.023 255.643 329.823 255.29C329.623 254.937 329.523 254.51 329.523 254.01C329.523 253.297 329.73 252.723 330.143 252.29C330.556 251.85 331.143 251.63 331.903 251.63C332.836 251.63 333.49 251.933 333.863 252.54C334.243 253.147 334.433 254.05 334.433 255.25C334.433 256.09 334.356 256.783 334.203 257.33C334.056 257.877 333.803 258.293 333.443 258.58C333.09 258.867 332.603 259.01 331.983 259.01C331.303 259.01 330.773 258.827 330.393 258.46C330.013 258.093 329.796 257.627 329.743 257.06H330.583ZM331.993 255.6C332.44 255.6 332.806 255.463 333.093 255.19C333.38 254.91 333.523 254.533 333.523 254.06C333.523 253.56 333.383 253.157 333.103 252.85C332.823 252.543 332.43 252.39 331.923 252.39C331.456 252.39 331.083 252.537 330.803 252.83C330.53 253.123 330.393 253.51 330.393 253.99C330.393 254.477 330.53 254.867 330.803 255.16C331.076 255.453 331.473 255.6 331.993 255.6ZM336.882 257.06C336.948 257.44 337.102 257.733 337.342 257.94C337.588 258.147 337.918 258.25 338.332 258.25C338.885 258.25 339.292 258.033 339.552 257.6C339.818 257.167 339.945 256.437 339.932 255.41C339.792 255.71 339.558 255.947 339.232 256.12C338.905 256.287 338.542 256.37 338.142 256.37C337.695 256.37 337.295 256.28 336.942 256.1C336.595 255.913 336.322 255.643 336.122 255.29C335.922 254.937 335.822 254.51 335.822 254.01C335.822 253.297 336.028 252.723 336.442 252.29C336.855 251.85 337.442 251.63 338.202 251.63C339.135 251.63 339.788 251.933 340.162 252.54C340.542 253.147 340.732 254.05 340.732 255.25C340.732 256.09 340.655 256.783 340.502 257.33C340.355 257.877 340.102 258.293 339.742 258.58C339.388 258.867 338.902 259.01 338.282 259.01C337.602 259.01 337.072 258.827 336.692 258.46C336.312 258.093 336.095 257.627 336.042 257.06H336.882ZM338.292 255.6C338.738 255.6 339.105 255.463 339.392 255.19C339.678 254.91 339.822 254.533 339.822 254.06C339.822 253.56 339.682 253.157 339.402 252.85C339.122 252.543 338.728 252.39 338.222 252.39C337.755 252.39 337.382 252.537 337.102 252.83C336.828 253.123 336.692 253.51 336.692 253.99C336.692 254.477 336.828 254.867 337.102 255.16C337.375 255.453 337.772 255.6 338.292 255.6ZM345.9 256L344.178 254.092V256H343.632V251.818H344.178V253.756L345.906 251.818H346.596L344.7 253.912L346.614 256H345.9ZM352.66 251.818L351.448 256H350.836L349.864 252.634L348.856 256L348.25 256.006L347.08 251.818H347.662L348.574 255.364L349.582 251.818H350.194L351.154 255.352L352.072 251.818H352.66ZM354.74 251.818C355.196 251.818 355.59 251.904 355.922 252.076C356.258 252.244 356.514 252.486 356.69 252.802C356.87 253.118 356.96 253.49 356.96 253.918C356.96 254.346 356.87 254.718 356.69 255.034C356.514 255.346 356.258 255.586 355.922 255.754C355.59 255.918 355.196 256 354.74 256H353.438V251.818H354.74ZM354.74 255.55C355.28 255.55 355.692 255.408 355.976 255.124C356.26 254.836 356.402 254.434 356.402 253.918C356.402 253.398 356.258 252.992 355.97 252.7C355.686 252.408 355.276 252.262 354.74 252.262H353.984V255.55H354.74Z" fill="#898E94"/>
<path d="M195 302.5C201.498 302.5 207.729 305.081 212.324 309.676C216.919 314.271 219.5 320.502 219.5 327C219.5 333.498 216.919 339.729 212.324 344.324C207.729 348.919 201.498 351.5 195 351.5C188.502 351.5 182.271 348.919 177.676 344.324C173.081 339.729 170.5 333.498 170.5 327C170.5 320.502 173.081 314.271 177.676 309.676C182.271 305.081 188.502 302.5 195 302.5ZM191.948 331.833L186.505 326.387C186.31 326.192 186.079 326.038 185.824 325.932C185.569 325.826 185.296 325.772 185.02 325.772C184.744 325.772 184.471 325.826 184.216 325.932C183.961 326.038 183.729 326.192 183.534 326.387C183.14 326.782 182.919 327.316 182.919 327.873C182.919 328.431 183.14 328.965 183.534 329.359L190.464 336.289C190.659 336.485 190.89 336.641 191.145 336.747C191.4 336.853 191.674 336.908 191.95 336.908C192.226 336.908 192.499 336.853 192.754 336.747C193.009 336.641 193.241 336.485 193.435 336.289L207.785 321.935C207.983 321.741 208.141 321.51 208.248 321.254C208.356 320.999 208.412 320.725 208.414 320.447C208.415 320.17 208.361 319.896 208.256 319.639C208.15 319.383 207.995 319.15 207.799 318.954C207.603 318.758 207.371 318.602 207.114 318.496C206.858 318.391 206.583 318.337 206.306 318.338C206.029 318.339 205.755 318.395 205.499 318.502C205.244 318.609 205.012 318.767 204.818 318.964L191.948 331.833Z" fill="#219653"/>
<rect width="390" height="24" transform="translate(0 371)" fill="white"/>
<rect x="127" y="382" width="135" height="5" rx="2.5" fill="#373737"/>
<defs>
<filter id="filter0_dd_76_54" x="127" y="221" width="46" height="46" filterUnits="userSpaceOnUse" color-interpolation-filters="sRGB">
<feFlood flood-opacity="0" result="BackgroundImageFix"/>
<feColorMatrix in="SourceAlpha" type="matrix" values="0 0 0 0 0 0 0 0 0 0 0 0 0 0 0 0 0 0 127 0" result="hardAlpha"/>
<feMorphology radius="1" operator="dilate" in="SourceAlpha" result="effect1_dropShadow_76_54"/>
<feOffset dy="1"/>
<feGaussianBlur stdDeviation="1.5"/>
<feColorMatrix type="matrix" values="0 0 0 0 0 0 0 0 0 0 0 0 0 0 0 0 0 0 0.15 0"/>
<feBlend mode="normal" in2="BackgroundImageFix" result="effect1_dropShadow_76_54"/>
<feColorMatrix in="SourceAlpha" type="matrix" values="0 0 0 0 0 0 0 0 0 0 0 0 0 0 0 0 0 0 127 0" result="hardAlpha"/>
<feOffset dy="1"/>
<feGaussianBlur stdDeviation="1"/>
<feColorMatrix type="matrix" values="0 0 0 0 0 0 0 0 0 0 0 0 0 0 0 0 0 0 0.3 0"/>
<feBlend mode="normal" in2="effect1_dropShadow_76_54" result="effect2_dropShadow_76_54"/>
<feBlend mode="normal" in="SourceGraphic" in2="effect2_dropShadow_76_54" result="shape"/>
</filter>
</defs>
</svg>