<svg width="390" height="844" viewBox="0 0 390 844" fill="none" xmlns="http://www.w3.org/2000/svg">
<g clip-path="url(#clip0_77_167)">
<rect width="390" height="844" fill="white"/>
<g clip-path="url(#clip1_77_167)">
<rect width="390" height="560" fill="#2F5711"/>
<rect width="390" height="44" transform="translate(0.143555)" fill="#2F5711"/>
<path d="M19.5186 26.5156H19.6748C20.3936 26.5156 20.9925 26.4219 21.4717 26.2344C21.9561 26.0417 22.3415 25.776 22.6279 25.4375C22.9144 25.099 23.1201 24.7005 23.2451 24.2422C23.3701 23.7839 23.4326 23.2865 23.4326 22.75V20.7891C23.4326 20.3255 23.3831 19.9193 23.2842 19.5703C23.1904 19.2161 23.055 18.9219 22.8779 18.6875C22.7061 18.4479 22.5055 18.2682 22.2764 18.1484C22.0524 18.0286 21.8102 17.9688 21.5498 17.9688C21.2633 17.9688 21.0055 18.0339 20.7764 18.1641C20.5524 18.2891 20.3623 18.4635 20.2061 18.6875C20.055 18.9062 19.9378 19.1641 19.8545 19.4609C19.7764 19.7526 19.7373 20.0651 19.7373 20.3984C19.7373 20.7109 19.7738 21.013 19.8467 21.3047C19.9248 21.5911 20.0394 21.8464 20.1904 22.0703C20.3415 22.2943 20.5316 22.4714 20.7607 22.6016C20.9899 22.7318 21.2581 22.7969 21.5654 22.7969C21.8571 22.7969 22.1253 22.7422 22.3701 22.6328C22.6149 22.5182 22.8285 22.3646 23.0107 22.1719C23.193 21.9792 23.3363 21.763 23.4404 21.5234C23.5446 21.2839 23.6019 21.0391 23.6123 20.7891L24.3311 21.0078C24.3311 21.4036 24.2477 21.7943 24.0811 22.1797C23.9196 22.5599 23.693 22.9089 23.4014 23.2266C23.1149 23.5391 22.779 23.7891 22.3936 23.9766C22.0133 24.1641 21.5993 24.2578 21.1514 24.2578C20.6097 24.2578 20.1305 24.1562 19.7139 23.9531C19.3024 23.7448 18.9587 23.4635 18.6826 23.1094C18.4118 22.7552 18.2087 22.349 18.0732 21.8906C17.9378 21.4323 17.8701 20.9505 17.8701 20.4453C17.8701 19.8984 17.9535 19.3854 18.1201 18.9062C18.2868 18.4271 18.529 18.0052 18.8467 17.6406C19.1644 17.2708 19.5498 16.9844 20.0029 16.7812C20.4613 16.5729 20.9795 16.4688 21.5576 16.4688C22.1722 16.4688 22.7113 16.5885 23.1748 16.8281C23.6383 17.0677 24.029 17.3984 24.3467 17.8203C24.6644 18.2422 24.904 18.7318 25.0654 19.2891C25.2269 19.8464 25.3076 20.4453 25.3076 21.0859V21.75C25.3076 22.4219 25.2477 23.0703 25.1279 23.6953C25.0081 24.3151 24.8128 24.8906 24.542 25.4219C24.2764 25.9479 23.9248 26.4115 23.4873 26.8125C23.055 27.2083 22.5238 27.5182 21.8936 27.7422C21.2686 27.9609 20.5342 28.0703 19.6904 28.0703H19.5186V26.5156ZM27.2295 27.0625C27.2295 26.7708 27.3285 26.526 27.5264 26.3281C27.7243 26.125 27.9925 26.0234 28.3311 26.0234C28.6748 26.0234 28.943 26.125 29.1357 26.3281C29.3337 26.526 29.4326 26.7708 29.4326 27.0625C29.4326 27.3542 29.3337 27.599 29.1357 27.7969C28.943 27.9948 28.6748 28.0938 28.3311 28.0938C27.9925 28.0938 27.7243 27.9948 27.5264 27.7969C27.3285 27.599 27.2295 27.3542 27.2295 27.0625ZM27.2373 20.4062C27.2373 20.1146 27.3363 19.8698 27.5342 19.6719C27.7321 19.4688 28.0003 19.3672 28.3389 19.3672C28.6826 19.3672 28.9508 19.4688 29.1436 19.6719C29.3415 19.8698 29.4404 20.1146 29.4404 20.4062C29.4404 20.6979 29.3415 20.9427 29.1436 21.1406C28.9508 21.3385 28.6826 21.4375 28.3389 21.4375C28.0003 21.4375 27.7321 21.3385 27.5342 21.1406C27.3363 20.9427 27.2373 20.6979 27.2373 20.4062ZM39.1514 23.9453V25.4453H30.9482L30.8857 24.3125L35.792 16.625H37.2998L35.667 19.4219L32.8467 23.9453H39.1514ZM37.7295 16.625V28H35.8467V16.625H37.7295ZM45.5498 16.5859V28H43.667V18.8203L40.8779 19.7656V18.2109L45.3232 16.5859H45.5498Z" fill="#F2F2F2"/>
<path d="M361.054 17.1602C362.302 17.1602 362.755 17.2902 363.211 17.5342C363.667 17.7782 364.026 18.1365 364.27 18.5928C364.513 19.049 364.644 19.502 364.644 20.75V25.0703C364.644 26.3183 364.513 26.7713 364.27 27.2275C364.026 27.6838 363.667 28.0421 363.211 28.2861C362.755 28.5301 362.302 28.6601 361.054 28.6602H346.233C344.985 28.6602 344.532 28.5301 344.076 28.2861C343.62 28.0421 343.262 27.6838 343.018 27.2275C342.774 26.7713 342.644 26.3183 342.644 25.0703V20.75C342.644 19.502 342.774 19.049 343.018 18.5928C343.262 18.1365 343.62 17.7782 344.076 17.5342C344.532 17.2902 344.985 17.1602 346.233 17.1602H361.054ZM346.233 18.1602C345.247 18.1602 344.902 18.2269 344.548 18.416C344.266 18.5668 344.05 18.7824 343.899 19.0645C343.71 19.4183 343.644 19.7632 343.644 20.75V25.0703C343.644 26.0571 343.71 26.402 343.899 26.7559C344.05 27.0379 344.266 27.2535 344.548 27.4043C344.902 27.5934 345.247 27.6602 346.233 27.6602H361.054C362.04 27.6602 362.385 27.5935 362.739 27.4043C363.021 27.2535 363.237 27.0379 363.388 26.7559C363.577 26.4021 363.644 26.0571 363.644 25.0703V20.75C363.644 19.7632 363.577 19.4183 363.388 19.0645C363.237 18.7824 363.021 18.5668 362.739 18.416C362.385 18.2268 362.04 18.1602 361.054 18.1602H346.233ZM365.644 20.8516C365.644 20.8516 367.144 21.615 367.144 22.8516C367.144 24.0881 365.644 24.8516 365.644 24.8516V20.8516Z" fill="#F2F2F2"/>
<rect x="344.644" y="19.0762" width="18" height="7.66667" rx="1.6" fill="#F2F2F2"/>
<path d="M306.445 22.3008C306.723 22.3008 306.862 22.3012 306.978 22.3242C307.454 22.4189 307.827 22.7906 307.921 23.2666C307.944 23.3825 307.945 23.522 307.945 23.8008V26.8008C307.945 27.0796 307.944 27.219 307.921 27.335C307.827 27.811 307.454 28.1827 306.978 28.2773C306.862 28.3003 306.723 28.3008 306.445 28.3008C306.166 28.3008 306.026 28.3003 305.911 28.2773C305.435 28.1827 305.062 27.811 304.967 27.335C304.944 27.219 304.945 27.0796 304.945 26.8008V23.8008C304.945 23.522 304.944 23.3825 304.967 23.2666C305.062 22.7906 305.435 22.4189 305.911 22.3242C306.026 22.3012 306.166 22.3008 306.445 22.3008ZM311.044 20C311.323 20 311.462 20.0005 311.578 20.0234C312.054 20.1181 312.426 20.4898 312.521 20.9658C312.544 21.0817 312.544 21.2212 312.544 21.5V26.7998C312.544 27.0785 312.544 27.2181 312.521 27.334C312.426 27.81 312.054 28.1827 311.578 28.2773C311.462 28.3003 311.323 28.2998 311.044 28.2998C310.766 28.2998 310.626 28.3003 310.51 28.2773C310.034 28.1827 309.662 27.81 309.567 27.334C309.544 27.2181 309.544 27.0785 309.544 26.7998V21.5C309.544 21.2212 309.544 21.0817 309.567 20.9658C309.662 20.4898 310.034 20.1181 310.51 20.0234C310.626 20.0004 310.766 20 311.044 20ZM315.744 17.5996C316.022 17.5996 316.161 17.6001 316.277 17.623C316.753 17.7177 317.126 18.0894 317.22 18.5654C317.243 18.6813 317.244 18.8208 317.244 19.0996V26.7998C317.244 27.0785 317.243 27.2181 317.22 27.334C317.125 27.8099 316.753 28.1817 316.277 28.2764C316.161 28.2993 316.022 28.2998 315.744 28.2998C315.465 28.2998 315.325 28.2994 315.209 28.2764C314.734 28.1817 314.361 27.8099 314.266 27.334C314.243 27.2181 314.244 27.0785 314.244 26.7998V19.0996C314.244 18.8208 314.243 18.6813 314.266 18.5654C314.361 18.0894 314.733 17.7177 315.209 17.623C315.325 17.6001 315.465 17.5996 315.744 17.5996ZM301.644 24.2988C301.922 24.2988 302.061 24.2993 302.177 24.3223C302.653 24.417 303.026 24.7886 303.121 25.2646C303.144 25.3806 303.144 25.52 303.144 25.7988V26.7988C303.144 27.0776 303.144 27.2171 303.121 27.333C303.026 27.809 302.653 28.1807 302.177 28.2754C302.061 28.2984 301.922 28.2988 301.644 28.2988C301.366 28.2988 301.226 28.2984 301.11 28.2754C300.634 28.1807 300.261 27.809 300.167 27.333C300.143 27.2171 300.144 27.0776 300.144 26.7988V25.7988C300.144 25.52 300.143 25.3806 300.167 25.2646C300.261 24.7886 300.634 24.417 301.11 24.3223C301.226 24.2993 301.366 24.2988 301.644 24.2988Z" fill="#F2F2F2"/>
<path fill-rule="evenodd" clip-rule="evenodd" d="M329.944 19.6968C332.178 19.6968 334.327 20.5554 335.946 22.095C336.068 22.2138 336.263 22.2123 336.383 22.0916L337.549 20.9152C337.61 20.854 337.644 20.771 337.643 20.6847C337.643 20.5984 337.608 20.5159 337.546 20.4554C333.296 16.3821 326.591 16.3821 322.34 20.4554C322.279 20.5158 322.244 20.5984 322.243 20.6846C322.243 20.7709 322.276 20.8539 322.337 20.9152L323.503 22.0916C323.623 22.2125 323.818 22.214 323.94 22.095C325.56 20.5553 327.709 19.6967 329.944 19.6968V19.6968ZM329.944 23.5246C331.171 23.5245 332.355 23.9808 333.265 24.8048C333.388 24.9218 333.582 24.9193 333.702 24.7991L334.866 23.6227C334.928 23.561 334.962 23.4773 334.961 23.3903C334.96 23.3033 334.924 23.2203 334.862 23.1599C332.091 20.5821 327.799 20.5821 325.028 23.1599C324.965 23.2203 324.93 23.3034 324.929 23.3904C324.928 23.4774 324.962 23.5611 325.023 23.6227L326.187 24.7991C326.307 24.9193 326.501 24.9218 326.624 24.8048C327.534 23.9813 328.717 23.5251 329.944 23.5246V23.5246ZM332.18 26.3314C332.243 26.2703 332.277 26.1862 332.275 26.099C332.273 26.0118 332.236 25.9291 332.171 25.8706C330.885 24.7827 329.001 24.7827 327.715 25.8706C327.65 25.9291 327.612 26.0117 327.61 26.0989C327.609 26.1861 327.643 26.2703 327.705 26.3314L329.719 28.3639C329.778 28.4237 329.859 28.4573 329.943 28.4573C330.027 28.4573 330.107 28.4237 330.166 28.3639L332.18 26.3314Z" fill="#F2F2F2"/>
<rect width="390" height="56" transform="translate(0 48)" fill="#2F5711"/>
<path d="M21.3117 76.8639L23.7284 79.3693C23.8812 79.5277 23.9576 79.7293 23.9576 79.9741C23.9576 80.2189 23.8812 80.4204 23.7284 80.5788C23.5756 80.7372 23.3812 80.8164 23.1451 80.8164C22.9089 80.8164 22.7145 80.7372 22.5617 80.5788L18.7284 76.6048C18.6451 76.5184 18.5859 76.4248 18.5509 76.324C18.5159 76.2232 18.4989 76.1152 18.5001 76C18.5012 75.8848 18.5187 75.7768 18.5526 75.676C18.5864 75.5752 18.6453 75.4816 18.7292 75.3952L22.5626 71.4212C22.7153 71.2628 22.9098 71.1836 23.1459 71.1836C23.382 71.1836 23.5764 71.2628 23.7292 71.4212C23.882 71.5796 23.9584 71.7811 23.9584 72.0259C23.9584 72.2707 23.882 72.4723 23.7292 72.6307L21.3117 75.1361H32.3117C32.5478 75.1361 32.7459 75.219 32.9059 75.3849C33.0659 75.5508 33.1456 75.7558 33.1451 76C33.1445 76.2442 33.0645 76.4495 32.9051 76.616C32.7456 76.7824 32.5478 76.8651 32.3117 76.8639H21.3117Z" fill="white"/>
<path d="M359 77.6667C358.542 77.6667 358.15 77.5036 357.823 77.1775C357.497 76.8514 357.334 76.4589 357.333 76C357.333 75.5411 357.496 75.1489 357.823 74.8233C358.151 74.4978 358.543 74.3344 359 74.3333C359.457 74.3322 359.85 74.4956 360.178 74.8233C360.505 75.1511 360.668 75.5433 360.667 76C360.665 76.4567 360.502 76.8492 360.178 77.1775C359.853 77.5058 359.461 77.6689 359 77.6667ZM364 77.6667C363.542 77.6667 363.15 77.5036 362.823 77.1775C362.497 76.8514 362.334 76.4589 362.333 76C362.333 75.5411 362.496 75.1489 362.823 74.8233C363.151 74.4978 363.543 74.3344 364 74.3333C364.457 74.3322 364.85 74.4956 365.178 74.8233C365.505 75.1511 365.668 75.5433 365.667 76C365.665 76.4567 365.502 76.8492 365.178 77.1775C364.853 77.5058 364.461 77.6689 364 77.6667ZM369 77.6667C368.542 77.6667 368.15 77.5036 367.823 77.1775C367.497 76.8514 367.334 76.4589 367.333 76C367.333 75.5411 367.496 75.1489 367.823 74.8233C368.151 74.4978 368.543 74.3344 369 74.3333C369.457 74.3322 369.85 74.4956 370.178 74.8233C370.505 75.1511 370.668 75.5433 370.667 76C370.665 76.4567 370.502 76.8492 370.178 77.1775C369.853 77.5058 369.461 77.6689 369 77.6667Z" fill="white"/>
</g>
<path d="M0 524C0 515.163 7.16344 508 16 508H374C382.837 508 390 515.163 390 524V844H0V524Z" fill="#F7FBFF"/>
<rect x="16.5" y="576.5" width="357" height="79" rx="7.5" fill="white"/>
<rect x="16.5" y="576.5" width="357" height="79" rx="7.5" stroke="#F2F2F2"/>
<rect x="32" y="594" width="44" height="44" rx="4" fill="#F2DDD9"/>
<path d="M54.46 611.624V620H52.78V614.552L50.536 620H49.264L47.008 614.552V620H45.328V611.624H47.236L49.9 617.852L52.564 611.624H54.46ZM62.229 614.216C62.229 614.664 62.121 615.084 61.905 615.476C61.697 615.868 61.365 616.184 60.909 616.424C60.461 616.664 59.893 616.784 59.205 616.784H57.801V620H56.121V611.624H59.205C59.853 611.624 60.405 611.736 60.861 611.96C61.317 612.184 61.657 612.492 61.881 612.884C62.113 613.276 62.229 613.72 62.229 614.216ZM59.133 615.428C59.597 615.428 59.941 615.324 60.165 615.116C60.389 614.9 60.501 614.6 60.501 614.216C60.501 613.4 60.045 612.992 59.133 612.992H57.801V615.428H59.133Z" fill="#843A2C"/>
<path d="M100.912 609.88V621H99.088V613.384L95.696 621H94.432L91.024 613.384V621H89.2V609.88H91.168L95.072 618.6L98.96 609.88H100.912ZM102.701 616.552C102.701 615.667 102.883 614.883 103.245 614.2C103.619 613.517 104.12 612.989 104.749 612.616C105.389 612.232 106.093 612.04 106.861 612.04C107.555 612.04 108.157 612.179 108.669 612.456C109.192 612.723 109.608 613.059 109.917 613.464V612.184H111.757V621H109.917V619.688C109.608 620.104 109.187 620.451 108.653 620.728C108.12 621.005 107.512 621.144 106.829 621.144C106.072 621.144 105.379 620.952 104.749 620.568C104.12 620.173 103.619 619.629 103.245 618.936C102.883 618.232 102.701 617.437 102.701 616.552ZM109.917 616.584C109.917 615.976 109.789 615.448 109.533 615C109.288 614.552 108.963 614.211 108.557 613.976C108.152 613.741 107.715 613.624 107.245 613.624C106.776 613.624 106.339 613.741 105.933 613.976C105.528 614.2 105.197 614.536 104.941 614.984C104.696 615.421 104.573 615.944 104.573 616.552C104.573 617.16 104.696 617.693 104.941 618.152C105.197 618.611 105.528 618.963 105.933 619.208C106.349 619.443 106.787 619.56 107.245 619.56C107.715 619.56 108.152 619.443 108.557 619.208C108.963 618.973 109.288 618.632 109.533 618.184C109.789 617.725 109.917 617.192 109.917 616.584ZM115.977 609.16V621H114.153V609.16H115.977ZM120.196 609.16V621H118.372V609.16H120.196ZM134.523 613.192C134.523 613.757 134.39 614.291 134.123 614.792C133.856 615.293 133.43 615.704 132.843 616.024C132.256 616.333 131.504 616.488 130.587 616.488H128.571V621H126.747V609.88H130.587C131.44 609.88 132.16 610.029 132.747 610.328C133.344 610.616 133.787 611.011 134.075 611.512C134.374 612.013 134.523 612.573 134.523 613.192ZM130.587 615C131.28 615 131.798 614.845 132.139 614.536C132.48 614.216 132.651 613.768 132.651 613.192C132.651 611.976 131.963 611.368 130.587 611.368H128.571V615H130.587ZM135.655 616.552C135.655 615.667 135.836 614.883 136.199 614.2C136.572 613.517 137.073 612.989 137.703 612.616C138.343 612.232 139.047 612.04 139.815 612.04C140.508 612.04 141.111 612.179 141.623 612.456C142.145 612.723 142.561 613.059 142.871 613.464V612.184H144.711V621H142.871V619.688C142.561 620.104 142.14 620.451 141.607 620.728C141.073 621.005 140.465 621.144 139.783 621.144C139.025 621.144 138.332 620.952 137.703 620.568C137.073 620.173 136.572 619.629 136.199 618.936C135.836 618.232 135.655 617.437 135.655 616.552ZM142.871 616.584C142.871 615.976 142.743 615.448 142.487 615C142.241 614.552 141.916 614.211 141.511 613.976C141.105 613.741 140.668 613.624 140.199 613.624C139.729 613.624 139.292 613.741 138.887 613.976C138.481 614.2 138.151 614.536 137.895 614.984C137.649 615.421 137.527 615.944 137.527 616.552C137.527 617.16 137.649 617.693 137.895 618.152C138.151 618.611 138.481 618.963 138.887 619.208C139.303 619.443 139.74 619.56 140.199 619.56C140.668 619.56 141.105 619.443 141.511 619.208C141.916 618.973 142.241 618.632 142.487 618.184C142.743 617.725 142.871 617.192 142.871 616.584ZM148.93 613.464C149.197 613.016 149.549 612.669 149.986 612.424C150.434 612.168 150.962 612.04 151.57 612.04V613.928H151.106C150.392 613.928 149.848 614.109 149.474 614.472C149.112 614.835 148.93 615.464 148.93 616.36V621H147.106V612.184H148.93V613.464ZM156.735 616.6L160.799 621H158.335L155.071 617.208V621H153.247V609.16H155.071V616.04L158.271 612.184H160.799L156.735 616.6ZM163.034 611.016C162.704 611.016 162.426 610.904 162.202 610.68C161.978 610.456 161.866 610.179 161.866 609.848C161.866 609.517 161.978 609.24 162.202 609.016C162.426 608.792 162.704 608.68 163.034 608.68C163.354 608.68 163.626 608.792 163.85 609.016C164.074 609.24 164.186 609.517 164.186 609.848C164.186 610.179 164.074 610.456 163.85 610.68C163.626 610.904 163.354 611.016 163.034 611.016ZM163.93 612.184V621H162.106V612.184H163.93ZM170.773 612.04C171.466 612.04 172.085 612.184 172.629 612.472C173.184 612.76 173.616 613.187 173.925 613.752C174.234 614.317 174.389 615 174.389 615.8V621H172.581V616.072C172.581 615.283 172.384 614.68 171.989 614.264C171.594 613.837 171.056 613.624 170.373 613.624C169.69 613.624 169.146 613.837 168.741 614.264C168.346 614.68 168.149 615.283 168.149 616.072V621H166.325V612.184H168.149V613.192C168.448 612.829 168.826 612.547 169.285 612.344C169.754 612.141 170.25 612.04 170.773 612.04ZM180.268 612.04C180.95 612.04 181.553 612.179 182.076 612.456C182.609 612.723 183.025 613.059 183.324 613.464V612.184H185.164V621.144C185.164 621.955 184.993 622.675 184.652 623.304C184.31 623.944 183.814 624.445 183.164 624.808C182.524 625.171 181.756 625.352 180.86 625.352C179.665 625.352 178.673 625.069 177.884 624.504C177.094 623.949 176.646 623.192 176.54 622.232H178.348C178.486 622.691 178.78 623.059 179.228 623.336C179.686 623.624 180.23 623.768 180.86 623.768C181.596 623.768 182.188 623.544 182.636 623.096C183.094 622.648 183.324 621.997 183.324 621.144V619.672C183.014 620.088 182.593 620.44 182.06 620.728C181.537 621.005 180.94 621.144 180.268 621.144C179.5 621.144 178.796 620.952 178.156 620.568C177.526 620.173 177.025 619.629 176.652 618.936C176.289 618.232 176.108 617.437 176.108 616.552C176.108 615.667 176.289 614.883 176.652 614.2C177.025 613.517 177.526 612.989 178.156 612.616C178.796 612.232 179.5 612.04 180.268 612.04ZM183.324 616.584C183.324 615.976 183.196 615.448 182.94 615C182.694 614.552 182.369 614.211 181.964 613.976C181.558 613.741 181.121 613.624 180.652 613.624C180.182 613.624 179.745 613.741 179.34 613.976C178.934 614.2 178.604 614.536 178.348 614.984C178.102 615.421 177.98 615.944 177.98 616.552C177.98 617.16 178.102 617.693 178.348 618.152C178.604 618.611 178.934 618.963 179.34 619.208C179.756 619.443 180.193 619.56 180.652 619.56C181.121 619.56 181.558 619.443 181.964 619.208C182.369 618.973 182.694 618.632 182.94 618.184C183.196 617.725 183.324 617.192 183.324 616.584Z" fill="#333333"/>
<path d="M281.752 611.27L278.098 621H276.25L272.582 611.27H274.29L277.174 619.362L280.072 611.27H281.752ZM283.899 612.264C283.61 612.264 283.367 612.166 283.171 611.97C282.975 611.774 282.877 611.531 282.877 611.242C282.877 610.953 282.975 610.71 283.171 610.514C283.367 610.318 283.61 610.22 283.899 610.22C284.179 610.22 284.417 610.318 284.613 610.514C284.809 610.71 284.907 610.953 284.907 611.242C284.907 611.531 284.809 611.774 284.613 611.97C284.417 612.166 284.179 612.264 283.899 612.264ZM284.683 613.286V621H283.087V613.286H284.683ZM293.849 616.954C293.849 617.243 293.83 617.505 293.793 617.738H287.899C287.945 618.354 288.174 618.849 288.585 619.222C288.995 619.595 289.499 619.782 290.097 619.782C290.955 619.782 291.562 619.423 291.917 618.704H293.639C293.405 619.413 292.981 619.997 292.365 620.454C291.758 620.902 291.002 621.126 290.097 621.126C289.359 621.126 288.697 620.963 288.109 620.636C287.53 620.3 287.073 619.833 286.737 619.236C286.41 618.629 286.247 617.929 286.247 617.136C286.247 616.343 286.405 615.647 286.723 615.05C287.049 614.443 287.502 613.977 288.081 613.65C288.669 613.323 289.341 613.16 290.097 613.16C290.825 613.16 291.473 613.319 292.043 613.636C292.612 613.953 293.055 614.401 293.373 614.98C293.69 615.549 293.849 616.207 293.849 616.954ZM292.183 616.45C292.173 615.862 291.963 615.391 291.553 615.036C291.142 614.681 290.633 614.504 290.027 614.504C289.476 614.504 289.005 614.681 288.613 615.036C288.221 615.381 287.987 615.853 287.913 616.45H292.183ZM305.779 613.286L303.385 621H301.705L300.151 615.302L298.597 621H296.917L294.509 613.286H296.133L297.743 619.488L299.381 613.286H301.047L302.615 619.46L304.211 613.286H305.779ZM313.787 611.27C314.823 611.27 315.728 611.471 316.503 611.872C317.287 612.264 317.889 612.833 318.309 613.58C318.738 614.317 318.953 615.181 318.953 616.17C318.953 617.159 318.738 618.018 318.309 618.746C317.889 619.474 317.287 620.034 316.503 620.426C315.728 620.809 314.823 621 313.787 621H310.609V611.27H313.787ZM313.787 619.698C314.925 619.698 315.798 619.39 316.405 618.774C317.011 618.158 317.315 617.29 317.315 616.17C317.315 615.041 317.011 614.159 316.405 613.524C315.798 612.889 314.925 612.572 313.787 612.572H312.205V619.698H313.787ZM327.604 616.954C327.604 617.243 327.586 617.505 327.548 617.738H321.654C321.701 618.354 321.93 618.849 322.34 619.222C322.751 619.595 323.255 619.782 323.852 619.782C324.711 619.782 325.318 619.423 325.672 618.704H327.394C327.161 619.413 326.736 619.997 326.12 620.454C325.514 620.902 324.758 621.126 323.852 621.126C323.115 621.126 322.452 620.963 321.864 620.636C321.286 620.3 320.828 619.833 320.492 619.236C320.166 618.629 320.002 617.929 320.002 617.136C320.002 616.343 320.161 615.647 320.478 615.05C320.805 614.443 321.258 613.977 321.836 613.65C322.424 613.323 323.096 613.16 323.852 613.16C324.58 613.16 325.229 613.319 325.798 613.636C326.368 613.953 326.811 614.401 327.128 614.98C327.446 615.549 327.604 616.207 327.604 616.954ZM325.938 616.45C325.929 615.862 325.719 615.391 325.308 615.036C324.898 614.681 324.389 614.504 323.782 614.504C323.232 614.504 322.76 614.681 322.368 615.036C321.976 615.381 321.743 615.853 321.668 616.45H325.938ZM331.037 614.588V618.858C331.037 619.147 331.102 619.357 331.233 619.488C331.373 619.609 331.606 619.67 331.933 619.67H332.913V621H331.653C330.934 621 330.384 620.832 330.001 620.496C329.618 620.16 329.427 619.614 329.427 618.858V614.588H328.517V613.286H329.427V611.368H331.037V613.286H332.913V614.588H331.037ZM333.852 617.108C333.852 616.333 334.011 615.647 334.328 615.05C334.655 614.453 335.093 613.991 335.644 613.664C336.204 613.328 336.82 613.16 337.492 613.16C338.099 613.16 338.626 613.281 339.074 613.524C339.531 613.757 339.895 614.051 340.166 614.406V613.286H341.776V621H340.166V619.852C339.895 620.216 339.527 620.519 339.06 620.762C338.593 621.005 338.061 621.126 337.464 621.126C336.801 621.126 336.195 620.958 335.644 620.622C335.093 620.277 334.655 619.801 334.328 619.194C334.011 618.578 333.852 617.883 333.852 617.108ZM340.166 617.136C340.166 616.604 340.054 616.142 339.83 615.75C339.615 615.358 339.331 615.059 338.976 614.854C338.621 614.649 338.239 614.546 337.828 614.546C337.417 614.546 337.035 614.649 336.68 614.854C336.325 615.05 336.036 615.344 335.812 615.736C335.597 616.119 335.49 616.576 335.49 617.108C335.49 617.64 335.597 618.107 335.812 618.508C336.036 618.909 336.325 619.217 336.68 619.432C337.044 619.637 337.427 619.74 337.828 619.74C338.239 619.74 338.621 619.637 338.976 619.432C339.331 619.227 339.615 618.928 339.83 618.536C340.054 618.135 340.166 617.668 340.166 617.136ZM344.684 612.264C344.395 612.264 344.152 612.166 343.956 611.97C343.76 611.774 343.662 611.531 343.662 611.242C343.662 610.953 343.76 610.71 343.956 610.514C344.152 610.318 344.395 610.22 344.684 610.22C344.964 610.22 345.202 610.318 345.398 610.514C345.594 610.71 345.692 610.953 345.692 611.242C345.692 611.531 345.594 611.774 345.398 611.97C345.202 612.166 344.964 612.264 344.684 612.264ZM345.468 613.286V621H343.872V613.286H345.468ZM349.16 610.64V621H347.564V610.64H349.16ZM354.055 621.126C353.448 621.126 352.902 621.019 352.417 620.804C351.941 620.58 351.563 620.281 351.283 619.908C351.003 619.525 350.854 619.101 350.835 618.634H352.487C352.515 618.961 352.669 619.236 352.949 619.46C353.238 619.675 353.598 619.782 354.027 619.782C354.475 619.782 354.82 619.698 355.063 619.53C355.315 619.353 355.441 619.129 355.441 618.858C355.441 618.569 355.301 618.354 355.021 618.214C354.75 618.074 354.316 617.92 353.719 617.752C353.14 617.593 352.669 617.439 352.305 617.29C351.941 617.141 351.624 616.912 351.353 616.604C351.092 616.296 350.961 615.89 350.961 615.386C350.961 614.975 351.082 614.602 351.325 614.266C351.568 613.921 351.913 613.65 352.361 613.454C352.818 613.258 353.341 613.16 353.929 613.16C354.806 613.16 355.511 613.384 356.043 613.832C356.584 614.271 356.874 614.873 356.911 615.638H355.315C355.287 615.293 355.147 615.017 354.895 614.812C354.643 614.607 354.302 614.504 353.873 614.504C353.453 614.504 353.131 614.583 352.907 614.742C352.683 614.901 352.571 615.111 352.571 615.372C352.571 615.577 352.646 615.75 352.795 615.89C352.944 616.03 353.126 616.142 353.341 616.226C353.556 616.301 353.873 616.399 354.293 616.52C354.853 616.669 355.31 616.823 355.665 616.982C356.029 617.131 356.342 617.355 356.603 617.654C356.864 617.953 357 618.349 357.009 618.844C357.009 619.283 356.888 619.675 356.645 620.02C356.402 620.365 356.057 620.636 355.609 620.832C355.17 621.028 354.652 621.126 354.055 621.126Z" fill="#0980FF"/>
<path d="M25.248 534.288C25.248 534.885 25.104 535.445 24.816 535.968C24.5387 536.491 24.096 536.912 23.488 537.232C22.8907 537.552 22.1333 537.712 21.216 537.712H19.344V542H17.104V530.832H21.216C22.08 530.832 22.816 530.981 23.424 531.28C24.032 531.579 24.4853 531.989 24.784 532.512C25.0933 533.035 25.248 533.627 25.248 534.288ZM21.12 535.904C21.7387 535.904 22.1973 535.765 22.496 535.488C22.7947 535.2 22.944 534.8 22.944 534.288C22.944 533.2 22.336 532.656 21.12 532.656H19.344V535.904H21.12ZM26.2624 537.536C26.2624 536.64 26.4384 535.845 26.7904 535.152C27.153 534.459 27.6384 533.925 28.2464 533.552C28.865 533.179 29.553 532.992 30.3104 532.992C30.9717 532.992 31.5477 533.125 32.0384 533.392C32.5397 533.659 32.9397 533.995 33.2384 534.4V533.136H35.4944V542H33.2384V540.704C32.9504 541.12 32.5504 541.467 32.0384 541.744C31.537 542.011 30.9557 542.144 30.2944 542.144C29.5477 542.144 28.865 541.952 28.2464 541.568C27.6384 541.184 27.153 540.645 26.7904 539.952C26.4384 539.248 26.2624 538.443 26.2624 537.536ZM33.2384 537.568C33.2384 537.024 33.1317 536.56 32.9184 536.176C32.705 535.781 32.417 535.483 32.0544 535.28C31.6917 535.067 31.3024 534.96 30.8864 534.96C30.4704 534.96 30.0864 535.061 29.7344 535.264C29.3824 535.467 29.0944 535.765 28.8704 536.16C28.657 536.544 28.5504 537.003 28.5504 537.536C28.5504 538.069 28.657 538.539 28.8704 538.944C29.0944 539.339 29.3824 539.643 29.7344 539.856C30.097 540.069 30.481 540.176 30.8864 540.176C31.3024 540.176 31.6917 540.075 32.0544 539.872C32.417 539.659 32.705 539.36 32.9184 538.976C33.1317 538.581 33.2384 538.112 33.2384 537.568ZM38.8181 532.08C38.4235 532.08 38.0928 531.957 37.8261 531.712C37.5701 531.456 37.4421 531.141 37.4421 530.768C37.4421 530.395 37.5701 530.085 37.8261 529.84C38.0928 529.584 38.4235 529.456 38.8181 529.456C39.2128 529.456 39.5381 529.584 39.7941 529.84C40.0608 530.085 40.1941 530.395 40.1941 530.768C40.1941 531.141 40.0608 531.456 39.7941 531.712C39.5381 531.957 39.2128 532.08 38.8181 532.08ZM39.9221 533.136V542H37.6821V533.136H39.9221ZM41.5592 537.536C41.5592 536.64 41.7352 535.845 42.0872 535.152C42.4499 534.459 42.9406 533.925 43.5593 533.552C44.1779 533.179 44.8659 532.992 45.6233 532.992C46.1993 532.992 46.7486 533.12 47.2713 533.376C47.7939 533.621 48.2099 533.952 48.5193 534.368V530.16H50.7913V542H48.5193V540.688C48.2419 541.125 47.8526 541.477 47.3513 541.744C46.8499 542.011 46.2686 542.144 45.6073 542.144C44.8606 542.144 44.1779 541.952 43.5593 541.568C42.9406 541.184 42.4499 540.645 42.0872 539.952C41.7352 539.248 41.5592 538.443 41.5592 537.536ZM48.5353 537.568C48.5353 537.024 48.4286 536.56 48.2153 536.176C48.0019 535.781 47.7139 535.483 47.3513 535.28C46.9886 535.067 46.5993 534.96 46.1833 534.96C45.7673 534.96 45.3833 535.061 45.0312 535.264C44.6793 535.467 44.3913 535.765 44.1673 536.16C43.9539 536.544 43.8473 537.003 43.8473 537.536C43.8473 538.069 43.9539 538.539 44.1673 538.944C44.3913 539.339 44.6793 539.643 45.0312 539.856C45.3939 540.069 45.7779 540.176 46.1833 540.176C46.5993 540.176 46.9886 540.075 47.3513 539.872C47.7139 539.659 48.0019 539.36 48.2153 538.976C48.4286 538.581 48.5353 538.112 48.5353 537.568ZM64.3915 530.832V532.64H61.4155V542H59.1755V532.64H56.1995V530.832H64.3915ZM69.9619 542.144C69.1085 542.144 68.3405 541.957 67.6579 541.584C66.9752 541.2 66.4365 540.661 66.0419 539.968C65.6579 539.275 65.4659 538.475 65.4659 537.568C65.4659 536.661 65.6632 535.861 66.0579 535.168C66.4632 534.475 67.0125 533.941 67.7059 533.568C68.3992 533.184 69.1725 532.992 70.0259 532.992C70.8792 532.992 71.6525 533.184 72.3459 533.568C73.0392 533.941 73.5832 534.475 73.9779 535.168C74.3832 535.861 74.5859 536.661 74.5859 537.568C74.5859 538.475 74.3779 539.275 73.9619 539.968C73.5565 540.661 73.0019 541.2 72.2979 541.584C71.6045 541.957 70.8259 542.144 69.9619 542.144ZM69.9619 540.192C70.3672 540.192 70.7459 540.096 71.0979 539.904C71.4605 539.701 71.7485 539.403 71.9619 539.008C72.1752 538.613 72.2819 538.133 72.2819 537.568C72.2819 536.725 72.0579 536.08 71.6099 535.632C71.1725 535.173 70.6339 534.944 69.9939 534.944C69.3539 534.944 68.8152 535.173 68.3779 535.632C67.9512 536.08 67.7379 536.725 67.7379 537.568C67.7379 538.411 67.9459 539.061 68.3619 539.52C68.7885 539.968 69.3219 540.192 69.9619 540.192Z" fill="#333333"/>
<rect x="16" y="744" width="358" height="56" rx="8" fill="#0980FF"/>
<path d="M127.032 760.625H140.052C140.676 760.625 141.195 760.625 141.621 760.66C142.064 760.695 142.48 760.774 142.873 760.975C143.477 761.283 143.968 761.774 144.275 762.377C144.476 762.771 144.555 763.186 144.59 763.629C144.625 764.055 144.625 764.574 144.625 765.198V772.583C144.625 772.815 144.533 773.038 144.369 773.202C144.205 773.366 143.982 773.458 143.75 773.458C143.518 773.458 143.296 773.366 143.131 773.202C142.967 773.038 142.875 772.815 142.875 772.583V765.233C142.875 764.566 142.875 764.117 142.846 763.771C142.819 763.437 142.77 763.277 142.716 763.172C142.577 762.897 142.353 762.674 142.078 762.534C141.973 762.48 141.813 762.431 141.477 762.404C141.133 762.376 140.684 762.375 140.017 762.375H127.067C126.399 762.375 125.95 762.375 125.605 762.404C125.27 762.431 125.11 762.48 125.005 762.534C124.73 762.674 124.507 762.897 124.367 763.172C124.313 763.277 124.264 763.437 124.238 763.771C124.21 764.117 124.208 764.565 124.208 765.233V782.5C124.208 782.732 124.116 782.955 123.952 783.119C123.788 783.283 123.566 783.375 123.333 783.375C123.101 783.375 122.879 783.283 122.715 783.119C122.551 782.955 122.458 782.732 122.458 782.5V765.198C122.458 764.574 122.458 764.055 122.493 763.629C122.528 763.186 122.608 762.771 122.808 762.377C123.116 761.774 123.607 761.283 124.211 760.975C124.604 760.774 125.019 760.695 125.463 760.66C125.888 760.625 126.408 760.625 127.032 760.625Z" fill="#F2F2F2"/>
<path fill-rule="evenodd" clip-rule="evenodd" d="M134.603 769.678C134.738 769.667 134.893 769.667 135.035 769.667H137.298C137.441 769.667 137.596 769.667 137.73 769.678C137.882 769.69 138.08 769.72 138.288 769.825C138.562 769.965 138.785 770.188 138.925 770.464C139.03 770.669 139.06 770.87 139.073 771.021C139.085 771.154 139.083 771.308 139.083 771.452V772.84C139.083 772.982 139.083 773.138 139.072 773.272C139.06 773.423 139.03 773.622 138.925 773.829C138.785 774.104 138.562 774.327 138.288 774.466C138.081 774.571 137.881 774.602 137.729 774.615C137.596 774.626 137.442 774.625 137.298 774.625H135.035C134.893 774.625 134.738 774.625 134.603 774.613C134.41 774.6 134.22 774.551 134.046 774.466C133.771 774.327 133.548 774.104 133.409 773.829C133.324 773.654 133.274 773.465 133.261 773.271C133.249 773.138 133.25 772.984 133.25 772.84V771.452C133.25 771.309 133.25 771.154 133.262 771.02C133.273 770.868 133.304 770.67 133.409 770.462C133.549 770.188 133.772 769.965 134.047 769.825C134.252 769.72 134.453 769.69 134.605 769.677M137.333 771.417H135V772.875H137.333V771.417Z" fill="#F2F2F2"/>
<path d="M128.583 770.833C128.583 770.601 128.675 770.379 128.839 770.215C129.004 770.051 129.226 769.958 129.458 769.958H131.208C131.44 769.958 131.663 770.051 131.827 770.215C131.991 770.379 132.083 770.601 132.083 770.833C132.083 771.065 131.991 771.288 131.827 771.452C131.663 771.616 131.44 771.708 131.208 771.708H129.458C129.226 771.708 129.004 771.616 128.839 771.452C128.675 771.288 128.583 771.065 128.583 770.833ZM128.583 773.458C128.583 773.226 128.675 773.004 128.839 772.84C129.004 772.676 129.226 772.583 129.458 772.583H131.208C131.44 772.583 131.663 772.676 131.827 772.84C131.991 773.004 132.083 773.226 132.083 773.458C132.083 773.69 131.991 773.913 131.827 774.077C131.663 774.241 131.44 774.333 131.208 774.333H129.458C129.226 774.333 129.004 774.241 128.839 774.077C128.675 773.913 128.583 773.69 128.583 773.458ZM128.583 776.667C128.583 776.435 128.675 776.212 128.839 776.048C129.004 775.884 129.226 775.792 129.458 775.792H138.208C138.44 775.792 138.663 775.884 138.827 776.048C138.991 776.212 139.083 776.435 139.083 776.667C139.083 776.899 138.991 777.121 138.827 777.285C138.663 777.449 138.44 777.542 138.208 777.542H129.458C129.226 777.542 129.004 777.449 128.839 777.285C128.675 777.121 128.583 776.899 128.583 776.667ZM128.583 779.583C128.583 779.351 128.675 779.129 128.839 778.965C129.004 778.8 129.226 778.708 129.458 778.708H135.058C135.29 778.708 135.513 778.8 135.677 778.965C135.841 779.129 135.933 779.351 135.933 779.583C135.933 779.815 135.841 780.038 135.677 780.202C135.513 780.366 135.29 780.458 135.058 780.458H129.458C129.226 780.458 129.004 780.366 128.839 780.202C128.675 780.038 128.583 779.815 128.583 779.583ZM127.417 766.75C127.417 766.441 127.539 766.144 127.758 765.925C127.977 765.706 128.274 765.583 128.583 765.583H139.083C139.393 765.583 139.689 765.706 139.908 765.925C140.127 766.144 140.25 766.441 140.25 766.75C140.25 767.059 140.127 767.356 139.908 767.575C139.689 767.794 139.393 767.917 139.083 767.917H128.583C128.274 767.917 127.977 767.794 127.758 767.575C127.539 767.356 127.417 767.059 127.417 766.75Z" fill="#F2F2F2"/>
<path fill-rule="evenodd" clip-rule="evenodd" d="M147.82 778.324L143.878 774.94C143.694 774.762 143.455 774.653 143.201 774.63C142.946 774.607 142.691 774.672 142.478 774.814C142.281 774.946 142.127 775.133 142.036 775.352C141.944 775.572 141.92 775.813 141.966 776.046L142.138 776.975C140.843 777.12 139.657 777.561 138.694 778.447C137.483 779.559 136.748 781.255 136.464 783.56C136.439 783.768 136.488 783.977 136.603 784.151C136.718 784.325 136.892 784.452 137.092 784.509C137.293 784.567 137.507 784.55 137.697 784.463C137.887 784.376 138.039 784.225 138.127 784.035C138.603 783.005 139.191 782.421 139.931 782.067C140.505 781.793 141.218 781.635 142.131 781.571L141.959 782.54C141.873 783.034 142.087 783.515 142.488 783.77C142.703 783.909 142.959 783.97 143.214 783.943C143.469 783.916 143.707 783.802 143.888 783.621L147.833 780.112L147.892 780.056C148.112 779.817 148.228 779.501 148.215 779.176C148.202 778.852 148.06 778.546 147.822 778.326M144.042 777.635L143.987 777.339L146.191 779.232L143.974 781.204L144.043 780.814C144.065 780.688 144.059 780.559 144.026 780.436C143.993 780.312 143.933 780.198 143.851 780.1C143.769 780.002 143.666 779.923 143.55 779.869C143.435 779.815 143.308 779.787 143.181 779.787C141.699 779.787 140.389 779.939 139.278 780.442C139.465 780.167 139.665 779.931 139.879 779.736C140.67 779.01 141.755 778.669 143.181 778.669C143.309 778.669 143.436 778.641 143.552 778.586C143.668 778.532 143.771 778.452 143.853 778.354C143.936 778.255 143.995 778.139 144.028 778.015C144.06 777.891 144.065 777.761 144.042 777.635Z" fill="#F2F2F2"/>
<path d="M161.864 778.112C161.117 778.112 160.445 777.984 159.848 777.728C159.251 777.461 158.781 777.088 158.44 776.608C158.099 776.128 157.928 775.568 157.928 774.928H159.88C159.923 775.408 160.109 775.803 160.44 776.112C160.781 776.421 161.256 776.576 161.864 776.576C162.493 776.576 162.984 776.427 163.336 776.128C163.688 775.819 163.864 775.424 163.864 774.944C163.864 774.571 163.752 774.267 163.528 774.032C163.315 773.797 163.043 773.616 162.712 773.488C162.392 773.36 161.944 773.221 161.368 773.072C160.643 772.88 160.051 772.688 159.592 772.496C159.144 772.293 158.76 771.984 158.44 771.568C158.12 771.152 157.96 770.597 157.96 769.904C157.96 769.264 158.12 768.704 158.44 768.224C158.76 767.744 159.208 767.376 159.784 767.12C160.36 766.864 161.027 766.736 161.784 766.736C162.861 766.736 163.741 767.008 164.424 767.552C165.117 768.085 165.501 768.821 165.576 769.76H163.56C163.528 769.355 163.336 769.008 162.984 768.72C162.632 768.432 162.168 768.288 161.592 768.288C161.069 768.288 160.643 768.421 160.312 768.688C159.981 768.955 159.816 769.339 159.816 769.84C159.816 770.181 159.917 770.464 160.12 770.688C160.333 770.901 160.6 771.072 160.92 771.2C161.24 771.328 161.677 771.467 162.232 771.616C162.968 771.819 163.565 772.021 164.024 772.224C164.493 772.427 164.888 772.741 165.208 773.168C165.539 773.584 165.704 774.144 165.704 774.848C165.704 775.413 165.549 775.947 165.24 776.448C164.941 776.949 164.499 777.355 163.912 777.664C163.336 777.963 162.653 778.112 161.864 778.112ZM172.416 769.04C173.088 769.04 173.686 769.184 174.208 769.472C174.742 769.76 175.158 770.187 175.456 770.752C175.766 771.317 175.92 772 175.92 772.8V778H174.112V773.072C174.112 772.283 173.915 771.68 173.52 771.264C173.126 770.837 172.587 770.624 171.904 770.624C171.222 770.624 170.678 770.837 170.272 771.264C169.878 771.68 169.68 772.283 169.68 773.072V778H167.856V766.16H169.68V770.208C169.99 769.835 170.379 769.547 170.848 769.344C171.328 769.141 171.851 769.04 172.416 769.04ZM177.639 773.552C177.639 772.667 177.82 771.883 178.183 771.2C178.556 770.517 179.058 769.989 179.687 769.616C180.327 769.232 181.031 769.04 181.799 769.04C182.492 769.04 183.095 769.179 183.607 769.456C184.13 769.723 184.546 770.059 184.855 770.464V769.184H186.695V778H184.855V776.688C184.546 777.104 184.124 777.451 183.591 777.728C183.058 778.005 182.45 778.144 181.767 778.144C181.01 778.144 180.316 777.952 179.687 777.568C179.058 777.173 178.556 776.629 178.183 775.936C177.82 775.232 177.639 774.437 177.639 773.552ZM184.855 773.584C184.855 772.976 184.727 772.448 184.471 772C184.226 771.552 183.9 771.211 183.495 770.976C183.09 770.741 182.652 770.624 182.183 770.624C181.714 770.624 181.276 770.741 180.871 770.976C180.466 771.2 180.135 771.536 179.879 771.984C179.634 772.421 179.511 772.944 179.511 773.552C179.511 774.16 179.634 774.693 179.879 775.152C180.135 775.611 180.466 775.963 180.871 776.208C181.287 776.443 181.724 776.56 182.183 776.56C182.652 776.56 183.09 776.443 183.495 776.208C183.9 775.973 184.226 775.632 184.471 775.184C184.727 774.725 184.855 774.192 184.855 773.584ZM190.915 770.464C191.181 770.016 191.533 769.669 191.971 769.424C192.419 769.168 192.947 769.04 193.555 769.04V770.928H193.091C192.376 770.928 191.832 771.109 191.459 771.472C191.096 771.835 190.915 772.464 190.915 773.36V778H189.091V769.184H190.915V770.464ZM203.311 773.376C203.311 773.707 203.29 774.005 203.247 774.272H196.511C196.565 774.976 196.826 775.541 197.295 775.968C197.765 776.395 198.341 776.608 199.023 776.608C200.005 776.608 200.698 776.197 201.103 775.376H203.071C202.805 776.187 202.319 776.853 201.615 777.376C200.922 777.888 200.058 778.144 199.023 778.144C198.181 778.144 197.423 777.957 196.751 777.584C196.09 777.2 195.567 776.667 195.183 775.984C194.81 775.291 194.623 774.491 194.623 773.584C194.623 772.677 194.805 771.883 195.167 771.2C195.541 770.507 196.058 769.973 196.719 769.6C197.391 769.227 198.159 769.04 199.023 769.04C199.855 769.04 200.597 769.221 201.247 769.584C201.898 769.947 202.405 770.459 202.767 771.12C203.13 771.771 203.311 772.523 203.311 773.376ZM201.407 772.8C201.397 772.128 201.157 771.589 200.687 771.184C200.218 770.779 199.637 770.576 198.943 770.576C198.314 770.576 197.775 770.779 197.327 771.184C196.879 771.579 196.613 772.117 196.527 772.8H201.407ZM215.039 778L212.479 773.552H211.087V778H209.263V766.88H213.103C213.956 766.88 214.676 767.029 215.263 767.328C215.86 767.627 216.303 768.027 216.591 768.528C216.889 769.029 217.039 769.589 217.039 770.208C217.039 770.933 216.825 771.595 216.399 772.192C215.983 772.779 215.337 773.179 214.463 773.392L217.215 778H215.039ZM211.087 772.096H213.103C213.785 772.096 214.297 771.925 214.639 771.584C214.991 771.243 215.167 770.784 215.167 770.208C215.167 769.632 214.996 769.184 214.655 768.864C214.313 768.533 213.796 768.368 213.103 768.368H211.087V772.096ZM227.452 773.376C227.452 773.707 227.431 774.005 227.388 774.272H220.652C220.705 774.976 220.967 775.541 221.436 775.968C221.905 776.395 222.481 776.608 223.164 776.608C224.145 776.608 224.839 776.197 225.244 775.376H227.212C226.945 776.187 226.46 776.853 225.756 777.376C225.063 777.888 224.199 778.144 223.164 778.144C222.321 778.144 221.564 777.957 220.892 777.584C220.231 777.2 219.708 776.667 219.324 775.984C218.951 775.291 218.764 774.491 218.764 773.584C218.764 772.677 218.945 771.883 219.308 771.2C219.681 770.507 220.199 769.973 220.86 769.6C221.532 769.227 222.3 769.04 223.164 769.04C223.996 769.04 224.737 769.221 225.388 769.584C226.039 769.947 226.545 770.459 226.908 771.12C227.271 771.771 227.452 772.523 227.452 773.376ZM225.548 772.8C225.537 772.128 225.297 771.589 224.828 771.184C224.359 770.779 223.777 770.576 223.084 770.576C222.455 770.576 221.916 770.779 221.468 771.184C221.02 771.579 220.753 772.117 220.668 772.8H225.548ZM228.639 773.584C228.639 772.677 228.82 771.883 229.183 771.2C229.556 770.507 230.068 769.973 230.719 769.6C231.37 769.227 232.116 769.04 232.959 769.04C234.026 769.04 234.906 769.296 235.599 769.808C236.303 770.309 236.778 771.029 237.023 771.968H235.055C234.895 771.531 234.639 771.189 234.287 770.944C233.935 770.699 233.492 770.576 232.959 770.576C232.212 770.576 231.615 770.843 231.167 771.376C230.73 771.899 230.511 772.635 230.511 773.584C230.511 774.533 230.73 775.275 231.167 775.808C231.615 776.341 232.212 776.608 232.959 776.608C234.015 776.608 234.714 776.144 235.055 775.216H237.023C236.767 776.112 236.287 776.827 235.583 777.36C234.879 777.883 234.004 778.144 232.959 778.144C232.116 778.144 231.37 777.957 230.719 777.584C230.068 777.2 229.556 776.667 229.183 775.984C228.82 775.291 228.639 774.491 228.639 773.584ZM246.921 773.376C246.921 773.707 246.899 774.005 246.857 774.272H240.121C240.174 774.976 240.435 775.541 240.905 775.968C241.374 776.395 241.95 776.608 242.633 776.608C243.614 776.608 244.307 776.197 244.713 775.376H246.681C246.414 776.187 245.929 776.853 245.225 777.376C244.531 777.888 243.667 778.144 242.633 778.144C241.79 778.144 241.033 777.957 240.361 777.584C239.699 777.2 239.177 776.667 238.793 775.984C238.419 775.291 238.233 774.491 238.233 773.584C238.233 772.677 238.414 771.883 238.777 771.2C239.15 770.507 239.667 769.973 240.329 769.6C241.001 769.227 241.769 769.04 242.633 769.04C243.465 769.04 244.206 769.221 244.857 769.584C245.507 769.947 246.014 770.459 246.377 771.12C246.739 771.771 246.921 772.523 246.921 773.376ZM245.017 772.8C245.006 772.128 244.766 771.589 244.297 771.184C243.827 770.779 243.246 770.576 242.553 770.576C241.923 770.576 241.385 770.779 240.937 771.184C240.489 771.579 240.222 772.117 240.137 772.8H245.017ZM249.644 768.016C249.313 768.016 249.036 767.904 248.812 767.68C248.588 767.456 248.476 767.179 248.476 766.848C248.476 766.517 248.588 766.24 248.812 766.016C249.036 765.792 249.313 765.68 249.644 765.68C249.964 765.68 250.236 765.792 250.46 766.016C250.684 766.24 250.796 766.517 250.796 766.848C250.796 767.179 250.684 767.456 250.46 767.68C250.236 767.904 249.964 768.016 249.644 768.016ZM250.54 769.184V778H248.716V769.184H250.54ZM254.758 770.48C255.068 770.075 255.489 769.733 256.022 769.456C256.556 769.179 257.158 769.04 257.83 769.04C258.598 769.04 259.297 769.232 259.926 769.616C260.566 769.989 261.068 770.517 261.43 771.2C261.793 771.883 261.974 772.667 261.974 773.552C261.974 774.437 261.793 775.232 261.43 775.936C261.068 776.629 260.566 777.173 259.926 777.568C259.297 777.952 258.598 778.144 257.83 778.144C257.158 778.144 256.561 778.011 256.038 777.744C255.516 777.467 255.089 777.125 254.758 776.72V782.192H252.934V769.184H254.758V770.48ZM260.118 773.552C260.118 772.944 259.99 772.421 259.734 771.984C259.489 771.536 259.158 771.2 258.742 770.976C258.337 770.741 257.9 770.624 257.43 770.624C256.972 770.624 256.534 770.741 256.118 770.976C255.713 771.211 255.382 771.552 255.126 772C254.881 772.448 254.758 772.976 254.758 773.584C254.758 774.192 254.881 774.725 255.126 775.184C255.382 775.632 255.713 775.973 256.118 776.208C256.534 776.443 256.972 776.56 257.43 776.56C257.9 776.56 258.337 776.443 258.742 776.208C259.158 775.963 259.489 775.611 259.734 775.152C259.99 774.693 260.118 774.16 260.118 773.552ZM265.906 770.672V775.552C265.906 775.883 265.981 776.123 266.13 776.272C266.29 776.411 266.557 776.48 266.93 776.48H268.05V778H266.61C265.789 778 265.159 777.808 264.722 777.424C264.285 777.04 264.066 776.416 264.066 775.552V770.672H263.026V769.184H264.066V766.992H265.906V769.184H268.05V770.672H265.906Z" fill="#F2F2F2"/>
<rect width="390" height="24" transform="translate(0 820)" fill="white"/>
<rect x="127" y="831" width="135" height="5" rx="2.5" fill="#373737"/>
<g style="mix-blend-mode:soft-light">
<ellipse cx="180.5" cy="166" rx="383.5" ry="342" fill="#DCEDE1"/>
<ellipse cx="180.5" cy="129" rx="343.5" ry="308" fill="#B6D9C1"/>
<ellipse cx="180.5" cy="80.5" rx="307.5" ry="274.5" fill="#138636"/>
<ellipse cx="180.5" cy="56" rx="247.5" ry="222" fill="#117931"/>
<ellipse cx="180.5" cy="25" rx="211.5" ry="188" fill="#0F6B2B"/>
<ellipse cx="180.5" cy="-6" rx="171.5" ry="154" fill="#0E6529"/>
<ellipse cx="180.5" cy="-11.5" rx="115.5" ry="102.5" fill="#0B5020"/>
</g>
<mask id="mask0_77_167" style="mask-type:luminance" maskUnits="userSpaceOnUse" x="154" y="188" width="82" height="84">
<path d="M195 190L205.506 197.664L218.512 197.64L222.506 210.016L233.042 217.64L229 230L233.042 242.36L222.506 249.984L218.512 262.36L205.506 262.336L195 270L184.494 262.336L171.488 262.36L167.494 249.984L156.958 242.36L161 230L156.958 217.64L167.494 210.016L171.488 197.64L184.494 197.664L195 190Z" fill="white" stroke="white" stroke-width="4" stroke-linecap="round" stroke-linejoin="round"/>
<path d="M181 230L191 240L211 220" stroke="black" stroke-width="4" stroke-linecap="round" stroke-linejoin="round"/>
</mask>
<g mask="url(#mask0_77_167)">
<path d="M147 182H243V278H147V182Z" fill="url(#paint0_linear_77_167)"/>
</g>
<path d="M125.421 318V306.364H129.785C130.679 306.364 131.429 306.53 132.035 306.864C132.645 307.197 133.105 307.655 133.415 308.239C133.73 308.818 133.887 309.477 133.887 310.216C133.887 310.962 133.73 311.625 133.415 312.205C133.101 312.784 132.637 313.241 132.023 313.574C131.41 313.903 130.654 314.068 129.756 314.068H126.864V312.335H129.472C129.995 312.335 130.423 312.244 130.756 312.062C131.09 311.881 131.336 311.631 131.495 311.312C131.658 310.994 131.739 310.629 131.739 310.216C131.739 309.803 131.658 309.439 131.495 309.125C131.336 308.811 131.088 308.566 130.751 308.392C130.417 308.214 129.987 308.125 129.461 308.125H127.529V318H125.421ZM137.982 318.176C137.429 318.176 136.931 318.078 136.488 317.881C136.049 317.68 135.7 317.384 135.442 316.994C135.189 316.604 135.062 316.123 135.062 315.551C135.062 315.059 135.153 314.652 135.335 314.33C135.516 314.008 135.764 313.75 136.079 313.557C136.393 313.364 136.747 313.218 137.141 313.119C137.539 313.017 137.95 312.943 138.374 312.898C138.886 312.845 139.3 312.797 139.619 312.756C139.937 312.71 140.168 312.642 140.312 312.551C140.46 312.456 140.533 312.311 140.533 312.114V312.08C140.533 311.652 140.406 311.32 140.153 311.085C139.899 310.85 139.533 310.733 139.056 310.733C138.552 310.733 138.153 310.843 137.857 311.062C137.566 311.282 137.369 311.542 137.266 311.841L135.346 311.568C135.497 311.038 135.747 310.595 136.096 310.239C136.444 309.879 136.871 309.61 137.374 309.432C137.878 309.25 138.435 309.159 139.045 309.159C139.465 309.159 139.884 309.208 140.3 309.307C140.717 309.405 141.098 309.568 141.442 309.795C141.787 310.019 142.064 310.324 142.272 310.71C142.484 311.097 142.59 311.58 142.59 312.159V318H140.613V316.801H140.545C140.42 317.044 140.244 317.271 140.016 317.483C139.793 317.691 139.511 317.86 139.17 317.989C138.833 318.114 138.437 318.176 137.982 318.176ZM138.516 316.665C138.929 316.665 139.287 316.583 139.59 316.42C139.893 316.254 140.126 316.034 140.289 315.761C140.456 315.489 140.539 315.191 140.539 314.869V313.841C140.475 313.894 140.365 313.943 140.21 313.989C140.058 314.034 139.888 314.074 139.698 314.108C139.509 314.142 139.321 314.172 139.136 314.199C138.95 314.225 138.789 314.248 138.653 314.267C138.346 314.309 138.071 314.377 137.829 314.472C137.586 314.566 137.395 314.699 137.255 314.869C137.115 315.036 137.045 315.252 137.045 315.517C137.045 315.896 137.183 316.182 137.46 316.375C137.736 316.568 138.088 316.665 138.516 316.665ZM144.658 318V309.273H146.715V318H144.658ZM145.692 308.034C145.367 308.034 145.086 307.926 144.852 307.71C144.617 307.491 144.499 307.227 144.499 306.92C144.499 306.61 144.617 306.347 144.852 306.131C145.086 305.911 145.367 305.801 145.692 305.801C146.022 305.801 146.302 305.911 146.533 306.131C146.768 306.347 146.886 306.61 146.886 306.92C146.886 307.227 146.768 307.491 146.533 307.71C146.302 307.926 146.022 308.034 145.692 308.034ZM152.069 318.153C151.383 318.153 150.77 317.977 150.228 317.625C149.686 317.273 149.258 316.761 148.944 316.091C148.629 315.42 148.472 314.606 148.472 313.648C148.472 312.678 148.631 311.86 148.95 311.193C149.272 310.523 149.705 310.017 150.251 309.676C150.796 309.331 151.404 309.159 152.075 309.159C152.586 309.159 153.006 309.246 153.336 309.42C153.665 309.591 153.927 309.797 154.12 310.04C154.313 310.278 154.463 310.504 154.569 310.716H154.654V306.364H156.717V318H154.694V316.625H154.569C154.463 316.837 154.309 317.062 154.109 317.301C153.908 317.536 153.643 317.737 153.313 317.903C152.984 318.07 152.569 318.153 152.069 318.153ZM152.643 316.466C153.078 316.466 153.45 316.348 153.756 316.114C154.063 315.875 154.296 315.544 154.455 315.119C154.614 314.695 154.694 314.201 154.694 313.636C154.694 313.072 154.614 312.581 154.455 312.165C154.3 311.748 154.069 311.424 153.762 311.193C153.459 310.962 153.086 310.847 152.643 310.847C152.184 310.847 151.802 310.966 151.495 311.205C151.188 311.443 150.957 311.773 150.802 312.193C150.647 312.614 150.569 313.095 150.569 313.636C150.569 314.182 150.647 314.669 150.802 315.097C150.961 315.521 151.194 315.856 151.501 316.102C151.811 316.345 152.192 316.466 152.643 316.466ZM169.292 309.562C169.239 309.066 169.015 308.68 168.621 308.403C168.231 308.127 167.724 307.989 167.099 307.989C166.659 307.989 166.282 308.055 165.968 308.188C165.654 308.32 165.413 308.5 165.246 308.727C165.08 308.955 164.995 309.214 164.991 309.506C164.991 309.748 165.046 309.958 165.156 310.136C165.269 310.314 165.423 310.466 165.616 310.591C165.809 310.712 166.023 310.814 166.258 310.898C166.493 310.981 166.729 311.051 166.968 311.108L168.059 311.381C168.498 311.483 168.921 311.621 169.326 311.795C169.735 311.97 170.101 312.189 170.423 312.455C170.748 312.72 171.006 313.04 171.195 313.415C171.385 313.79 171.479 314.229 171.479 314.733C171.479 315.415 171.305 316.015 170.957 316.534C170.608 317.049 170.104 317.453 169.445 317.744C168.79 318.032 167.996 318.176 167.065 318.176C166.159 318.176 165.373 318.036 164.707 317.756C164.044 317.475 163.525 317.066 163.15 316.528C162.779 315.991 162.578 315.335 162.548 314.562H164.621C164.652 314.968 164.777 315.305 164.996 315.574C165.216 315.843 165.502 316.044 165.854 316.176C166.21 316.309 166.608 316.375 167.048 316.375C167.506 316.375 167.907 316.307 168.252 316.17C168.601 316.03 168.873 315.837 169.07 315.591C169.267 315.341 169.368 315.049 169.371 314.716C169.368 314.413 169.279 314.163 169.104 313.966C168.93 313.765 168.686 313.598 168.371 313.466C168.061 313.33 167.697 313.208 167.281 313.102L165.957 312.761C164.998 312.515 164.241 312.142 163.684 311.642C163.131 311.138 162.854 310.47 162.854 309.636C162.854 308.951 163.04 308.35 163.411 307.835C163.786 307.32 164.296 306.92 164.94 306.636C165.584 306.348 166.313 306.205 167.127 306.205C167.953 306.205 168.676 306.348 169.298 306.636C169.923 306.92 170.413 307.316 170.769 307.824C171.125 308.328 171.309 308.907 171.32 309.562H169.292ZM178.83 314.33V309.273H180.887V318H178.893V316.449H178.802C178.605 316.937 178.281 317.337 177.83 317.648C177.383 317.958 176.832 318.114 176.177 318.114C175.605 318.114 175.099 317.987 174.66 317.733C174.224 317.475 173.883 317.102 173.637 316.614C173.391 316.121 173.268 315.527 173.268 314.83V309.273H175.325V314.511C175.325 315.064 175.476 315.504 175.779 315.83C176.082 316.155 176.48 316.318 176.972 316.318C177.275 316.318 177.569 316.244 177.853 316.097C178.137 315.949 178.37 315.729 178.552 315.438C178.737 315.142 178.83 314.773 178.83 314.33ZM186.809 318.17C185.938 318.17 185.19 317.979 184.565 317.597C183.943 317.214 183.464 316.686 183.127 316.011C182.794 315.333 182.627 314.553 182.627 313.67C182.627 312.784 182.798 312.002 183.138 311.324C183.479 310.642 183.96 310.112 184.582 309.733C185.207 309.35 185.945 309.159 186.798 309.159C187.506 309.159 188.133 309.29 188.678 309.551C189.228 309.809 189.665 310.174 189.991 310.648C190.317 311.117 190.502 311.667 190.548 312.295H188.582C188.502 311.875 188.313 311.525 188.013 311.244C187.718 310.96 187.322 310.818 186.826 310.818C186.406 310.818 186.036 310.932 185.718 311.159C185.4 311.383 185.152 311.705 184.974 312.125C184.799 312.545 184.712 313.049 184.712 313.636C184.712 314.231 184.799 314.742 184.974 315.17C185.148 315.595 185.392 315.922 185.707 316.153C186.025 316.381 186.398 316.494 186.826 316.494C187.129 316.494 187.4 316.437 187.638 316.324C187.881 316.206 188.084 316.038 188.246 315.818C188.409 315.598 188.521 315.331 188.582 315.017H190.548C190.498 315.634 190.317 316.182 190.002 316.659C189.688 317.133 189.26 317.504 188.718 317.773C188.176 318.038 187.54 318.17 186.809 318.17ZM196.043 318.17C195.172 318.17 194.424 317.979 193.799 317.597C193.178 317.214 192.699 316.686 192.362 316.011C192.028 315.333 191.862 314.553 191.862 313.67C191.862 312.784 192.032 312.002 192.373 311.324C192.714 310.642 193.195 310.112 193.816 309.733C194.441 309.35 195.18 309.159 196.032 309.159C196.74 309.159 197.367 309.29 197.913 309.551C198.462 309.809 198.899 310.174 199.225 310.648C199.551 311.117 199.737 311.667 199.782 312.295H197.816C197.737 311.875 197.547 311.525 197.248 311.244C196.952 310.96 196.557 310.818 196.06 310.818C195.64 310.818 195.271 310.932 194.952 311.159C194.634 311.383 194.386 311.705 194.208 312.125C194.034 312.545 193.947 313.049 193.947 313.636C193.947 314.231 194.034 314.742 194.208 315.17C194.382 315.595 194.627 315.922 194.941 316.153C195.259 316.381 195.632 316.494 196.06 316.494C196.363 316.494 196.634 316.437 196.873 316.324C197.115 316.206 197.318 316.038 197.481 315.818C197.644 315.598 197.755 315.331 197.816 315.017H199.782C199.733 315.634 199.551 316.182 199.237 316.659C198.922 317.133 198.494 317.504 197.952 317.773C197.411 318.038 196.774 318.17 196.043 318.17ZM205.335 318.17C204.46 318.17 203.704 317.989 203.067 317.625C202.435 317.258 201.948 316.739 201.607 316.068C201.266 315.394 201.096 314.6 201.096 313.688C201.096 312.79 201.266 312.002 201.607 311.324C201.952 310.642 202.433 310.112 203.05 309.733C203.668 309.35 204.393 309.159 205.227 309.159C205.764 309.159 206.272 309.246 206.749 309.42C207.23 309.591 207.655 309.856 208.022 310.216C208.393 310.576 208.685 311.034 208.897 311.591C209.109 312.144 209.215 312.803 209.215 313.568V314.199H202.062V312.812H207.244C207.24 312.419 207.155 312.068 206.988 311.761C206.821 311.451 206.588 311.206 206.289 311.028C205.994 310.85 205.649 310.761 205.255 310.761C204.835 310.761 204.465 310.864 204.147 311.068C203.829 311.269 203.581 311.534 203.403 311.864C203.228 312.189 203.139 312.547 203.136 312.938V314.148C203.136 314.655 203.228 315.091 203.414 315.455C203.6 315.814 203.859 316.091 204.192 316.284C204.526 316.473 204.916 316.568 205.363 316.568C205.662 316.568 205.933 316.527 206.175 316.443C206.418 316.356 206.628 316.229 206.806 316.062C206.984 315.896 207.119 315.689 207.21 315.443L209.13 315.659C209.009 316.167 208.778 316.61 208.437 316.989C208.1 317.364 207.668 317.655 207.141 317.864C206.615 318.068 206.013 318.17 205.335 318.17ZM217.853 311.58L215.978 311.784C215.925 311.595 215.832 311.417 215.7 311.25C215.571 311.083 215.397 310.949 215.177 310.847C214.957 310.744 214.688 310.693 214.37 310.693C213.942 310.693 213.582 310.786 213.29 310.972C213.003 311.157 212.861 311.398 212.864 311.693C212.861 311.947 212.953 312.153 213.143 312.312C213.336 312.472 213.654 312.602 214.097 312.705L215.586 313.023C216.412 313.201 217.025 313.483 217.427 313.869C217.832 314.256 218.037 314.761 218.04 315.386C218.037 315.936 217.876 316.42 217.558 316.841C217.243 317.258 216.806 317.583 216.245 317.818C215.684 318.053 215.04 318.17 214.313 318.17C213.245 318.17 212.385 317.947 211.734 317.5C211.082 317.049 210.694 316.422 210.569 315.619L212.575 315.426C212.665 315.82 212.859 316.117 213.154 316.318C213.45 316.519 213.834 316.619 214.308 316.619C214.796 316.619 215.188 316.519 215.484 316.318C215.783 316.117 215.933 315.869 215.933 315.574C215.933 315.324 215.836 315.117 215.643 314.955C215.453 314.792 215.158 314.667 214.756 314.58L213.268 314.267C212.431 314.093 211.811 313.799 211.41 313.386C211.008 312.97 210.809 312.443 210.813 311.807C210.809 311.269 210.955 310.803 211.251 310.409C211.55 310.011 211.965 309.705 212.495 309.489C213.029 309.269 213.645 309.159 214.342 309.159C215.364 309.159 216.169 309.377 216.756 309.812C217.347 310.248 217.713 310.837 217.853 311.58ZM226.634 311.58L224.759 311.784C224.706 311.595 224.613 311.417 224.481 311.25C224.352 311.083 224.178 310.949 223.958 310.847C223.738 310.744 223.469 310.693 223.151 310.693C222.723 310.693 222.363 310.786 222.072 310.972C221.784 311.157 221.642 311.398 221.646 311.693C221.642 311.947 221.735 312.153 221.924 312.312C222.117 312.472 222.435 312.602 222.879 312.705L224.367 313.023C225.193 313.201 225.807 313.483 226.208 313.869C226.613 314.256 226.818 314.761 226.822 315.386C226.818 315.936 226.657 316.42 226.339 316.841C226.024 317.258 225.587 317.583 225.026 317.818C224.466 318.053 223.822 318.17 223.094 318.17C222.026 318.17 221.166 317.947 220.515 317.5C219.863 317.049 219.475 316.422 219.35 315.619L221.356 315.426C221.447 315.82 221.64 316.117 221.935 316.318C222.231 316.519 222.615 316.619 223.089 316.619C223.577 316.619 223.969 316.519 224.265 316.318C224.564 316.117 224.714 315.869 224.714 315.574C224.714 315.324 224.617 315.117 224.424 314.955C224.235 314.792 223.939 314.667 223.538 314.58L222.049 314.267C221.212 314.093 220.593 313.799 220.191 313.386C219.79 312.97 219.591 312.443 219.594 311.807C219.591 311.269 219.737 310.803 220.032 310.409C220.331 310.011 220.746 309.705 221.276 309.489C221.81 309.269 222.426 309.159 223.123 309.159C224.146 309.159 224.951 309.377 225.538 309.812C226.129 310.248 226.494 310.837 226.634 311.58ZM232.938 309.273V310.864H227.779V309.273H232.938ZM229.069 318V308.449C229.069 307.862 229.19 307.373 229.433 306.983C229.679 306.593 230.008 306.301 230.421 306.108C230.834 305.915 231.292 305.818 231.796 305.818C232.152 305.818 232.469 305.847 232.745 305.903C233.022 305.96 233.226 306.011 233.359 306.057L232.95 307.648C232.862 307.621 232.753 307.595 232.62 307.568C232.487 307.538 232.34 307.523 232.177 307.523C231.794 307.523 231.523 307.616 231.364 307.801C231.209 307.983 231.131 308.244 231.131 308.585V318H229.069ZM240.112 314.33V309.273H242.168V318H240.174V316.449H240.083C239.886 316.937 239.562 317.337 239.112 317.648C238.665 317.958 238.113 318.114 237.458 318.114C236.886 318.114 236.38 317.987 235.941 317.733C235.505 317.475 235.165 317.102 234.918 316.614C234.672 316.121 234.549 315.527 234.549 314.83V309.273H236.606V314.511C236.606 315.064 236.757 315.504 237.06 315.83C237.363 316.155 237.761 316.318 238.254 316.318C238.557 316.318 238.85 316.244 239.134 316.097C239.418 315.949 239.651 315.729 239.833 315.438C240.019 315.142 240.112 314.773 240.112 314.33ZM246.34 306.364V318H244.283V306.364H246.34ZM250.512 306.364V318H248.455V306.364H250.512ZM253.906 321.273C253.625 321.273 253.366 321.25 253.127 321.205C252.892 321.163 252.705 321.114 252.565 321.057L253.042 319.455C253.341 319.542 253.608 319.583 253.843 319.58C254.078 319.576 254.284 319.502 254.462 319.358C254.644 319.218 254.798 318.983 254.923 318.653L255.099 318.182L251.934 309.273H254.116L256.127 315.864H256.218L258.235 309.273H260.423L256.928 319.057C256.765 319.519 256.549 319.915 256.281 320.244C256.012 320.578 255.682 320.831 255.292 321.006C254.906 321.184 254.443 321.273 253.906 321.273ZM264.363 306.364L264.175 314.58H262.346L262.164 306.364H264.363ZM263.261 318.125C262.916 318.125 262.621 318.004 262.374 317.761C262.132 317.519 262.011 317.223 262.011 316.875C262.011 316.534 262.132 316.242 262.374 316C262.621 315.758 262.916 315.636 263.261 315.636C263.598 315.636 263.889 315.758 264.136 316C264.386 316.242 264.511 316.534 264.511 316.875C264.511 317.106 264.452 317.316 264.335 317.506C264.221 317.695 264.069 317.847 263.88 317.96C263.694 318.07 263.488 318.125 263.261 318.125Z" fill="#F2F2F2"/>
<path d="M142.796 375.592V367.96H156.092V403H147.548V375.592H142.796ZM162.451 403.168C161.955 403.168 161.539 403 161.203 402.664C160.867 402.328 160.699 401.912 160.699 401.416C160.699 400.92 160.867 400.504 161.203 400.168C161.539 399.832 161.955 399.664 162.451 399.664C162.931 399.664 163.339 399.832 163.675 400.168C164.011 400.504 164.179 400.92 164.179 401.416C164.179 401.912 164.011 402.328 163.675 402.664C163.339 403 162.931 403.168 162.451 403.168ZM168.776 394.024C168.776 391.256 169.24 389.096 170.168 387.544C171.112 385.976 172.728 385.192 175.016 385.192C177.304 385.192 178.912 385.976 179.84 387.544C180.784 389.096 181.256 391.256 181.256 394.024C181.256 396.824 180.784 399.016 179.84 400.6C178.912 402.168 177.304 402.952 175.016 402.952C172.728 402.952 171.112 402.168 170.168 400.6C169.24 399.016 168.776 396.824 168.776 394.024ZM178.568 394.024C178.568 392.728 178.48 391.632 178.304 390.736C178.144 389.84 177.808 389.112 177.296 388.552C176.784 387.976 176.024 387.688 175.016 387.688C174.008 387.688 173.248 387.976 172.736 388.552C172.224 389.112 171.88 389.84 171.704 390.736C171.544 391.632 171.464 392.728 171.464 394.024C171.464 395.368 171.544 396.496 171.704 397.408C171.864 398.32 172.2 399.056 172.712 399.616C173.24 400.176 174.008 400.456 175.016 400.456C176.024 400.456 176.784 400.176 177.296 399.616C177.824 399.056 178.168 398.32 178.328 397.408C178.488 396.496 178.568 395.368 178.568 394.024ZM186.151 394.024C186.151 391.256 186.615 389.096 187.543 387.544C188.487 385.976 190.103 385.192 192.391 385.192C194.679 385.192 196.287 385.976 197.215 387.544C198.159 389.096 198.631 391.256 198.631 394.024C198.631 396.824 198.159 399.016 197.215 400.6C196.287 402.168 194.679 402.952 192.391 402.952C190.103 402.952 188.487 402.168 187.543 400.6C186.615 399.016 186.151 396.824 186.151 394.024ZM195.943 394.024C195.943 392.728 195.855 391.632 195.679 390.736C195.519 389.84 195.183 389.112 194.671 388.552C194.159 387.976 193.399 387.688 192.391 387.688C191.383 387.688 190.623 387.976 190.111 388.552C189.599 389.112 189.255 389.84 189.079 390.736C188.919 391.632 188.839 392.728 188.839 394.024C188.839 395.368 188.919 396.496 189.079 397.408C189.239 398.32 189.575 399.056 190.087 399.616C190.615 400.176 191.383 400.456 192.391 400.456C193.399 400.456 194.159 400.176 194.671 399.616C195.199 399.056 195.543 398.32 195.703 397.408C195.863 396.496 195.943 395.368 195.943 394.024ZM214.422 395L210.548 390.522V395H208.907V384.992H210.548V389.557L214.436 384.992H216.495L212.147 390.003L216.567 395H214.422ZM233.051 384.992L230.085 395H228.227L226.125 387.426L223.893 395L222.049 395.014L219.213 384.992H220.955L223.029 393.142L225.275 384.992H227.118L229.206 393.099L231.294 384.992H233.051ZM239.674 384.992C240.739 384.992 241.671 385.198 242.467 385.611C243.274 386.014 243.893 386.6 244.325 387.368C244.767 388.126 244.987 389.014 244.987 390.032C244.987 391.05 244.767 391.933 244.325 392.682C243.893 393.43 243.274 394.006 242.467 394.41C241.671 394.803 240.739 395 239.674 395H236.405V384.992H239.674ZM239.674 393.661C240.845 393.661 241.743 393.344 242.367 392.71C242.991 392.077 243.303 391.184 243.303 390.032C243.303 388.87 242.991 387.963 242.367 387.31C241.743 386.658 240.845 386.331 239.674 386.331H238.047V393.661H239.674Z" fill="#F2F2F2"/>
<path d="M116.092 422.084C116.092 422.78 115.852 423.36 115.372 423.824C114.9 424.28 114.176 424.508 113.2 424.508H111.592V428H110.5V419.636H113.2C114.144 419.636 114.86 419.864 115.348 420.32C115.844 420.776 116.092 421.364 116.092 422.084ZM113.2 423.608C113.808 423.608 114.256 423.476 114.544 423.212C114.832 422.948 114.976 422.572 114.976 422.084C114.976 421.052 114.384 420.536 113.2 420.536H111.592V423.608H113.2ZM117.041 424.688C117.041 424.016 117.177 423.428 117.449 422.924C117.721 422.412 118.093 422.016 118.565 421.736C119.045 421.456 119.577 421.316 120.161 421.316C120.737 421.316 121.237 421.44 121.661 421.688C122.085 421.936 122.401 422.248 122.609 422.624V421.424H123.713V428H122.609V426.776C122.393 427.16 122.069 427.48 121.637 427.736C121.213 427.984 120.717 428.108 120.149 428.108C119.565 428.108 119.037 427.964 118.565 427.676C118.093 427.388 117.721 426.984 117.449 426.464C117.177 425.944 117.041 425.352 117.041 424.688ZM122.609 424.7C122.609 424.204 122.509 423.772 122.309 423.404C122.109 423.036 121.837 422.756 121.493 422.564C121.157 422.364 120.785 422.264 120.377 422.264C119.969 422.264 119.597 422.36 119.261 422.552C118.925 422.744 118.657 423.024 118.457 423.392C118.257 423.76 118.157 424.192 118.157 424.688C118.157 425.192 118.257 425.632 118.457 426.008C118.657 426.376 118.925 426.66 119.261 426.86C119.597 427.052 119.969 427.148 120.377 427.148C120.785 427.148 121.157 427.052 121.493 426.86C121.837 426.66 122.109 426.376 122.309 426.008C122.509 425.632 122.609 425.196 122.609 424.7ZM126.123 420.356C125.915 420.356 125.739 420.284 125.595 420.14C125.451 419.996 125.379 419.82 125.379 419.612C125.379 419.404 125.451 419.228 125.595 419.084C125.739 418.94 125.915 418.868 126.123 418.868C126.323 418.868 126.491 418.94 126.627 419.084C126.771 419.228 126.843 419.404 126.843 419.612C126.843 419.82 126.771 419.996 126.627 420.14C126.491 420.284 126.323 420.356 126.123 420.356ZM126.651 421.424V428H125.559V421.424H126.651ZM128.104 424.688C128.104 424.016 128.24 423.428 128.512 422.924C128.784 422.412 129.156 422.016 129.628 421.736C130.108 421.456 130.644 421.316 131.236 421.316C131.748 421.316 132.224 421.436 132.664 421.676C133.104 421.908 133.44 422.216 133.672 422.6V419.12H134.776V428H133.672V426.764C133.456 427.156 133.136 427.48 132.712 427.736C132.288 427.984 131.792 428.108 131.224 428.108C130.64 428.108 130.108 427.964 129.628 427.676C129.156 427.388 128.784 426.984 128.512 426.464C128.24 425.944 128.104 425.352 128.104 424.688ZM133.672 424.7C133.672 424.204 133.572 423.772 133.372 423.404C133.172 423.036 132.9 422.756 132.556 422.564C132.22 422.364 131.848 422.264 131.44 422.264C131.032 422.264 130.66 422.36 130.324 422.552C129.988 422.744 129.72 423.024 129.52 423.392C129.32 423.76 129.22 424.192 129.22 424.688C129.22 425.192 129.32 425.632 129.52 426.008C129.72 426.376 129.988 426.66 130.324 426.86C130.66 427.052 131.032 427.148 131.44 427.148C131.848 427.148 132.22 427.052 132.556 426.86C132.9 426.66 133.172 426.376 133.372 426.008C133.572 425.632 133.672 425.196 133.672 424.7ZM142.688 428.108C142.072 428.108 141.512 427.968 141.008 427.688C140.512 427.408 140.12 427.012 139.832 426.5C139.552 425.98 139.412 425.38 139.412 424.7C139.412 424.028 139.556 423.436 139.844 422.924C140.14 422.404 140.54 422.008 141.044 421.736C141.548 421.456 142.112 421.316 142.736 421.316C143.36 421.316 143.924 421.456 144.428 421.736C144.932 422.008 145.328 422.4 145.616 422.912C145.912 423.424 146.06 424.02 146.06 424.7C146.06 425.38 145.908 425.98 145.604 426.5C145.308 427.012 144.904 427.408 144.392 427.688C143.88 427.968 143.312 428.108 142.688 428.108ZM142.688 427.148C143.08 427.148 143.448 427.056 143.792 426.872C144.136 426.688 144.412 426.412 144.62 426.044C144.836 425.676 144.944 425.228 144.944 424.7C144.944 424.172 144.84 423.724 144.632 423.356C144.424 422.988 144.152 422.716 143.816 422.54C143.48 422.356 143.116 422.264 142.724 422.264C142.324 422.264 141.956 422.356 141.62 422.54C141.292 422.716 141.028 422.988 140.828 423.356C140.628 423.724 140.528 424.172 140.528 424.7C140.528 425.236 140.624 425.688 140.816 426.056C141.016 426.424 141.28 426.7 141.608 426.884C141.936 427.06 142.296 427.148 142.688 427.148ZM150.7 421.304C151.5 421.304 152.148 421.548 152.644 422.036C153.14 422.516 153.388 423.212 153.388 424.124V428H152.308V424.28C152.308 423.624 152.144 423.124 151.816 422.78C151.488 422.428 151.04 422.252 150.472 422.252C149.896 422.252 149.436 422.432 149.092 422.792C148.756 423.152 148.588 423.676 148.588 424.364V428H147.496V421.424H148.588V422.36C148.804 422.024 149.096 421.764 149.464 421.58C149.84 421.396 150.252 421.304 150.7 421.304ZM157.903 420.32V419.324H160.159V428H159.055V420.32H157.903ZM163.619 423.488C163.171 423.312 162.827 423.056 162.587 422.72C162.347 422.384 162.227 421.976 162.227 421.496C162.227 421.064 162.335 420.676 162.551 420.332C162.767 419.98 163.087 419.704 163.511 419.504C163.943 419.296 164.463 419.192 165.071 419.192C165.679 419.192 166.195 419.296 166.619 419.504C167.051 419.704 167.375 419.98 167.591 420.332C167.815 420.676 167.927 421.064 167.927 421.496C167.927 421.96 167.803 422.368 167.555 422.72C167.307 423.064 166.967 423.32 166.535 423.488C167.031 423.64 167.423 423.908 167.711 424.292C168.007 424.668 168.155 425.124 168.155 425.66C168.155 426.18 168.027 426.636 167.771 427.028C167.515 427.412 167.151 427.712 166.679 427.928C166.215 428.136 165.679 428.24 165.071 428.24C164.463 428.24 163.927 428.136 163.463 427.928C163.007 427.712 162.651 427.412 162.395 427.028C162.139 426.636 162.011 426.18 162.011 425.66C162.011 425.124 162.155 424.664 162.443 424.28C162.731 423.896 163.123 423.632 163.619 423.488ZM166.871 421.628C166.871 421.14 166.711 420.764 166.391 420.5C166.071 420.236 165.631 420.104 165.071 420.104C164.519 420.104 164.083 420.236 163.763 420.5C163.443 420.764 163.283 421.144 163.283 421.64C163.283 422.088 163.447 422.448 163.775 422.72C164.111 422.992 164.543 423.128 165.071 423.128C165.607 423.128 166.039 422.992 166.367 422.72C166.703 422.44 166.871 422.076 166.871 421.628ZM165.071 423.968C164.479 423.968 163.995 424.108 163.619 424.388C163.243 424.66 163.055 425.072 163.055 425.624C163.055 426.136 163.235 426.548 163.595 426.86C163.963 427.172 164.455 427.328 165.071 427.328C165.687 427.328 166.175 427.172 166.535 426.86C166.895 426.548 167.075 426.136 167.075 425.624C167.075 425.088 166.891 424.68 166.523 424.4C166.155 424.112 165.671 423.968 165.071 423.968ZM177.197 419.636V425.816C177.197 426.504 176.985 427.056 176.561 427.472C176.137 427.88 175.577 428.084 174.881 428.084C174.177 428.084 173.613 427.876 173.189 427.46C172.765 427.036 172.553 426.46 172.553 425.732H173.645C173.653 426.14 173.757 426.472 173.957 426.728C174.165 426.984 174.473 427.112 174.881 427.112C175.289 427.112 175.593 426.992 175.793 426.752C175.993 426.504 176.093 426.192 176.093 425.816V419.636H177.197ZM185.18 421.424V428H184.088V427.028C183.88 427.364 183.588 427.628 183.212 427.82C182.844 428.004 182.436 428.096 181.988 428.096C181.476 428.096 181.016 427.992 180.608 427.784C180.2 427.568 179.876 427.248 179.636 426.824C179.404 426.4 179.288 425.884 179.288 425.276V421.424H180.368V425.132C180.368 425.78 180.532 426.28 180.86 426.632C181.188 426.976 181.636 427.148 182.204 427.148C182.788 427.148 183.248 426.968 183.584 426.608C183.92 426.248 184.088 425.724 184.088 425.036V421.424H185.18ZM190.228 421.304C191.028 421.304 191.676 421.548 192.172 422.036C192.668 422.516 192.916 423.212 192.916 424.124V428H191.836V424.28C191.836 423.624 191.672 423.124 191.344 422.78C191.016 422.428 190.568 422.252 190 422.252C189.424 422.252 188.964 422.432 188.62 422.792C188.284 423.152 188.116 423.676 188.116 424.364V428H187.024V421.424H188.116V422.36C188.332 422.024 188.624 421.764 188.992 421.58C189.368 421.396 189.78 421.304 190.228 421.304ZM200.699 424.46C200.699 424.668 200.687 424.888 200.663 425.12H195.407C195.447 425.768 195.667 426.276 196.067 426.644C196.475 427.004 196.967 427.184 197.543 427.184C198.015 427.184 198.407 427.076 198.719 426.86C199.039 426.636 199.263 426.34 199.391 425.972H200.567C200.391 426.604 200.039 427.12 199.511 427.52C198.983 427.912 198.327 428.108 197.543 428.108C196.919 428.108 196.359 427.968 195.863 427.688C195.375 427.408 194.991 427.012 194.711 426.5C194.431 425.98 194.291 425.38 194.291 424.7C194.291 424.02 194.427 423.424 194.699 422.912C194.971 422.4 195.351 422.008 195.839 421.736C196.335 421.456 196.903 421.316 197.543 421.316C198.167 421.316 198.719 421.452 199.199 421.724C199.679 421.996 200.047 422.372 200.303 422.852C200.567 423.324 200.699 423.86 200.699 424.46ZM199.571 424.232C199.571 423.816 199.479 423.46 199.295 423.164C199.111 422.86 198.859 422.632 198.539 422.48C198.227 422.32 197.879 422.24 197.495 422.24C196.943 422.24 196.471 422.416 196.079 422.768C195.695 423.12 195.475 423.608 195.419 424.232H199.571ZM205.028 427.124C206.044 426.308 206.84 425.64 207.416 425.12C207.992 424.592 208.476 424.044 208.868 423.476C209.268 422.9 209.468 422.336 209.468 421.784C209.468 421.264 209.34 420.856 209.084 420.56C208.836 420.256 208.432 420.104 207.872 420.104C207.328 420.104 206.904 420.276 206.6 420.62C206.304 420.956 206.144 421.408 206.12 421.976H205.064C205.096 421.08 205.368 420.388 205.88 419.9C206.392 419.412 207.052 419.168 207.86 419.168C208.684 419.168 209.336 419.396 209.816 419.852C210.304 420.308 210.548 420.936 210.548 421.736C210.548 422.4 210.348 423.048 209.948 423.68C209.556 424.304 209.108 424.856 208.604 425.336C208.1 425.808 207.456 426.36 206.672 426.992H210.8V427.904H205.028V427.124ZM212.062 423.572C212.062 422.196 212.286 421.124 212.734 420.356C213.182 419.58 213.966 419.192 215.086 419.192C216.198 419.192 216.978 419.58 217.426 420.356C217.874 421.124 218.098 422.196 218.098 423.572C218.098 424.972 217.874 426.06 217.426 426.836C216.978 427.612 216.198 428 215.086 428C213.966 428 213.182 427.612 212.734 426.836C212.286 426.06 212.062 424.972 212.062 423.572ZM217.018 423.572C217.018 422.876 216.97 422.288 216.874 421.808C216.786 421.32 216.598 420.928 216.31 420.632C216.03 420.336 215.622 420.188 215.086 420.188C214.542 420.188 214.126 420.336 213.838 420.632C213.558 420.928 213.37 421.32 213.274 421.808C213.186 422.288 213.142 422.876 213.142 423.572C213.142 424.292 213.186 424.896 213.274 425.384C213.37 425.872 213.558 426.264 213.838 426.56C214.126 426.856 214.542 427.004 215.086 427.004C215.622 427.004 216.03 426.856 216.31 426.56C216.598 426.264 216.786 425.872 216.874 425.384C216.97 424.896 217.018 424.292 217.018 423.572ZM219.466 427.124C220.482 426.308 221.278 425.64 221.854 425.12C222.43 424.592 222.914 424.044 223.306 423.476C223.706 422.9 223.906 422.336 223.906 421.784C223.906 421.264 223.778 420.856 223.522 420.56C223.274 420.256 222.87 420.104 222.31 420.104C221.766 420.104 221.342 420.276 221.038 420.62C220.742 420.956 220.582 421.408 220.558 421.976H219.502C219.534 421.08 219.806 420.388 220.318 419.9C220.83 419.412 221.49 419.168 222.298 419.168C223.122 419.168 223.774 419.396 224.254 419.852C224.742 420.308 224.986 420.936 224.986 421.736C224.986 422.4 224.786 423.048 224.386 423.68C223.994 424.304 223.546 424.856 223.042 425.336C222.538 425.808 221.894 426.36 221.11 426.992H225.238V427.904H219.466V427.124ZM232.032 420.272H227.82V423.008C228.004 422.752 228.276 422.544 228.636 422.384C228.996 422.216 229.384 422.132 229.8 422.132C230.464 422.132 231.004 422.272 231.42 422.552C231.836 422.824 232.132 423.18 232.308 423.62C232.492 424.052 232.584 424.512 232.584 425C232.584 425.576 232.476 426.092 232.26 426.548C232.044 427.004 231.712 427.364 231.264 427.628C230.824 427.892 230.276 428.024 229.62 428.024C228.78 428.024 228.1 427.808 227.58 427.376C227.06 426.944 226.744 426.368 226.632 425.648H227.7C227.804 426.104 228.024 426.46 228.36 426.716C228.696 426.972 229.12 427.1 229.632 427.1C230.264 427.1 230.74 426.912 231.06 426.536C231.38 426.152 231.54 425.648 231.54 425.024C231.54 424.4 231.38 423.92 231.06 423.584C230.74 423.24 230.268 423.068 229.644 423.068C229.22 423.068 228.848 423.172 228.528 423.38C228.216 423.58 227.988 423.856 227.844 424.208H226.812V419.312H232.032V420.272ZM235.343 426.488L233.999 429.716H233.267L234.143 426.488H235.343ZM239.325 420.32V419.324H241.581V428H240.477V420.32H239.325ZM243.985 428.072C243.777 428.072 243.601 428 243.457 427.856C243.313 427.712 243.241 427.536 243.241 427.328C243.241 427.12 243.313 426.944 243.457 426.8C243.601 426.656 243.777 426.584 243.985 426.584C244.185 426.584 244.353 426.656 244.489 426.8C244.633 426.944 244.705 427.12 244.705 427.328C244.705 427.536 244.633 427.712 244.489 427.856C244.353 428 244.185 428.072 243.985 428.072ZM243.985 422.936C243.777 422.936 243.601 422.864 243.457 422.72C243.313 422.576 243.241 422.4 243.241 422.192C243.241 421.984 243.313 421.808 243.457 421.664C243.601 421.52 243.777 421.448 243.985 421.448C244.185 421.448 244.353 421.52 244.489 421.664C244.633 421.808 244.705 421.984 244.705 422.192C244.705 422.4 244.633 422.576 244.489 422.72C244.353 422.864 244.185 422.936 243.985 422.936ZM245.988 421.508C246.044 420.772 246.328 420.196 246.84 419.78C247.352 419.364 248.016 419.156 248.832 419.156C249.376 419.156 249.844 419.256 250.236 419.456C250.636 419.648 250.936 419.912 251.136 420.248C251.344 420.584 251.448 420.964 251.448 421.388C251.448 421.884 251.304 422.312 251.016 422.672C250.736 423.032 250.368 423.264 249.912 423.368V423.428C250.432 423.556 250.844 423.808 251.148 424.184C251.452 424.56 251.604 425.052 251.604 425.66C251.604 426.116 251.5 426.528 251.292 426.896C251.084 427.256 250.772 427.54 250.356 427.748C249.94 427.956 249.44 428.06 248.856 428.06C248.008 428.06 247.312 427.84 246.768 427.4C246.224 426.952 245.92 426.32 245.856 425.504H246.912C246.968 425.984 247.164 426.376 247.5 426.68C247.836 426.984 248.284 427.136 248.844 427.136C249.404 427.136 249.828 426.992 250.116 426.704C250.412 426.408 250.56 426.028 250.56 425.564C250.56 424.964 250.36 424.532 249.96 424.268C249.56 424.004 248.956 423.872 248.148 423.872H247.872V422.96H248.16C248.896 422.952 249.452 422.832 249.828 422.6C250.204 422.36 250.392 421.992 250.392 421.496C250.392 421.072 250.252 420.732 249.972 420.476C249.7 420.22 249.308 420.092 248.796 420.092C248.3 420.092 247.9 420.22 247.596 420.476C247.292 420.732 247.112 421.076 247.056 421.508H245.988ZM257.914 421.388C257.738 420.5 257.19 420.056 256.27 420.056C255.558 420.056 255.026 420.332 254.674 420.884C254.322 421.428 254.15 422.328 254.158 423.584C254.342 423.168 254.646 422.844 255.07 422.612C255.502 422.372 255.982 422.252 256.51 422.252C257.334 422.252 257.99 422.508 258.478 423.02C258.974 423.532 259.222 424.24 259.222 425.144C259.222 425.688 259.114 426.176 258.898 426.608C258.69 427.04 258.37 427.384 257.938 427.64C257.514 427.896 256.998 428.024 256.39 428.024C255.566 428.024 254.922 427.84 254.458 427.472C253.994 427.104 253.67 426.596 253.486 425.948C253.302 425.3 253.21 424.5 253.21 423.548C253.21 420.612 254.234 419.144 256.282 419.144C257.066 419.144 257.682 419.356 258.13 419.78C258.578 420.204 258.842 420.74 258.922 421.388H257.914ZM256.282 423.176C255.938 423.176 255.614 423.248 255.31 423.392C255.006 423.528 254.758 423.74 254.566 424.028C254.382 424.308 254.29 424.652 254.29 425.06C254.29 425.668 254.466 426.164 254.818 426.548C255.17 426.924 255.674 427.112 256.33 427.112C256.89 427.112 257.334 426.94 257.662 426.596C257.998 426.244 258.166 425.772 258.166 425.18C258.166 424.556 258.006 424.068 257.686 423.716C257.366 423.356 256.898 423.176 256.282 423.176ZM261.967 422.636C262.183 422.26 262.503 421.948 262.927 421.7C263.359 421.444 263.859 421.316 264.427 421.316C265.011 421.316 265.539 421.456 266.011 421.736C266.491 422.016 266.867 422.412 267.139 422.924C267.411 423.428 267.547 424.016 267.547 424.688C267.547 425.352 267.411 425.944 267.139 426.464C266.867 426.984 266.491 427.388 266.011 427.676C265.539 427.964 265.011 428.108 264.427 428.108C263.867 428.108 263.371 427.984 262.939 427.736C262.515 427.48 262.191 427.164 261.967 426.788V431.12H260.875V421.424H261.967V422.636ZM266.431 424.688C266.431 424.192 266.331 423.76 266.131 423.392C265.931 423.024 265.659 422.744 265.315 422.552C264.979 422.36 264.607 422.264 264.199 422.264C263.799 422.264 263.427 422.364 263.083 422.564C262.747 422.756 262.475 423.04 262.267 423.416C262.067 423.784 261.967 424.212 261.967 424.7C261.967 425.196 262.067 425.632 262.267 426.008C262.475 426.376 262.747 426.66 263.083 426.86C263.427 427.052 263.799 427.148 264.199 427.148C264.607 427.148 264.979 427.052 265.315 426.86C265.659 426.66 265.931 426.376 266.131 426.008C266.331 425.632 266.431 425.192 266.431 424.688ZM276.893 421.304C277.405 421.304 277.861 421.412 278.261 421.628C278.661 421.836 278.977 422.152 279.209 422.576C279.441 423 279.557 423.516 279.557 424.124V428H278.477V424.28C278.477 423.624 278.313 423.124 277.985 422.78C277.665 422.428 277.229 422.252 276.677 422.252C276.109 422.252 275.657 422.436 275.321 422.804C274.985 423.164 274.817 423.688 274.817 424.376V428H273.737V424.28C273.737 423.624 273.573 423.124 273.245 422.78C272.925 422.428 272.489 422.252 271.937 422.252C271.369 422.252 270.917 422.436 270.581 422.804C270.245 423.164 270.077 423.688 270.077 424.376V428H268.985V421.424H270.077V422.372C270.293 422.028 270.581 421.764 270.941 421.58C271.309 421.396 271.713 421.304 272.153 421.304C272.705 421.304 273.193 421.428 273.617 421.676C274.041 421.924 274.357 422.288 274.565 422.768C274.749 422.304 275.053 421.944 275.477 421.688C275.901 421.432 276.373 421.304 276.893 421.304Z" fill="#F2F2F2"/>
</g>
<defs>
<linearGradient id="paint0_linear_77_167" x1="195" y1="182" x2="195" y2="278" gradientUnits="userSpaceOnUse">
<stop stop-color="#EBF5FF"/>
<stop offset="1" stop-color="white"/>
</linearGradient>
<clipPath id="clip0_77_167">
<rect width="390" height="844" fill="white"/>
</clipPath>
<clipPath id="clip1_77_167">
<rect width="390" height="560" fill="white"/>
</clipPath>
</defs>
</svg>
